<svg xmlns="http://www.w3.org/2000/svg" width="1000" height="1000"><g clip-path="url(#a)"><path fill="#030712" d="M0 0h1000v1000H0z"/><svg xmlns="http://www.w3.org/2000/svg" xmlns:svgjs="http://svgjs.dev/svgjs" xmlns:xlink="http://www.w3.org/1999/xlink" width="512" height="512" transform="translate(200 200)scale(1.17188)"><svg xmlns="http://www.w3.org/2000/svg" width="512" height="512" fill="none" viewBox="0 0 512 512"><g clip-path="url(#b)"><g clip-path="url(#c)"><path fill="#fff" d="M185.029 436.133c-23.133-21.146-29.886-65.576-20.248-97.765 16.711 20.295 39.865 26.723 63.849 30.352 37.025 5.6 73.387 3.506 107.782-13.417 3.934-1.938 7.571-4.514 11.87-7.123 3.227 9.363 4.067 18.815 2.94 28.436-2.741 23.43-14.401 41.529-32.947 55.249-7.416 5.488-15.263 10.394-22.923 15.568-23.53 15.904-29.896 34.552-21.054 61.676.21.665.398 1.325.873 2.938-12.014-5.379-20.79-13.208-27.476-23.501-7.062-10.862-10.422-22.879-10.599-35.883-.089-6.327-.089-12.712-.94-18.95-2.077-15.209-9.217-22.019-22.668-22.411-13.804-.403-24.724 8.131-27.619 21.571-.222 1.03-.542 2.05-.863 3.248z"/><path fill="url(#d)" d="M185.029 436.133c-23.133-21.146-29.886-65.576-20.248-97.765 16.711 20.295 39.865 26.723 63.849 30.352 37.025 5.6 73.387 3.506 107.782-13.417 3.934-1.938 7.571-4.514 11.87-7.123 3.227 9.363 4.067 18.815 2.94 28.436-2.741 23.43-14.401 41.529-32.947 55.249-7.416 5.488-15.263 10.394-22.923 15.568-23.53 15.904-29.896 34.552-21.054 61.676.21.665.398 1.325.873 2.938-12.014-5.379-20.79-13.208-27.476-23.501-7.062-10.862-10.422-22.879-10.599-35.883-.089-6.327-.089-12.712-.94-18.95-2.077-15.209-9.217-22.019-22.668-22.411-13.804-.403-24.724 8.131-27.619 21.571-.222 1.03-.542 2.05-.863 3.248z"/><path fill="#fff" d="M53 333.006s68.499-33.369 137.189-33.369l51.79-160.282c1.939-7.751 7.601-13.019 13.992-13.019s12.053 5.268 13.992 13.019l51.79 160.282c81.354 0 137.189 33.369 137.189 33.369S342.591 16.043 342.364 15.406C339.025 6.037 333.387 0 325.787 0H186.168c-7.601 0-13.011 6.035-16.577 15.407C169.339 16.03 53 333.006 53 333.006"/></g></g><defs><clipPath id="b"><path fill="#fff" d="M0 0h512v512H0z"/></clipPath><clipPath id="c"><path fill="#fff" d="M53 0h406.766v512.047H53z"/></clipPath><clipPath id="a"><rect width="1000" height="1000" rx="350" ry="350"/></clipPath><linearGradient id="d" x1="160.531" x2="383.893" y1="512.047" y2="406.512" gradientUnits="userSpaceOnUse"><stop stop-color="#d83333"/><stop offset="1" stop-color="#f041ff"/></linearGradient></defs></svg></svg></g></svg>