<svg xmlns="http://www.w3.org/2000/svg" version="1.1" xmlns:xlink="http://www.w3.org/1999/xlink" xmlns:svgjs="http://svgjs.dev/svgjs" width="1000" height="1000"><g clip-path="url(#SvgjsClipPath1082)"><rect width="1000" height="1000" fill="#030712"></rect><g transform="matrix(1.171875,0,0,1.171875,200,200)"><svg xmlns="http://www.w3.org/2000/svg" version="1.1" xmlns:xlink="http://www.w3.org/1999/xlink" xmlns:svgjs="http://svgjs.dev/svgjs" width="512" height="512"><svg width="512" height="512" viewBox="0 0 512 512" fill="none" xmlns="http://www.w3.org/2000/svg">
<g clip-path="url(#clip0_5471_1371)">
<path d="M185.017 436.092C161.886 414.949 155.134 370.523 164.771 338.337C181.48 358.63 204.632 365.058 228.614 368.686C265.636 374.286 301.994 372.192 336.386 355.27C340.32 353.333 343.956 350.757 348.255 348.148C351.482 357.51 352.321 366.961 351.195 376.581C348.454 400.009 336.794 418.107 318.25 431.826C310.835 437.313 302.989 442.218 295.33 447.392C271.802 463.295 265.436 481.94 274.277 509.062C274.487 509.727 274.675 510.387 275.151 512C263.138 506.622 254.363 498.793 247.677 488.501C240.615 477.64 237.256 465.624 237.079 452.622C236.99 446.295 236.99 439.911 236.14 433.673C234.062 418.465 226.923 411.656 213.473 411.264C199.67 410.861 188.752 419.395 185.856 432.833C185.635 433.864 185.315 434.883 184.994 436.081L185.017 436.092Z" fill="white"></path>
<path d="M185.017 436.092C161.886 414.949 155.134 370.523 164.771 338.337C181.48 358.63 204.632 365.058 228.614 368.686C265.636 374.286 301.994 372.192 336.386 355.27C340.32 353.333 343.956 350.757 348.255 348.148C351.482 357.51 352.321 366.961 351.195 376.581C348.454 400.009 336.794 418.107 318.25 431.826C310.835 437.313 302.989 442.218 295.33 447.392C271.802 463.295 265.436 481.94 274.277 509.062C274.487 509.727 274.675 510.387 275.151 512C263.138 506.622 254.363 498.793 247.677 488.501C240.615 477.64 237.256 465.624 237.079 452.622C236.99 446.295 236.99 439.911 236.14 433.673C234.062 418.465 226.923 411.656 213.473 411.264C199.67 410.861 188.752 419.395 185.856 432.833C185.635 433.864 185.315 434.883 184.994 436.081L185.017 436.092Z" fill="url(#paint0_linear_5471_1371)"></path>
<path d="M53 332.975C53 332.975 121.493 299.609 190.177 299.609L241.962 139.342C243.901 131.592 249.562 126.325 255.952 126.325C262.343 126.325 268.004 131.592 269.943 139.342L321.729 299.609C403.074 299.609 458.905 332.975 458.905 332.975C458.905 332.975 342.565 16.0411 342.337 15.4052C338.998 6.0349 333.361 0 325.762 0H186.155C178.556 0 173.146 6.0349 169.58 15.4052C169.328 16.0291 53 332.975 53 332.975Z" fill="white"></path>
</g>
<defs>
<linearGradient id="paint0_linear_5471_1371" x1="160.521" y1="512" x2="383.863" y2="406.474" gradientUnits="userSpaceOnUse">
<stop stop-color="#D83333"></stop>
<stop offset="1" stop-color="#F041FF"></stop>
</linearGradient>
<clipPath id="clip0_5471_1371">
<rect width="406.729" height="512" fill="white" transform="translate(53)"></rect>
</clipPath>
<clipPath id="SvgjsClipPath1082"><rect width="1000" height="1000" x="0" y="0" rx="300" ry="300"></rect></clipPath></defs>
</svg></svg></g></g></svg>