<?xml version="1.0" standalone="no"?>
<!DOCTYPE svg PUBLIC "-//W3C//DTD SVG 20010904//EN"
 "http://www.w3.org/TR/2001/REC-SVG-20010904/DTD/svg10.dtd">
<svg version="1.0" xmlns="http://www.w3.org/2000/svg"
 width="700.000000pt" height="700.000000pt" viewBox="0 0 700.000000 700.000000"
 preserveAspectRatio="xMidYMid meet">
<metadata>
Created by potrace 1.14, written by Peter Selinger 2001-2017
</metadata>
<g transform="translate(0.000000,700.000000) scale(0.100000,-0.100000)"
fill="#000000" stroke="none">
<path d="M2502 6875 c-77 -42 -116 -107 -196 -327 -20 -54 -51 -140 -70 -190
-19 -51 -109 -300 -201 -553 -92 -253 -173 -474 -181 -492 -8 -17 -14 -36 -14
-42 0 -6 -4 -19 -9 -29 -6 -9 -31 -75 -57 -147 -25 -71 -69 -191 -96 -265 -28
-74 -67 -182 -88 -240 -21 -58 -84 -231 -140 -385 -56 -154 -117 -320 -135
-370 -18 -49 -76 -209 -130 -355 -107 -293 -150 -412 -220 -605 -25 -71 -50
-139 -55 -150 -4 -11 -11 -29 -15 -40 -4 -11 -22 -62 -41 -112 l-33 -93 57 26
c31 14 68 30 82 36 14 5 38 16 55 23 108 50 454 166 640 215 204 54 429 100
560 115 141 16 236 23 343 26 l69 2 51 156 c28 86 89 278 137 426 48 149 109
338 135 420 27 83 85 265 130 405 45 140 108 336 140 435 32 99 68 210 79 247
30 101 58 145 114 181 79 51 191 10 243 -89 6 -12 21 -52 33 -90 12 -38 58
-181 103 -319 44 -137 98 -306 119 -375 22 -69 46 -143 54 -165 7 -22 48 -148
90 -280 42 -132 99 -307 125 -390 69 -212 125 -388 151 -470 12 -38 26 -75 31
-81 5 -7 43 -13 91 -14 120 -2 287 -13 372 -25 150 -21 206 -30 310 -50 324
-64 670 -179 926 -308 l106 -53 -19 55 c-11 31 -23 65 -28 76 -5 11 -27 70
-49 130 -36 102 -431 1188 -506 1390 -18 50 -61 167 -95 260 -34 94 -65 179
-70 190 -5 11 -30 79 -55 150 -51 143 -95 262 -178 490 -157 428 -259 708
-395 1081 -82 225 -157 425 -166 443 -26 49 -87 112 -123 128 -47 19 -1946 17
-1981 -2z"/>
<path d="M2286 2392 c-26 -84 -49 -263 -50 -382 0 -67 12 -226 19 -260 3 -14
8 -41 11 -60 31 -183 138 -411 250 -532 l44 -47 16 57 c24 81 48 125 97 173
60 60 134 92 228 97 161 9 264 -55 307 -193 23 -76 29 -128 37 -338 11 -268
88 -460 250 -623 68 -69 219 -174 249 -174 2 0 -7 39 -21 88 -30 108 -41 275
-23 353 41 180 145 298 425 487 215 144 303 217 394 324 194 227 279 559 216
835 -9 40 -20 75 -24 77 -4 3 -36 -14 -71 -37 -160 -102 -444 -201 -680 -237
-202 -30 -523 -33 -720 -5 -41 6 -113 16 -145 21 -327 51 -564 156 -734 324
-56 56 -71 66 -75 52z"/>
</g>
</svg>
