<svg xmlns="http://www.w3.org/2000/svg" width="1176" height="409" fill="none"><path fill="#fff" d="M168.177 309.754c-11.55-10.558-14.921-32.738-10.109-48.807 8.343 10.131 19.903 13.341 31.878 15.151 18.485 2.797 36.64 1.751 53.813-6.697 1.964-.966 3.78-2.255 5.926-3.556 1.611 4.673 2.031 9.392 1.468 14.195-1.368 11.697-7.19 20.734-16.45 27.582-3.702 2.74-7.62 5.189-11.444 7.773-11.748 7.938-14.927 17.247-10.512 30.79.104.33.198.66.436 1.465-5.999-2.684-10.38-6.592-13.718-11.73-3.526-5.425-5.204-11.424-5.292-17.915-.044-3.159-.044-6.347-.469-9.46-1.038-7.592-4.603-10.992-11.318-11.189-6.892-.199-12.344 4.059-13.79 10.769-.11.514-.27 1.023-.43 1.621z"/><path fill="url(#a)" d="M168.177 309.754c-11.55-10.558-14.921-32.738-10.109-48.807 8.343 10.131 19.903 13.341 31.878 15.151 18.485 2.797 36.64 1.751 53.813-6.697 1.964-.966 3.78-2.255 5.926-3.556 1.611 4.673 2.031 9.392 1.468 14.195-1.368 11.697-7.19 20.734-16.45 27.582-3.702 2.74-7.62 5.189-11.444 7.773-11.748 7.938-14.927 17.247-10.512 30.79.104.33.198.66.436 1.465-5.999-2.684-10.38-6.592-13.718-11.73-3.526-5.425-5.204-11.424-5.292-17.915-.044-3.159-.044-6.347-.469-9.46-1.038-7.592-4.603-10.992-11.318-11.189-6.892-.199-12.344 4.059-13.79 10.769-.11.514-.27 1.023-.43 1.621z"/><path fill="#fff" d="M102.258 258.269s34.2-16.658 68.495-16.658l25.858-80.016c.968-3.87 3.794-6.5 6.986-6.5s6.017 2.63 6.986 6.5l25.857 80.016c40.617 0 68.496 16.658 68.496 16.658S246.844 100.034 246.73 99.717c-1.667-4.679-4.481-7.692-8.276-7.692h-69.709c-3.794 0-6.495 3.013-8.276 7.692-.126.311-58.211 158.552-58.211 158.552m360.579-50.899c0 14.021-17.444 22.395-41.595 22.395-15.72 0-21.278-3.895-21.278-12.074 0-8.569 6.9-12.658 22.618-12.658 14.186 0 26.26.194 40.255 1.947zm.191-17.333c-8.625-1.947-21.661-3.115-37.187-3.115-45.237 0-66.513 10.71-66.513 35.638 0 25.901 14.567 35.833 48.303 35.833 28.562 0 47.92-7.206 55.014-24.928h1.148c-.192 4.285-.381 8.569-.381 11.88 0 9.153 1.531 9.932 9.006 9.932h35.27c-1.917-5.453-3.065-20.838-3.065-34.081 0-14.216.573-24.927.573-39.338 0-29.406-17.633-48.102-72.838-48.102-23.768 0-50.221 4.09-70.346 10.127 1.915 7.984 4.6 24.148 5.942 34.664 17.443-8.179 42.17-11.684 61.338-11.684 26.45 0 33.736 6.037 33.736 18.306zm96.779 25.512c-4.791.585-11.31.585-18.019.585-7.092 0-13.608-.195-18.018-.779 0 1.558-.192 3.31-.192 4.868 0 24.344 15.912 38.559 71.882 38.559 52.71 0 69.77-14.021 69.77-38.753 0-23.37-11.308-34.86-61.336-37.391-38.913-1.753-42.362-6.038-42.362-10.906 0-5.648 4.983-8.569 31.052-8.569 27.027 0 34.311 3.7 34.311 11.49v1.753c3.835-.195 10.735-.39 17.826-.39 6.709 0 13.992.195 18.211.584 0-1.752.191-3.31.191-4.673 0-28.628-23.77-37.976-69.772-37.976-51.755 0-69.198 12.659-69.198 37.391 0 22.201 13.995 36.028 63.64 38.17 36.609 1.169 40.636 5.259 40.636 10.906 0 6.037-5.942 8.764-31.627 8.764-29.52 0-36.995-4.09-36.995-12.464zm168.685-102.631c-13.992 13.048-39.102 26.096-53.094 29.601.192 7.206.192 20.449.192 27.654l12.842.195c-.192 13.827-.384 30.575-.384 41.675 0 25.901 13.608 45.376 55.97 45.376 17.827 0 29.712-1.947 44.471-5.063-1.534-9.543-3.26-24.149-3.835-35.249-8.815 2.921-19.933 4.479-32.202 4.479-17.06 0-23.96-4.674-23.96-18.111 0-11.685 0-22.591.192-32.718 21.853.195 43.704.585 56.545.974-.192-10.127.192-24.733.767-34.47-18.591.39-39.485.584-56.737.584.192-8.568.384-16.748.575-24.927zm114.486 51.414c.191-10.127.383-18.696.575-27.07h-38.53c.576 16.748.576 33.886.576 59.008s-.192 42.455-.576 59.008h44.088c-.767-11.685-.959-31.354-.959-48.102 0-26.485 10.735-34.081 35.078-34.081 11.31 0 19.361 1.364 26.452 3.895.192-9.932 2.109-29.211 3.257-37.78-7.283-2.142-15.334-3.506-25.11-3.506-20.892-.194-36.226 8.374-43.318 28.823zm191.922 31.159c0 21.227-15.33 31.159-39.484 31.159-23.96 0-39.294-9.348-39.294-31.159 0-21.812 15.526-29.991 39.294-29.991 23.964 0 39.484 8.764 39.484 29.991m40.06-.974c0-42.26-32.97-61.15-79.544-61.15-46.769 0-78.588 18.89-78.588 61.15 0 42.065 29.709 64.657 78.396 64.657 49.066 0 79.736-22.592 79.736-64.657"/><defs><linearGradient id="a" x1="155.946" x2="267.461" y1="347.65" y2="294.957" gradientUnits="userSpaceOnUse"><stop stop-color="#D83333"/><stop offset="1" stop-color="#F041FF"/></linearGradient></defs></svg>