<svg xmlns="http://www.w3.org/2000/svg" width="124" height="29" fill="none" class="astralys-logo"><path d="m36.638 19.74 4.846-10.665h2.364L48.62 19.74h-2.274L45.3 17.377h-5.4l-1.12 2.363zm6.057-8.66L40.9 15.208h3.546L42.71 11.08zm9.379 5.49c.24 1.405 1.496 1.6 2.363 1.6.823 0 2.08-.24 2.08-1.332 0-2.273-6.358-.808-6.358-4.8 0-2.199 2.064-3.231 3.994-3.231 2.228 0 4.278.972 4.278 3.44l-2.274-.329c-.284-1.24-1.375-1.286-2.109-1.286s-1.616.314-1.616 1.212c0 .792.509.972 3.187 1.615.792.194 3.17.688 3.17 3.11 0 1.96-1.525 3.425-4.442 3.425-2.394 0-4.547-1.166-4.547-3.8l2.274.375Zm11.86-5.535h-3.395V9.076h9.108v1.975h-3.365v8.69h-2.348zm14.193 4.757 2.991 3.963h-2.871l-2.693-3.844h-1.152v3.844H72.04V9.062h4.816c2.693 0 3.724 1.69 3.724 3.424 0 1.45-.763 2.917-2.543 3.306h.091Zm-3.724-4.905v3.215h1.825c1.122 0 2.05-.254 2.05-1.616 0-1.36-.928-1.6-2.05-1.6zm8.166 8.853 4.846-10.665h2.364L94.55 19.74h-2.273l-1.047-2.363h-5.4l-1.12 2.363zm6.057-8.66-1.795 4.128h3.545l-1.734-4.128zm7.554 8.586V9.016h2.303v8.676h5.474v1.974h-7.778Zm11.247-4.084-3.933-6.52h2.648l2.497 4.217 2.483-4.217h2.618l-3.964 6.58v4.099h-2.348zm9.857.988c.24 1.405 1.496 1.6 2.363 1.6.823 0 2.08-.24 2.08-1.332 0-2.273-6.357-.808-6.357-4.8 0-2.199 2.063-3.231 3.993-3.231 2.229 0 4.278.972 4.278 3.44l-2.273-.329c-.285-1.24-1.376-1.286-2.11-1.286-.733 0-1.615.314-1.615 1.212 0 .792.508.972 3.186 1.615.793.194 3.171.688 3.171 3.11 0 1.96-1.525 3.425-4.443 3.425-2.392 0-4.546-1.166-4.546-3.8z" style="fill:#9ca3af;transition:fill .5s"/><path fill="#9ca3af" d="M30.355 28.737h-3.38q-.05 0-.1-.003c-4.698-.047-7.525-5.25-5.093-9.272l1.55-2.562c1.124-1.856.758-4.305-.952-5.645a4.25 4.25 0 0 0-3.363-.845c-1.244.213-2.313.998-2.965 2.076l-.149.25-.486.807L9.23 24.002a1.471 1.471 0 0 0 2.425 1.655l5.381-6.895a.177.177 0 0 1 .3.186l-3.837 7.971a3.21 3.21 0 0 1-2.895 1.82H3.508c-2.689 0-4.376-2.904-3.041-5.236L12.447 2.5c1.89-3.307 6.643-3.337 8.573-.053l3.813 6.48 8.54 14.535c1.37 2.333-.31 5.277-3.017 5.277h-.001ZM19.44 12.07l-.655 2.016a.12.12 0 0 1-.113.082h-2.12a.119.119 0 0 0-.069.215l1.715 1.246a.12.12 0 0 1 .044.133l-.655 2.016c-.035.11.09.2.183.133l1.715-1.247a.12.12 0 0 1 .14 0l1.715 1.246c.093.068.219-.023.182-.132l-.654-2.016a.12.12 0 0 1 .043-.133l1.715-1.246a.119.119 0 0 0-.07-.215h-2.119a.12.12 0 0 1-.113-.082l-.655-2.016a.119.119 0 0 0-.226 0z" class="atralys-logo-gray"/><path fill="#9ca3af" d="m19.654 12.599.535 1.647a.105.105 0 0 0 .1.073h1.732c.102 0 .145.13.061.19l-1.401 1.019a.11.11 0 0 0-.039.117l.536 1.648c.03.096-.079.177-.161.117l-1.402-1.02a.105.105 0 0 0-.123 0l-1.402 1.02a.104.104 0 0 1-.16-.117l.535-1.648a.1.1 0 0 0-.039-.117l-1.401-1.02c-.082-.06-.04-.189.06-.189h1.733c.046 0 .087-.03.1-.073l.535-1.647a.105.105 0 0 1 .2 0Z" class="atralys-logo-gray"/><path fill="#9ca3af" d="M30.355 28.737h-3.48c-4.7-.05-7.527-5.252-5.093-9.273l1.55-2.56c1.126-1.858.757-4.306-.952-5.647a4.26 4.26 0 0 0-3.364-.846c-1.242.212-2.31 1-2.962 2.077l-.149.249 2.153-3.642c1.515-2.56 5.17-2.615 6.774-.167l8.542 14.534c1.37 2.333-.311 5.276-3.017 5.276z" class="atralys-logo-gray"/><path fill="#9ca3af" d="M22.836 5.533c-1.677-2.851-5.822-2.794-7.423.1l-4.208 7.618-6.497 11.757a.818.818 0 0 0 .715 1.214h-1.62c-1.708 0-2.921-1.437-2.862-2.974.016-.446.17-.878.392-1.268l5.989-10.503 5.123-8.979c1.89-3.307 6.643-3.337 8.573-.053l1.817 3.088Z" class="atralys-logo-gray" opacity=".6"/><path fill="#9ca3af" d="M4.268 16.834 1.333 21.98c-.222.39-.374.821-.391 1.268-.06 1.537 1.152 2.973 2.861 2.973h6.691A1.471 1.471 0 0 1 9.23 24l5.428-9.174-7.334-3.348-3.055 5.355Z" class="atralys-logo-gray"/><path fill="#9ca3af" d="m33.373 23.46-6.426-10.935a5.88 5.88 0 0 1 .15 5.69l-2.057 3.96c-1.541 2.967.583 6.505 3.906 6.56h1.411c2.706 0 4.388-2.942 3.017-5.275Z" class="atralys-logo-gray" opacity=".5"/><path fill="url(#paint0_linear_7041_585)" d="M30.355 28.737h-3.38q-.05 0-.1-.003c-4.698-.047-7.525-5.25-5.093-9.272l1.55-2.562c1.124-1.856.758-4.305-.952-5.645a4.25 4.25 0 0 0-3.363-.845c-1.244.213-2.313.998-2.965 2.076l-.149.25-.486.807L9.23 24.002a1.471 1.471 0 0 0 2.425 1.655l5.381-6.895a.177.177 0 0 1 .3.186l-3.837 7.971a3.21 3.21 0 0 1-2.895 1.82H3.508c-2.689 0-4.376-2.904-3.041-5.236L12.447 2.5c1.89-3.307 6.643-3.337 8.573-.053l3.813 6.48 8.54 14.535c1.37 2.333-.31 5.277-3.017 5.277h-.001ZM19.44 12.07l-.655 2.016a.12.12 0 0 1-.113.082h-2.12a.119.119 0 0 0-.069.215l1.715 1.246a.12.12 0 0 1 .044.133l-.655 2.016c-.035.11.09.2.183.133l1.715-1.247a.12.12 0 0 1 .14 0l1.715 1.246c.093.068.219-.023.182-.132l-.654-2.016a.12.12 0 0 1 .043-.133l1.715-1.246a.119.119 0 0 0-.07-.215h-2.119a.12.12 0 0 1-.113-.082l-.655-2.016a.119.119 0 0 0-.226 0z" class="atralys-logo-animation"/><path fill="url(#paint1_linear_7041_585)" d="m19.654 12.599.535 1.647a.105.105 0 0 0 .1.073h1.732c.102 0 .145.13.061.19l-1.401 1.019a.11.11 0 0 0-.039.117l.536 1.648c.03.096-.079.177-.161.117l-1.402-1.02a.105.105 0 0 0-.123 0l-1.402 1.02a.104.104 0 0 1-.16-.117l.535-1.648a.1.1 0 0 0-.039-.117l-1.401-1.02c-.082-.06-.04-.189.06-.189h1.733c.046 0 .087-.03.1-.073l.535-1.647a.105.105 0 0 1 .2 0Z" class="atralys-logo-animation"/><path fill="url(#paint2_linear_7041_585)" d="M30.355 28.737h-3.48c-4.7-.05-7.527-5.252-5.093-9.273l1.55-2.56c1.126-1.858.757-4.306-.952-5.647a4.26 4.26 0 0 0-3.364-.846c-1.242.212-2.31 1-2.962 2.077l-.149.249 2.153-3.642c1.515-2.56 5.17-2.615 6.774-.167l8.542 14.534c1.37 2.333-.311 5.276-3.017 5.276z" class="atralys-logo-animation"/><path fill="url(#paint3_linear_7041_585)" d="M22.836 5.533c-1.677-2.851-5.822-2.794-7.423.1l-4.208 7.618-6.497 11.757a.818.818 0 0 0 .715 1.214h-1.62c-1.708 0-2.921-1.437-2.862-2.974.016-.446.17-.878.392-1.268l5.989-10.503 5.123-8.979c1.89-3.307 6.643-3.337 8.573-.053l1.817 3.088Z" class="atralys-logo-animation" opacity=".6"/><path fill="url(#paint4_linear_7041_585)" d="M4.268 16.834 1.333 21.98c-.222.39-.374.821-.391 1.268-.06 1.537 1.152 2.973 2.861 2.973h6.691A1.471 1.471 0 0 1 9.23 24l5.428-9.174-7.334-3.348-3.055 5.355Z" class="atralys-logo-animation"/><path fill="url(#paint5_linear_7041_585)" d="m33.373 23.46-6.426-10.935a5.88 5.88 0 0 1 .15 5.69l-2.057 3.96c-1.541 2.967.583 6.505 3.906 6.56h1.411c2.706 0 4.388-2.942 3.017-5.275Z" class="atralys-logo-animation" opacity=".5"/><defs><linearGradient id="paint0_linear_7041_585" x1="16.929" x2="16.929" y1="1.385" y2="34.526" gradientUnits="userSpaceOnUse"><stop stop-color="#3059e4"/><stop offset=".5" stop-color="#34d1f9"/><stop offset="1" stop-color="#00d490"/></linearGradient><linearGradient id="paint1_linear_7041_585" x1="18.296" x2="20.943" y1="17.53" y2="11.961" gradientUnits="userSpaceOnUse"><stop stop-color="#fff" stop-opacity="0"/><stop offset=".19" stop-color="#fff" stop-opacity=".01"/><stop offset=".32" stop-color="#fff" stop-opacity=".05"/><stop offset=".44" stop-color="#fff" stop-opacity=".11"/><stop offset=".55" stop-color="#fff" stop-opacity=".19"/><stop offset=".65" stop-color="#fff" stop-opacity=".31"/><stop offset=".74" stop-color="#fff" stop-opacity=".44"/><stop offset=".83" stop-color="#fff" stop-opacity=".61"/><stop offset=".92" stop-color="#fff" stop-opacity=".79"/><stop offset="1" stop-color="#fff"/></linearGradient><linearGradient id="paint2_linear_7041_585" x1="31.271" x2="15.821" y1="31.15" y2="3.917" gradientUnits="userSpaceOnUse"><stop stop-color="#33aef3" stop-opacity="0"/><stop offset=".35" stop-color="#2fa2e5" stop-opacity=".07"/><stop offset=".62" stop-color="#247cb8" stop-opacity=".29"/><stop offset=".85" stop-color="#113d6d" stop-opacity=".67"/><stop offset="1" stop-color="#00052b"/></linearGradient><linearGradient id="paint3_linear_7041_585" x1="-5.336" x2="24.584" y1="38.688" y2="-6.476" gradientUnits="userSpaceOnUse"><stop stop-color="#fff" stop-opacity="0"/><stop offset=".08" stop-color="#fff" stop-opacity=".04"/><stop offset=".22" stop-color="#fff" stop-opacity=".13"/><stop offset=".4" stop-color="#fff" stop-opacity=".29"/><stop offset=".6" stop-color="#fff" stop-opacity=".5"/><stop offset=".83" stop-color="#fff" stop-opacity=".78"/><stop offset="1" stop-color="#fff"/></linearGradient><linearGradient id="paint4_linear_7041_585" x1="11.467" x2="4.17" y1="11.419" y2="28.051" gradientUnits="userSpaceOnUse"><stop stop-color="#33aef3" stop-opacity="0"/><stop offset=".35" stop-color="#2fa2e5" stop-opacity=".07"/><stop offset=".62" stop-color="#247cb8" stop-opacity=".29"/><stop offset=".85" stop-color="#113d6d" stop-opacity=".67"/><stop offset="1" stop-color="#00052b"/></linearGradient><linearGradient id="paint5_linear_7041_585" x1="34.113" x2="18.494" y1="22.937" y2="17.413" gradientUnits="userSpaceOnUse"><stop stop-color="#fff" stop-opacity="0"/><stop offset=".08" stop-color="#fff" stop-opacity=".04"/><stop offset=".22" stop-color="#fff" stop-opacity=".13"/><stop offset=".4" stop-color="#fff" stop-opacity=".29"/><stop offset=".6" stop-color="#fff" stop-opacity=".5"/><stop offset=".83" stop-color="#fff" stop-opacity=".78"/><stop offset="1" stop-color="#fff"/></linearGradient></defs><style>.atralys-logo-gray{opacity:1;transition:opacity .5s}.atralys-logo-animation{opacity:0;transition:opacity .5s}svg:hover .atralys-logo-gray{opacity:0}svg:hover .atralys-logo-animation{opacity:1}</style></svg>