<svg xmlns="http://www.w3.org/2000/svg" width="64" height="64" fill="none"><path fill="#292D32" d="M45.336 10.666H18.669c-8 0-13.333 4-13.333 13.333v9.494c0 .986 1.013 1.6 1.893 1.2 2.614-1.2 5.627-1.654 8.8-1.094 7.014 1.254 12.16 7.76 11.974 14.88a13.5 13.5 0 0 1-.48 3.28c-.214.827.453 1.6 1.306 1.6h16.507c8 0 13.333-4 13.333-13.333V23.999c0-9.333-5.333-13.333-13.333-13.333m-13.333 28a6.67 6.67 0 0 1-6.667-6.667 6.67 6.67 0 0 1 6.667-6.666 6.67 6.67 0 0 1 6.666 6.666 6.67 6.67 0 0 1-6.666 6.667m19.333-1.333c0 1.093-.907 2-2 2s-2-.907-2-2V26.666c0-1.093.907-2 2-2s2 .907 2 2z"/><path fill="#292D32" d="M13.33 37.334c-5.893 0-10.666 4.773-10.666 10.667 0 2 .56 3.893 1.547 5.493a10.59 10.59 0 0 0 9.12 5.173c3.893 0 7.28-2.08 9.12-5.173a10.46 10.46 0 0 0 1.546-5.493c0-5.894-4.773-10.667-10.666-10.667m5.254 9.787-5.68 5.253c-.373.347-.88.533-1.36.533a1.98 1.98 0 0 1-1.413-.586l-2.64-2.64a2.01 2.01 0 0 1 0-2.827 2.01 2.01 0 0 1 2.826 0l1.28 1.28 4.267-3.947c.8-.746 2.08-.693 2.827.107s.693 2.08-.107 2.827"/></svg>