<svg width="64" height="64" viewBox="0 0 64 64" fill="none" xmlns="http://www.w3.org/2000/svg">
<path d="M6.17115 46.4551C6.92126 47.205 7.93849 47.6263 8.99915 47.6263C10.0598 47.6263 11.077 47.205 11.8271 46.4551L31.6271 26.6551L51.4272 46.4551C52.1816 47.1838 53.192 47.587 54.2408 47.5778C55.2895 47.5687 56.2928 47.1481 57.0344 46.4064C57.7761 45.6648 58.1967 44.6615 58.2058 43.6127C58.215 42.564 57.8118 41.5536 57.0832 40.7991L34.4551 18.1711C33.705 17.4213 32.6878 17 31.6271 17C30.5665 17 29.5493 17.4213 28.7991 18.1711L6.17115 40.7991C5.42126 41.5493 5 42.5665 5 43.6271C5 44.6878 5.42126 45.705 6.17115 46.4551Z" fill="url(#paint0_linear_5279_6387)"/>
<defs>
<linearGradient id="paint0_linear_5279_6387" x1="5" y1="32.4389" x2="58.206" y2="32.4389" gradientUnits="userSpaceOnUse">
<stop stop-color="#3059E4"/>
<stop offset="0.5" stop-color="#34D1F9"/>
<stop offset="1" stop-color="#00D490"/>
</linearGradient>
</defs>
</svg>
