<svg width="64" height="64" viewBox="0 0 64 64" fill="none" xmlns="http://www.w3.org/2000/svg">
<g clip-path="url(#clip0_5225_9504)">
<path d="M24.4395 51.6978C21.9096 49.3852 21.1711 44.5262 22.2251 41.0059C24.0527 43.2253 26.585 43.9284 29.2079 44.3253C33.2572 44.9377 37.2339 44.7087 40.9955 42.8579C41.4258 42.646 41.8235 42.3643 42.2937 42.0789C42.6466 43.1029 42.7385 44.1366 42.6152 45.1888C42.3154 47.7512 41.0402 49.7307 39.012 51.2311C38.2009 51.8313 37.3427 52.3678 36.505 52.9337C33.9317 54.6731 33.2354 56.7124 34.2024 59.6789C34.2254 59.7516 34.2459 59.8238 34.2979 60.0002C32.984 59.412 32.0243 58.5557 31.293 57.43C30.5206 56.2421 30.1532 54.9278 30.1338 53.5057C30.1241 52.8137 30.1241 52.1155 30.0311 51.4332C29.8038 49.7699 29.023 49.0251 27.552 48.9822C26.0423 48.9382 24.848 49.8715 24.5314 51.3414C24.5072 51.454 24.4721 51.5655 24.437 51.6966L24.4395 51.6978Z" fill="white"/>
<path d="M24.4395 51.6978C21.9096 49.3852 21.1711 44.5262 22.2251 41.0059C24.0527 43.2253 26.585 43.9284 29.2079 44.3253C33.2572 44.9377 37.2339 44.7087 40.9955 42.8579C41.4258 42.646 41.8235 42.3643 42.2937 42.0789C42.6466 43.1029 42.7385 44.1366 42.6152 45.1888C42.3154 47.7512 41.0402 49.7307 39.012 51.2311C38.2009 51.8313 37.3427 52.3678 36.505 52.9337C33.9317 54.6731 33.2354 56.7124 34.2024 59.6789C34.2254 59.7516 34.2459 59.8238 34.2979 60.0002C32.984 59.412 32.0243 58.5557 31.293 57.43C30.5206 56.2421 30.1532 54.9278 30.1338 53.5057C30.1241 52.8137 30.1241 52.1155 30.0311 51.4332C29.8038 49.7699 29.023 49.0251 27.552 48.9822C26.0423 48.9382 24.848 49.8715 24.5314 51.3414C24.5072 51.454 24.4721 51.5655 24.437 51.6966L24.4395 51.6978Z" fill="url(#paint0_linear_5225_9504)"/>
<path d="M10 40.4192C10 40.4192 17.4914 36.7698 25.0037 36.7698L30.6677 19.2406C30.8798 18.3929 31.4989 17.8168 32.1979 17.8168C32.8969 17.8168 33.5161 18.3929 33.7281 19.2406L39.3922 36.7698C48.2894 36.7698 54.3959 40.4192 54.3959 40.4192C54.3959 40.4192 41.6711 5.75449 41.6463 5.68494C41.2811 4.66007 40.6645 4 39.8333 4H24.5639C23.7327 4 23.141 4.66007 22.7509 5.68494C22.7234 5.75318 10 40.4192 10 40.4192Z" fill="white"/>
</g>
<defs>
<linearGradient id="paint0_linear_5225_9504" x1="21.7603" y1="60.0002" x2="46.1883" y2="48.4584" gradientUnits="userSpaceOnUse">
<stop stop-color="#D83333"/>
<stop offset="1" stop-color="#F041FF"/>
</linearGradient>
<clipPath id="clip0_5225_9504">
<rect width="44.486" height="56" fill="white" transform="translate(10 4)"/>
</clipPath>
</defs>
</svg>
