<svg width="64" height="65" viewBox="0 0 64 65" fill="none" xmlns="http://www.w3.org/2000/svg">
<path d="M52.3579 40.0606C54.6107 39.7862 59.5788 39.1957 60.4633 40.3349C61.3474 41.4532 59.4739 46.1585 58.6316 48.247C58.3791 48.8802 58.9265 49.1332 59.4948 48.6481C63.2 45.5253 64.1685 39.0054 63.4107 38.0561C62.6526 37.1281 56.1476 36.326 52.1894 39.1113C51.5789 39.5541 51.6842 40.1451 52.3579 40.0606Z" fill="#FF9900"/>
<path d="M31.9368 51.4753C40.5896 51.4753 50.6525 48.7531 57.579 43.6263C58.7156 42.7824 57.7262 41.4955 56.5682 42.0229C48.7999 45.3142 40.3579 46.918 32.6736 46.918C21.2842 46.918 10.2736 43.7744 1.34774 38.584C0.56822 38.1198 -0.0210065 38.9215 0.631367 39.5124C8.88438 46.9812 19.8105 51.4753 31.9368 51.4753Z" fill="#FF9900"/>
<path d="M18.1896 27.3169C18.1896 28.0977 18.2736 28.7305 18.4208 29.1947C18.608 29.7168 18.8333 30.2245 19.095 30.7136C19.1999 30.8826 19.2422 31.0515 19.2422 31.1992C19.2422 31.4104 19.1159 31.6216 18.842 31.8323L17.5159 32.7185C17.3264 32.8448 17.1366 32.9084 16.9685 32.9084C16.7577 32.9084 16.5474 32.8026 16.337 32.6127C16.0532 32.3072 15.7993 31.9751 15.5788 31.6211C15.3435 31.2157 15.1257 30.8003 14.926 30.3761C13.2842 32.3175 11.2208 33.2881 8.73679 33.2881C6.96826 33.2881 5.55813 32.7817 4.52645 31.7692C3.49477 30.7563 2.96826 29.4055 2.96826 27.718C2.96826 25.9243 3.59973 24.4685 4.88399 23.3715C6.16826 22.2741 7.87365 21.7259 10.0424 21.7259C10.7579 21.7259 11.4948 21.789 12.2739 21.8944C13.0525 22.0002 13.8525 22.1688 14.6948 22.3586V20.8184C14.6948 19.2149 14.3577 18.0967 13.7049 17.4426C13.0316 16.7885 11.8946 16.4723 10.2736 16.4723C9.5368 16.4723 8.77903 16.5564 7.99994 16.7463C7.22595 16.9311 6.46612 17.171 5.72623 17.4639C5.48684 17.5713 5.2407 17.6629 4.98938 17.7383C4.84218 17.7801 4.7368 17.8014 4.65232 17.8014C4.35792 17.8014 4.21029 17.5906 4.21029 17.1473V16.1135C4.21029 15.776 4.25295 15.5226 4.35791 15.3754C4.46287 15.2273 4.65232 15.0797 4.94714 14.9316C5.684 14.5519 6.56848 14.2357 7.59973 13.9823C8.63141 13.7084 9.72666 13.5812 10.8842 13.5812C13.3896 13.5812 15.2208 14.1513 16.3997 15.2905C17.5577 16.4297 18.1474 18.1602 18.1474 20.4809V27.3169H18.1896ZM9.64218 30.5242C10.3368 30.5242 11.0527 30.3975 11.8105 30.1444C12.5683 29.891 13.242 29.4268 13.8103 28.794C14.1474 28.393 14.3999 27.9501 14.5262 27.4436C14.6525 26.9372 14.7366 26.3253 14.7366 25.6081V24.7219C14.0983 24.5663 13.4517 24.4467 12.7999 24.3635C12.1436 24.2798 11.4827 24.2374 10.8211 24.2364C9.4105 24.2364 8.37882 24.5107 7.68421 25.0803C6.9896 25.6504 6.65253 26.4521 6.65253 27.5068C6.65253 28.4984 6.90511 29.2369 7.43162 29.7434C7.93679 30.2707 8.67365 30.5242 9.64175 30.5242H9.64218ZM26.5471 32.8026C26.1683 32.8026 25.9157 32.7394 25.7471 32.5918C25.579 32.4651 25.4314 32.1694 25.3051 31.7688L20.3579 15.4594C20.2316 15.037 20.1685 14.7631 20.1685 14.6155C20.1685 14.278 20.3366 14.0881 20.6736 14.0881H22.7366C23.1368 14.0881 23.4107 14.1513 23.5579 14.2989C23.7264 14.4256 23.8523 14.7213 23.979 15.1219L27.5161 29.0893L30.8002 15.1219C30.9051 14.6995 31.0314 14.4256 31.1999 14.2989C31.3685 14.1722 31.6629 14.0881 32.0422 14.0881H33.7262C34.1264 14.0881 34.3999 14.1513 34.5685 14.2989C34.737 14.4256 34.8842 14.7213 34.9683 15.1219L38.2946 29.2583L41.937 15.1219C42.0629 14.6995 42.2101 14.4256 42.3577 14.2989C42.5262 14.1722 42.7997 14.0881 43.179 14.0881H45.1366C45.4736 14.0881 45.6631 14.2567 45.6631 14.6155C45.6631 14.7209 45.6422 14.8263 45.6208 14.953C45.5879 15.1329 45.5387 15.3094 45.4736 15.4803L40.4002 31.7905C40.2734 32.2125 40.1262 32.4864 39.9577 32.6131C39.7896 32.7399 39.5157 32.8243 39.1577 32.8243H37.3474C36.9471 32.8243 36.6732 32.7608 36.5051 32.6131C36.337 32.4655 36.1894 32.1912 36.1053 31.7692L32.8422 18.1607L29.5999 31.7483C29.4946 32.1703 29.3683 32.4446 29.1997 32.5922C29.0316 32.7399 28.7368 32.803 28.3579 32.803L26.5471 32.8026ZM53.5999 33.3726C52.5051 33.3726 51.4103 33.2459 50.3577 32.9929C49.3051 32.7394 48.4842 32.4651 47.9368 32.1485C47.5997 31.9586 47.3685 31.7474 47.284 31.558C47.2021 31.3717 47.1591 31.1706 47.1577 30.9671V29.891C47.1577 29.4481 47.3262 29.2369 47.642 29.2369C47.7683 29.2369 47.8946 29.2583 48.0208 29.3001C48.1471 29.3427 48.3366 29.4268 48.5474 29.5113C49.2909 29.8389 50.0673 30.0864 50.8633 30.2494C51.7051 30.4184 52.5264 30.5028 53.3683 30.5028C54.6948 30.5028 55.7264 30.2707 56.442 29.8065C57.1579 29.3423 57.5368 28.6673 57.5368 27.802C57.5368 27.2115 57.3474 26.7264 56.9685 26.3253C56.5896 25.9243 55.8736 25.5659 54.842 25.2284L51.7896 24.2786C50.2527 23.7935 49.1157 23.0763 48.4211 22.1265C47.7264 21.1981 47.3685 20.1643 47.3685 19.0673C47.3685 18.1811 47.5579 17.4003 47.9368 16.7253C48.3157 16.0504 48.8208 15.4594 49.4527 14.9952C50.0842 14.5101 50.7997 14.1513 51.642 13.8983C52.4842 13.6448 53.3683 13.5394 54.2946 13.5394C54.7579 13.5394 55.2422 13.5608 55.7051 13.6239C56.1894 13.6871 56.6314 13.7715 57.0734 13.856C57.4946 13.9614 57.8948 14.0668 58.2736 14.1931C58.6525 14.3202 58.9474 14.4465 59.1577 14.5732C59.4525 14.7422 59.6633 14.9107 59.7896 15.1006C59.9159 15.2696 59.979 15.5017 59.979 15.7969V16.7889C59.979 17.2322 59.8105 17.4643 59.4948 17.4643C59.3262 17.4643 59.0527 17.3799 58.6948 17.2109C57.4945 16.6626 56.1471 16.3883 54.6525 16.3883C53.4527 16.3883 52.5051 16.5781 51.8527 16.9788C51.1999 17.3799 50.8633 17.9917 50.8633 18.857C50.8633 19.4475 51.0736 19.9535 51.4948 20.3546C51.9159 20.7556 52.6946 21.1567 53.8103 21.5151L56.7999 22.4649C58.3159 22.95 59.4103 23.6254 60.0631 24.4903C60.7159 25.3551 61.0316 26.3467 61.0316 27.4441C61.0316 28.3512 60.8422 29.1742 60.4842 29.8914C60.1053 30.6087 59.6002 31.2418 58.9474 31.7483C58.2946 32.2756 57.5159 32.6554 56.6105 32.9297C55.6633 33.225 54.6734 33.3726 53.5999 33.3726Z" fill="#252F3E"/>
</svg>
