<svg width="64" height="64" viewBox="0 0 64 64" fill="none" xmlns="http://www.w3.org/2000/svg">
<path fill-rule="evenodd" clip-rule="evenodd" d="M16.7226 5.63086C14.5634 5.91526 13.4201 6.43547 12.6057 7.23334C11.7913 8.03123 11.2603 9.15142 10.97 11.2668C10.6712 13.4444 10.6665 16.3305 10.6665 20.4686V43.318C11.703 42.6084 12.8711 42.0684 14.1305 41.738C15.5389 41.3682 17.1813 41.3687 19.5882 41.3695H53.3332V20.4686C53.3332 16.3305 53.3284 13.4444 53.0297 11.2668C52.7393 9.15142 52.2084 8.03123 51.394 7.23334C50.5796 6.43547 49.4364 5.91526 47.2772 5.63086C45.0545 5.33808 42.1086 5.3335 37.8849 5.3335H26.1148C21.891 5.3335 18.9452 5.33808 16.7226 5.63086ZM18.0228 17.5857C18.0228 16.3916 19.0109 15.4236 20.2297 15.4236H43.77C44.9889 15.4236 45.9769 16.3916 45.9769 17.5857C45.9769 18.7799 44.9889 19.7479 43.77 19.7479H20.2297C19.0109 19.7479 18.0228 18.7799 18.0228 17.5857ZM20.2297 25.5137C19.0109 25.5137 18.0228 26.4817 18.0228 27.6759C18.0228 28.87 19.0109 29.838 20.2297 29.838H34.9422C36.1612 29.838 37.1492 28.87 37.1492 27.6759C37.1492 26.4817 36.1612 25.5137 34.9422 25.5137H20.2297Z" fill="url(#paint0_linear_5272_9548)"/>
<path d="M23.1726 45.6934H19.9293C17.0508 45.6934 16.0444 45.712 15.2732 45.9144C13.1566 46.4702 11.4692 48.0115 10.7456 50.0152C10.7904 51.035 10.8605 51.932 10.9704 52.7331C11.2607 54.8486 11.7917 55.9688 12.606 56.7667C13.4204 57.5646 14.5638 58.0846 16.723 58.3691C18.9456 58.6619 21.8914 58.6664 26.1152 58.6664H37.8853C42.109 58.6664 45.0549 58.6619 47.2775 58.3691C49.4367 58.0846 50.5799 57.5646 51.3943 56.7667C52.2087 55.9688 52.7397 54.8486 53.0301 52.7331C53.2738 50.9566 53.3218 48.7083 53.3311 45.6934H34.9426V53.711C34.9426 54.5056 34.9426 54.9027 34.6637 55.0632C34.3845 55.2238 34.0029 55.0462 33.2394 54.691L29.5839 52.9899C29.3258 52.8696 29.1965 52.8096 29.0578 52.8096C28.9189 52.8096 28.7895 52.8696 28.5314 52.9899L24.876 54.691C24.1126 55.0462 23.7309 55.2238 23.4517 55.0632C23.1726 54.9027 23.1726 54.5056 23.1726 53.711V45.6934Z" fill="url(#paint1_linear_5272_9548)"/>
<defs>
<linearGradient id="paint0_linear_5272_9548" x1="10.6665" y1="24.4817" x2="53.3332" y2="24.4817" gradientUnits="userSpaceOnUse">
<stop stop-color="#3059E4"/>
<stop offset="0.5" stop-color="#34D1F9"/>
<stop offset="1" stop-color="#00D490"/>
</linearGradient>
<linearGradient id="paint1_linear_5272_9548" x1="10.7456" y1="52.2332" x2="53.3311" y2="52.2332" gradientUnits="userSpaceOnUse">
<stop stop-color="#3059E4"/>
<stop offset="0.5" stop-color="#34D1F9"/>
<stop offset="1" stop-color="#00D490"/>
</linearGradient>
</defs>
</svg>
