<svg width="64" height="64" viewBox="0 0 64 64" fill="none" xmlns="http://www.w3.org/2000/svg">
<g clip-path="url(#clip0_5225_9567)">
<path d="M53.7629 22.5179C53.6509 22.3989 53.5319 22.2799 53.4129 22.1679C53.2939 22.0559 53.1819 21.9299 53.0629 21.8179C52.9439 21.7059 52.8319 21.5799 52.7129 21.4679C52.5939 21.3559 52.4819 21.2299 52.3629 21.1179C52.2439 21.0059 52.1319 20.8799 52.0129 20.7679C51.8939 20.6559 51.7819 20.5299 51.6629 20.4179C51.5439 20.3059 51.4319 20.1799 51.3129 20.0679C54.7851 23.4802 56.7742 28.1223 56.8499 32.9899C56.8499 44.5889 45.0759 54.0249 30.5999 54.0249C22.4939 54.0249 15.2419 51.0639 10.4189 46.4229L10.7689 46.7729L11.1189 47.1229L11.4689 47.4729L11.8189 47.8229L12.1689 48.1729L12.5189 48.5229L12.8689 48.8729C17.6849 53.7099 25.0979 56.8249 33.3999 56.8249C47.8759 56.8249 59.6499 47.3889 59.6499 35.8249C59.6499 30.8829 57.5219 26.1999 53.7629 22.5179Z" fill="black"/>
<path d="M55.1001 32.9901C55.1001 43.6371 44.1311 52.2681 30.6001 52.2681C17.0691 52.2681 6.1001 43.6371 6.1001 32.9901C6.1001 26.3891 10.3001 20.5581 16.7541 17.1001C23.2081 13.6421 27.2261 10.1001 30.6001 10.1001C33.9741 10.1001 36.8581 12.9911 44.4461 17.1001C50.9001 20.5581 55.1001 26.3891 55.1001 32.9901Z" fill="#FBF0DF"/>
<path d="M55.1001 32.9903C55.0967 31.6226 54.9083 30.2616 54.5401 28.9443C52.6291 52.2543 24.1951 53.3743 13.0161 46.4023C18.0414 50.2974 24.2428 52.3662 30.6001 52.2683C44.1101 52.2683 55.1001 43.6233 55.1001 32.9903Z" fill="#F6DECE"/>
<path d="M21.1711 15.8191C24.3001 13.9431 28.4581 10.4221 32.5461 10.4151C31.9172 10.2118 31.261 10.1056 30.6001 10.1001C28.9061 10.1001 27.1001 10.9751 24.8251 12.2911C24.0341 12.7531 23.2151 13.2641 22.3471 13.7961C20.7161 14.8041 18.8471 15.9451 16.7471 17.0861C10.0831 20.6911 6.1001 26.6341 6.1001 32.9901C6.1001 33.2701 6.1001 33.5501 6.1001 33.8231C10.3421 18.8361 18.0491 17.6951 21.1711 15.8191Z" fill="#FFFEFC"/>
<path fill-rule="evenodd" clip-rule="evenodd" d="M28.5839 11.8709C28.5937 13.5238 28.2467 15.1593 27.5666 16.6658C26.8864 18.1722 25.8892 19.5142 24.6429 20.5999C24.4469 20.7749 24.6009 21.1109 24.8529 21.0129C27.2119 20.0959 30.3969 17.3519 29.0529 11.8149C28.9969 11.4999 28.5839 11.5839 28.5839 11.8709ZM30.1729 11.8709C31.0294 13.2684 31.5736 14.8346 31.7681 16.4621C31.9627 18.0896 31.8029 19.7399 31.2999 21.2999C31.2159 21.5449 31.5169 21.7549 31.6849 21.5519C33.2179 19.5919 34.5549 15.6999 30.5509 11.4999C30.3479 11.3179 30.0329 11.5979 30.1729 11.8429V11.8709ZM32.1049 11.7519C33.4462 12.7015 34.5683 13.9277 35.3955 15.3478C36.2226 16.7678 36.7356 18.3488 36.8999 19.9839C36.8928 20.0429 36.9087 20.1022 36.9442 20.1498C36.9798 20.1973 37.0322 20.2294 37.0907 20.2393C37.1493 20.2492 37.2093 20.2362 37.2585 20.203C37.3077 20.1698 37.3422 20.1189 37.3549 20.0609C37.9989 17.6179 37.6349 13.4529 32.3359 11.2899C32.0559 11.1779 31.8739 11.5559 32.1049 11.7239V11.7519ZM19.1829 19.0319C20.7784 18.5553 22.2556 17.7479 23.5184 16.6625C24.7811 15.577 25.8011 14.2378 26.5119 12.7319C26.6379 12.4799 27.0369 12.5779 26.9739 12.8579C25.7629 18.4579 21.7099 19.6269 19.1899 19.4729C18.9239 19.4799 18.9309 19.1089 19.1829 19.0319Z" fill="#CCBEA7"/>
<path d="M30.6001 54.0251C16.1241 54.0251 4.3501 44.5891 4.3501 32.9901C4.3501 25.9901 8.6761 19.4591 15.9211 15.5461C18.0211 14.4261 19.8201 13.2991 21.4231 12.3121C22.3051 11.7661 23.1381 11.2551 23.9431 10.7791C26.4001 9.3231 28.5001 8.3501 30.6001 8.3501C32.7001 8.3501 34.5341 9.1901 36.8301 10.5481C37.5301 10.9471 38.2301 11.3811 38.9791 11.8571C40.7221 12.9351 42.6891 14.1531 45.2791 15.5461C52.5241 19.4591 56.8501 25.9831 56.8501 32.9901C56.8501 44.5891 45.0761 54.0251 30.6001 54.0251ZM30.6001 10.1001C28.9061 10.1001 27.1001 10.9751 24.8251 12.2911C24.0341 12.7531 23.2151 13.2641 22.3471 13.7961C20.7161 14.8041 18.8471 15.9451 16.7471 17.0861C10.0831 20.6911 6.1001 26.6341 6.1001 32.9901C6.1001 43.6231 17.0901 52.2751 30.6001 52.2751C44.1101 52.2751 55.1001 43.6231 55.1001 32.9901C55.1001 26.6341 51.1171 20.6911 44.4461 17.1001C41.8001 15.7001 39.7351 14.3841 38.0621 13.3481C37.2991 12.8791 36.5991 12.4451 35.9621 12.0601C33.8411 10.8001 32.2941 10.1001 30.6001 10.1001Z" fill="black"/>
<path d="M35.5352 38.0999C35.2207 39.3879 34.5049 40.5425 33.4912 41.3969C32.7301 42.1347 31.7449 42.5978 30.6912 42.7129C29.6059 42.616 28.5861 42.1518 27.8002 41.3969C26.7968 40.5385 26.0911 39.3843 25.7842 38.0999C25.774 38.0237 25.7815 37.9461 25.8059 37.8732C25.8303 37.8002 25.8711 37.7339 25.9252 37.6791C25.9792 37.6244 26.0451 37.5828 26.1177 37.5574C26.1904 37.5321 26.2678 37.5237 26.3442 37.5329H34.9822C35.058 37.5249 35.1347 37.5341 35.2064 37.56C35.2782 37.5858 35.3431 37.6276 35.3963 37.6822C35.4496 37.7368 35.4897 37.8027 35.5138 37.8751C35.5378 37.9475 35.5452 38.0243 35.5352 38.0999Z" fill="#B71422"/>
<path d="M27.8001 41.4534C28.5843 42.2087 29.6004 42.6773 30.6841 42.7834C31.7652 42.6758 32.7786 42.2073 33.5611 41.4534C33.8113 41.2201 34.0452 40.9699 34.2611 40.7044C33.8298 40.2152 33.3031 39.8194 32.7132 39.5413C32.1234 39.2632 31.4828 39.1088 30.8311 39.0874C30.1336 39.1039 29.4507 39.2897 28.841 39.6287C28.2313 39.9677 27.7131 40.4497 27.3311 41.0334C27.4921 41.1804 27.6321 41.3204 27.8001 41.4534Z" fill="#FF6164"/>
<path d="M27.9122 40.9003C28.2593 40.4517 28.7035 40.0876 29.2115 39.8355C29.7195 39.5833 30.2781 39.4495 30.8452 39.4443C31.8935 39.4752 32.8923 39.8972 33.6452 40.6273C33.8062 40.4523 33.9602 40.2703 34.1072 40.0883C33.2167 39.2402 32.0398 38.758 30.8102 38.7373C30.1531 38.743 29.5054 38.894 28.9136 39.1797C28.3217 39.4653 27.8005 39.8784 27.3872 40.3893C27.5527 40.5691 27.728 40.7397 27.9122 40.9003Z" fill="black"/>
<path d="M30.6632 43.1331C29.4967 43.0309 28.399 42.5376 27.5482 41.7331C26.4646 40.8166 25.7019 39.5782 25.3712 38.1981C25.3475 38.0752 25.3515 37.9486 25.383 37.8275C25.4145 37.7064 25.4726 37.5939 25.5532 37.4981C25.6491 37.3823 25.7703 37.2899 25.9073 37.228C26.0444 37.1661 26.1939 37.1364 26.3442 37.1411H34.9822C35.1323 37.1379 35.2812 37.1684 35.4181 37.2301C35.5549 37.2919 35.6762 37.3834 35.7732 37.4981C35.853 37.5942 35.9101 37.707 35.9404 37.8282C35.9707 37.9493 35.9734 38.0758 35.9482 38.1981C35.6174 39.5782 34.8547 40.8166 33.7712 41.7331C32.9222 42.5361 31.8272 43.0294 30.6632 43.1331ZM26.3442 37.9531C26.2322 37.9531 26.2042 38.0021 26.1972 38.0161C26.4931 39.2129 27.1624 40.2843 28.1082 41.0751C28.7998 41.7564 29.6989 42.1875 30.6632 42.3001C31.625 42.1888 32.5231 41.7631 33.2182 41.0891C34.161 40.297 34.8277 39.2258 35.1222 38.0301C35.1069 38.0077 35.0858 37.99 35.0611 37.9789C35.0364 37.9678 35.0091 37.9637 34.9822 37.9671L26.3442 37.9531Z" fill="black"/>
<path d="M41.2542 38.5338C43.5158 38.5338 45.3492 37.4557 45.3492 36.1258C45.3492 34.7959 43.5158 33.7178 41.2542 33.7178C38.9926 33.7178 37.1592 34.7959 37.1592 36.1258C37.1592 37.4557 38.9926 38.5338 41.2542 38.5338Z" fill="#FEBBD0"/>
<path d="M20.0652 38.5338C22.3268 38.5338 24.1602 37.4557 24.1602 36.1258C24.1602 34.7959 22.3268 33.7178 20.0652 33.7178C17.8036 33.7178 15.9702 34.7959 15.9702 36.1258C15.9702 37.4557 17.8036 38.5338 20.0652 38.5338Z" fill="#FEBBD0"/>
<path fill-rule="evenodd" clip-rule="evenodd" d="M21.9901 35.1598C22.7533 35.1612 23.4997 34.9361 24.1349 34.5132C24.7701 34.0902 25.2655 33.4883 25.5585 32.7837C25.8515 32.079 25.9289 31.3033 25.7809 30.5546C25.6328 29.806 25.2661 29.1181 24.7269 28.578C24.1878 28.0379 23.5006 27.6698 22.7522 27.5204C22.0038 27.371 21.2279 27.447 20.5227 27.7387C19.8176 28.0304 19.2148 28.5248 18.7906 29.1592C18.3665 29.7937 18.1401 30.5397 18.1401 31.3028C18.1401 32.3245 18.5455 33.3045 19.2673 34.0276C19.9892 34.7508 20.9684 35.1579 21.9901 35.1598ZM39.3291 35.1598C40.0931 35.1653 40.8416 34.9439 41.4795 34.5234C42.1175 34.103 42.6162 33.5026 42.9124 32.7983C43.2087 32.094 43.2891 31.3177 43.1434 30.5676C42.9978 29.8176 42.6326 29.1278 42.0944 28.5855C41.5561 28.0433 40.8689 27.6732 40.12 27.5221C39.371 27.371 38.5941 27.4457 37.8877 27.7368C37.1813 28.0279 36.5772 28.5222 36.1522 29.1571C35.7271 29.792 35.5002 30.5388 35.5001 31.3028C35.4983 32.3215 35.9002 33.2994 36.6179 34.0223C37.3355 34.7452 38.3105 35.1542 39.3291 35.1598Z" fill="black"/>
<path fill-rule="evenodd" clip-rule="evenodd" d="M20.8004 31.5479C21.0873 31.5493 21.3681 31.4655 21.6073 31.3071C21.8465 31.1487 22.0333 30.9229 22.1441 30.6583C22.2548 30.3936 22.2845 30.1021 22.2294 29.8205C22.1743 29.539 22.0368 29.2801 21.8345 29.0768C21.6321 28.8734 21.3739 28.7347 21.0927 28.6783C20.8114 28.6218 20.5197 28.6501 20.2545 28.7595C19.9893 28.869 19.7626 29.0547 19.6031 29.2931C19.4436 29.5316 19.3584 29.812 19.3584 30.0989C19.3584 30.482 19.5101 30.8495 19.7803 31.121C20.0506 31.3926 20.4173 31.546 20.8004 31.5479ZM38.1394 31.5479C38.4263 31.5493 38.7071 31.4655 38.9463 31.3071C39.1855 31.1487 39.3723 30.9229 39.4831 30.6583C39.5938 30.3936 39.6235 30.1021 39.5684 29.8205C39.5133 29.539 39.3758 29.2801 39.1735 29.0768C38.9711 28.8734 38.7129 28.7347 38.4317 28.6783C38.1504 28.6218 37.8587 28.6501 37.5935 28.7595C37.3283 28.869 37.1016 29.0547 36.9421 29.2931C36.7826 29.5316 36.6974 29.812 36.6974 30.0989C36.6974 30.4796 36.8471 30.845 37.1143 31.1161C37.3816 31.3873 37.7447 31.5424 38.1254 31.5479H38.1394Z" fill="white"/>
</g>
<defs>
<clipPath id="clip0_5225_9567">
<rect width="56" height="49" fill="white" transform="translate(4 8)"/>
</clipPath>
</defs>
</svg>
