<svg width="64" height="64" viewBox="0 0 64 64" fill="none" xmlns="http://www.w3.org/2000/svg">
<path fill-rule="evenodd" clip-rule="evenodd" d="M57.4559 13.6295C58.2058 14.3796 58.6271 15.3969 58.6271 16.4575C58.6271 17.5182 58.2058 18.5354 57.4559 19.2855L27.4746 49.2668C27.0784 49.6631 26.608 49.9775 26.0902 50.192C25.5725 50.4065 25.0176 50.5169 24.4572 50.5169C23.8969 50.5169 23.342 50.4065 22.8242 50.192C22.3065 49.9775 21.8361 49.6631 21.4399 49.2668L6.54391 34.3735C6.16187 34.0045 5.85714 33.5631 5.6475 33.0751C5.43787 32.5871 5.32752 32.0622 5.3229 31.5311C5.31829 31 5.4195 30.4733 5.62062 29.9817C5.82174 29.4901 6.11876 29.0435 6.49433 28.6679C6.8699 28.2924 7.31651 27.9953 7.80809 27.7942C8.29968 27.5931 8.82639 27.4919 9.35751 27.4965C9.88863 27.5011 10.4135 27.6115 10.9015 27.8211C11.3895 28.0307 11.8309 28.3355 12.1999 28.7175L24.4559 40.9735L51.7972 13.6295C52.1687 13.2578 52.6098 12.9629 53.0952 12.7618C53.5807 12.5606 54.1011 12.457 54.6266 12.457C55.1521 12.457 55.6724 12.5606 56.1579 12.7618C56.6434 12.9629 57.0844 13.2578 57.4559 13.6295Z" fill="#22C55E"/>
</svg>
