<svg width="64" height="64" viewBox="0 0 64 64" fill="none" xmlns="http://www.w3.org/2000/svg">
<path d="M5.07764 13.7462L20.75 6.27588C20.75 6.27588 26.011 7.44498 36.2613 9.96269C48.1963 12.8946 50.6035 13.9625 50.6035 13.9625L47.0088 14.9521L44.086 13.875L20.7961 8.30109L8.29497 14.1006L5.55172 14.5056L5.07764 13.7462Z" fill="#858585"/>
<path d="M6.31543 22.0265V30.6199C6.31543 30.9007 6.50875 31.1492 6.87236 31.1768C7.23598 31.2045 12.0182 31.1216 12.2944 31.1492C12.5706 31.1768 12.879 30.9283 12.879 30.4266V22.0588C12.879 22.0588 11.2128 20.8068 11.0148 20.8344C10.8169 20.8621 6.31543 22.0265 6.31543 22.0265Z" fill="#858585"/>
<path d="M8.34947 24.0149C7.96284 24.0609 7.79254 24.291 7.79254 24.7375C7.79254 25.184 7.7373 28.185 7.7373 28.4887C7.7373 28.7925 7.76492 29.1009 8.21139 29.1285C8.65786 29.1561 10.6601 29.1837 10.9086 29.1561C11.1572 29.1285 11.3551 28.8524 11.3827 28.4887C11.4103 28.1251 11.3827 24.8756 11.3827 24.6224C11.3827 24.1759 11.0789 24.0379 10.6877 24.0379C10.2964 24.0379 8.79134 23.9596 8.34947 24.0149Z" fill="#B0B0B0"/>
<path d="M49.1579 24.5031L49.2132 21.6401L42.4839 21.6678L42.4287 24.365L44.0949 26.1739H45.0845C45.0477 28.8481 44.928 37.2389 44.928 37.2389C44.928 37.2389 44.5506 37.7774 44.1225 38.1825C43.5656 38.7118 42.6496 39.4068 42.7325 41.1282C42.8107 42.7116 44.3711 43.9083 45.9038 43.9083C47.5424 43.9083 48.6562 42.7116 48.7115 41.5747C48.7667 40.4332 48.3202 40.3872 48.0717 40.3504C47.6805 40.2951 47.3767 40.5713 47.2938 41.073C47.211 41.5747 46.7093 42.2145 45.8486 42.0166C44.9878 41.8186 44.4309 40.8751 45.1259 39.9591C45.623 39.3009 46.5712 39.0984 46.654 38.5415C46.7277 38.0628 46.6725 28.71 46.6586 26.1693H47.6851L49.1579 24.5031Z" fill="#858587"/>
<path d="M44.1871 31.6645C43.8419 31.7198 43.7637 31.9591 43.7637 32.2767L43.7683 35.9635C43.7683 36.1752 43.7683 36.387 44.0629 36.4146C44.3574 36.4422 47.386 36.4422 47.5425 36.4422C47.7819 36.4422 47.9154 36.1476 47.9154 35.7794C47.9154 35.4066 47.9338 32.2997 47.9154 32.088C47.8877 31.7428 47.5702 31.6645 47.3032 31.6369C47.0362 31.6047 44.4265 31.6277 44.1871 31.6645Z" fill="#F1901B"/>
<path d="M36.5371 47.627H57.0884V50.8167H36.5371V47.627Z" fill="#AF0C1A"/>
<path d="M34.0654 45.6064L34.1207 48.0781C34.1207 48.0781 59.1505 48.2116 59.1781 48.1334C59.2057 48.0551 59.2333 45.7952 59.1229 45.7399C59.017 45.6847 34.0654 45.6064 34.0654 45.6064Z" fill="#DC0D2A"/>
<path d="M34.0654 49.8828V52.3269L59.2287 52.3545C59.2287 52.3545 59.284 49.9887 59.2011 49.9887C59.1229 49.9933 34.0654 49.8828 34.0654 49.8828Z" fill="#DC0D2A"/>
<path d="M40.7349 45.1279C40.2055 45.3719 40.2792 45.7907 40.2838 46.2188C40.3022 48.0875 40.3897 52.3312 40.3897 52.3312C40.3897 52.3312 40.5139 52.9434 41.3194 52.9434C42.2814 52.9434 42.355 52.3036 42.355 52.3036V45.9518L45.9866 42.9416L50.8057 46.4811C50.8057 46.4811 50.9392 51.9814 50.9392 52.299C50.9392 52.6166 51.2568 53.0447 52.0024 53.0171C52.8539 52.9848 52.9598 52.299 52.9598 52.299C52.9598 52.299 52.9276 46.4075 52.9 45.9196C52.8539 45.1924 51.7631 45.2062 51.7631 45.2062C51.7631 45.2062 46.4469 40.9762 45.9682 40.9532C45.4389 40.9302 41.1031 44.9576 40.7349 45.1279Z" fill="#FF510F"/>
<path d="M59.4863 20.7745C59.2377 20.5122 52.1587 13.5712 51.8181 13.5712H26.2083C26.2083 13.5712 22.1073 7.42193 21.5825 6.66248C20.9934 5.80637 20.4641 5.76034 19.9302 6.63947C19.7138 6.99848 15.7693 13.5252 15.7693 13.5252C15.7693 13.5252 5.36702 13.6587 4.76866 13.6126C4.1703 13.5712 4 13.8704 4 14.1236C4 14.3813 4 22.519 4.12888 22.6018C4.25775 22.6847 14.6968 22.6433 14.6968 22.6433L14.6094 53.6659C14.6094 53.6659 13.6796 53.6843 13.0398 53.6843C12.4 53.6843 12.0456 53.6935 12.0502 54.1814C12.0502 54.4391 12.041 55.5438 12.0502 55.9304C12.0686 56.6669 11.9904 57.0443 12.4783 57.0397C12.9063 57.0351 27.4373 57.0397 28.2473 57.0397C29.0574 57.0397 29.0574 56.5288 29.0574 56.271V54.2274C29.0574 53.8039 28.6754 53.629 28.3762 53.629H26.5443V30.0629C26.5443 30.0629 28.1231 30.1504 29.8261 29.8926C31.5291 29.6349 32.0814 27.7477 32.3806 26.3853C32.6798 25.0229 32.597 22.5374 32.597 22.5374C32.597 22.5374 58.9708 22.6064 59.5277 22.3947C60.08 22.1784 60.2457 21.5892 59.4863 20.7745ZM6.52231 15.7345H9.60616L6.52231 19.1774V15.7345ZM8.20692 19.6607L10.5819 16.9681L13.4265 19.6607H8.20692ZM14.8349 18.9012L11.636 15.7345H14.8349V18.9012ZM23.8747 44.5248L20.6344 47.8019L17.3756 44.5248H23.8747ZM18.1811 42.9921L20.731 40.3593L23.35 42.9598L18.1811 42.9921ZM20.5377 27.9502L16.8647 24.4936H23.93L20.5377 27.9502ZM24.6986 26.1644V31.8718L21.7667 29.1101L24.6986 26.1644ZM23.5525 33.3677H17.5367L20.5147 30.3713L23.5525 33.3677ZM24.6986 36.0511V41.8414L21.8587 39.0751L24.6986 36.0511ZM23.396 34.8728L20.593 37.9474L17.6058 34.928L23.396 34.8728ZM24.9334 20.6273H18.4389L24.938 16.8622V20.6273H24.9334ZM20.6896 9.06052C20.6896 9.06052 23.617 13.3089 23.5433 13.4516C23.5065 13.5252 22.0152 13.47 20.5976 13.4608C19.2628 13.4562 17.9924 13.5022 17.9786 13.4147C17.9418 13.2398 20.6896 9.06052 20.6896 9.06052ZM16.8325 15.7023H23.4329L16.8049 19.7021L16.8325 15.7023ZM16.5517 26.4589L19.318 29.193L16.5517 32.0099V26.4589ZM16.5517 36.2306L19.3962 39.0981L16.5701 42.0807L16.5517 36.2306ZM16.5517 46.1864L19.41 49.0447L16.5517 51.9352V46.1864ZM17.3756 53.6981L20.6528 50.2874L23.999 53.6336C22.5031 53.629 18.982 53.6751 17.3756 53.6981ZM24.6986 51.8938L21.8541 49.0309L24.6986 46.0713V51.8938ZM26.6502 20.6273L26.6778 16.5354L30.5717 20.6365C28.1921 20.6273 26.6502 20.6273 26.6502 20.6273ZM32.6384 20.2959L28.0264 15.5872L37.3102 15.5596L32.6384 20.2959ZM34.7326 20.6457L39.2295 16.2454L43.9243 20.6687C40.8313 20.6595 37.5725 20.6503 34.7326 20.6457ZM40.8221 15.5504L50.7963 15.5228L45.8713 20.3419L40.8221 15.5504ZM55.9836 20.6963C55.9375 20.6963 52.5913 20.6871 48.1773 20.6779C49.2543 19.5916 51.4545 17.3685 52.3612 16.4526C53.5809 17.6907 55.6246 19.7711 55.9468 20.0933C56.4116 20.5536 56.1263 20.6963 55.9836 20.6963Z" fill="#F3911C"/>
<path d="M26.5029 22.427C26.5029 22.427 26.5397 25.5063 26.4661 25.5431C26.3924 25.5799 14.6232 25.5155 14.4023 25.4418C14.1813 25.3682 14.1859 22.4638 14.2918 22.427C14.3977 22.3902 26.5029 22.427 26.5029 22.427Z" fill="#D15116"/>
<path d="M28.519 23.3154L28.5375 26.6432L31.4648 28.8249C31.4648 28.8249 32.1644 28.0102 32.482 26.1967C32.749 24.6824 32.6017 23.274 32.6017 23.274C32.6017 23.274 28.5651 23.2602 28.519 23.3154Z" fill="#A7D0D6"/>
</svg>
