<svg width="64" height="64" viewBox="0 0 64 64" fill="none" xmlns="http://www.w3.org/2000/svg">
<path d="M62 35.925V28.075C62 27.78 61.775 27.53 61.485 27.5L52.57 26.555C52.335 26.53 52.145 26.365 52.08 26.14C51.65 24.665 51.065 23.26 50.34 21.945C50.225 21.74 50.245 21.485 50.395 21.305L56.035 14.335C56.22 14.105 56.205 13.77 55.995 13.565L50.445 8.015C50.3444 7.91414 50.21 7.8542 50.0677 7.84681C49.9254 7.83942 49.7855 7.8851 49.675 7.975L42.695 13.61C42.51 13.76 42.26 13.775 42.055 13.665C40.724 12.9343 39.3174 12.3509 37.86 11.925C37.635 11.86 37.47 11.67 37.445 11.435L36.5 2.515C36.47 2.225 36.22 2 35.925 2H28.075C27.78 2 27.53 2.225 27.5 2.515L26.555 11.43C26.53 11.665 26.365 11.855 26.14 11.92C24.665 12.35 23.26 12.935 21.945 13.66C21.74 13.775 21.485 13.755 21.305 13.605L14.335 7.97C14.2245 7.8801 14.0846 7.83442 13.9423 7.84181C13.8 7.8492 13.6656 7.90914 13.565 8.01L8.015 13.56C7.91414 13.6606 7.8542 13.795 7.84681 13.9373C7.83942 14.0796 7.8851 14.2195 7.975 14.33L13.615 21.3C13.765 21.485 13.78 21.735 13.67 21.94C12.9393 23.271 12.3559 24.6776 11.93 26.135C11.865 26.36 11.675 26.525 11.44 26.55L2.515 27.5C2.225 27.53 2 27.78 2 28.075V35.925C2 36.22 2.225 36.47 2.515 36.5L11.43 37.445C11.665 37.47 11.855 37.635 11.92 37.86C12.35 39.335 12.935 40.74 13.66 42.055C13.775 42.26 13.755 42.515 13.605 42.695L7.97 49.665C7.785 49.895 7.8 50.23 8.01 50.435L13.56 55.985C13.77 56.195 14.1 56.21 14.33 56.025L21.3 50.385C21.485 50.235 21.735 50.22 21.94 50.33C23.26 51.055 24.665 51.64 26.135 52.07C26.36 52.135 26.525 52.325 26.55 52.56L27.5 61.485C27.53 61.78 27.78 62 28.075 62H35.925C36.22 62 36.47 61.775 36.5 61.485L37.445 52.57C37.47 52.335 37.635 52.145 37.86 52.08C39.335 51.65 40.74 51.065 42.055 50.34C42.26 50.225 42.515 50.245 42.695 50.395L49.665 56.035C49.895 56.22 50.23 56.205 50.435 55.995L55.985 50.445C56.195 50.235 56.21 49.905 56.025 49.675L50.385 42.705C50.235 42.52 50.22 42.27 50.33 42.065C51.055 40.745 51.64 39.34 52.07 37.87C52.135 37.645 52.325 37.48 52.56 37.455L61.485 36.5C61.775 36.47 62 36.22 62 35.925ZM32 37.64C28.885 37.64 26.36 35.115 26.36 32C26.36 28.885 28.885 26.36 32 26.36C35.115 26.36 37.64 28.885 37.64 32C37.64 35.115 35.115 37.64 32 37.64Z" fill="#82AEC0"/>
<path d="M40.2798 24.74C42.1148 26.83 43.1698 29.625 42.9948 32.665C42.6698 38.245 38.0798 42.76 32.4948 43.005C30.1198 43.11 27.9048 42.46 26.0648 41.28C25.9248 41.19 25.7748 41.38 25.8948 41.5C27.0461 42.6775 28.4427 43.5868 29.9853 44.1632C31.5279 44.7397 33.1785 44.969 34.8198 44.835C40.2098 44.41 44.5998 40.085 45.0948 34.7C45.4798 30.52 43.5648 26.765 40.4798 24.535C40.3348 24.435 40.1698 24.61 40.2798 24.74Z" fill="#2F7889"/>
<path d="M21.935 32.6601C21.6 26.0851 25.85 21.2651 31.94 21.2651C32.265 21.2651 32.78 21.2651 33.18 21.7251C33.685 22.3151 33.73 23.0251 33.18 23.6101C32.775 24.0401 32.205 24.0701 31.915 24.1101C25.765 24.9051 24.325 28.7851 24 32.4951C23.985 32.6601 24.03 33.6701 23.145 33.7751C22.07 33.9001 21.94 32.8201 21.935 32.6601Z" fill="#B9E4EA"/>
<path d="M12.6201 32.9351C12.6151 21.9201 20.5701 12.8401 31.6851 12.4101C32.0251 12.3951 32.9101 12.4101 33.4601 12.9051C33.9651 13.3601 34.1501 14.1601 33.8551 14.8151C33.3801 15.8701 32.4301 15.8501 32.1751 15.8601C22.9201 16.1901 15.0851 23.7251 15.0801 32.8351C15.0801 32.9801 15.0551 33.1251 15.0051 33.2551L14.9551 33.3801C14.5751 34.3701 13.1951 34.4251 12.7401 33.4701C12.6651 33.3001 12.6201 33.1201 12.6201 32.9351Z" fill="#94D1E0"/>
</svg>
