<svg width="64" height="64" viewBox="0 0 64 64" fill="none" xmlns="http://www.w3.org/2000/svg">
<path d="M58.9449 29.5058L34.4944 5.05718C34.1595 4.72202 33.7618 4.45615 33.3241 4.27476C32.8863 4.09336 32.4171 4 31.9433 4C31.4695 4 31.0003 4.09336 30.5626 4.27476C30.1249 4.45615 29.7272 4.72202 29.3922 5.05718L24.3169 10.135L30.7561 16.5743C31.5132 16.3171 32.3271 16.277 33.1058 16.4584C33.8844 16.6397 34.5968 17.0354 35.1624 17.6005C35.731 18.1698 36.128 18.8876 36.3079 19.6719C36.4877 20.4561 36.4433 21.2752 36.1795 22.0354L42.3878 28.2419C43.1482 27.9778 43.9676 27.9333 44.7521 28.1135C45.5365 28.2937 46.2544 28.6914 46.8233 29.2608C47.2217 29.6592 47.5378 30.1323 47.7535 30.6528C47.9692 31.1734 48.0802 31.7314 48.0802 32.2949C48.0802 32.8584 47.9692 33.4164 47.7535 33.937C47.5378 34.4575 47.2217 34.9306 46.8233 35.329C46.0176 36.1337 44.9255 36.5858 43.7868 36.5858C42.648 36.5858 41.5559 36.1337 40.7502 35.329C40.1518 34.7295 39.744 33.9664 39.5783 33.1357C39.4126 32.305 39.4964 31.4439 39.819 30.6607L34.0294 24.8729V40.1069C34.6405 40.4088 35.1709 40.8519 35.5766 41.3996C35.9824 41.9472 36.2518 42.5837 36.3626 43.2562C36.4734 43.9287 36.4223 44.6179 36.2137 45.2668C36.0051 45.9157 35.6449 46.5055 35.163 46.9874C34.7645 47.3859 34.2915 47.702 33.7709 47.9177C33.2504 48.1334 32.6924 48.2444 32.1289 48.2444C31.5654 48.2444 31.0074 48.1334 30.4868 47.9177C29.9662 47.702 29.4932 47.3859 29.0948 46.9874C28.6962 46.589 28.3801 46.116 28.1644 45.5953C27.9486 45.0747 27.8376 44.5166 27.8376 43.9531C27.8376 43.3895 27.9486 42.8315 28.1644 42.3108C28.3801 41.7902 28.6962 41.3171 29.0948 40.9187C29.4963 40.5164 29.9736 40.1976 30.499 39.9808V24.6066C29.9757 24.3911 29.5002 24.0743 29.0997 23.6744C28.6993 23.2746 28.3818 22.7996 28.1654 22.2766C27.9491 21.7537 27.8382 21.1932 27.8392 20.6273C27.8401 20.0614 27.9529 19.5013 28.1709 18.9791L21.8218 12.6288L5.05511 29.3913C4.37946 30.0682 4 30.9856 4 31.942C4 32.8985 4.37946 33.8159 5.05511 34.4928L29.5068 58.9445C30.1838 59.62 31.101 59.9993 32.0573 59.9993C33.0136 59.9993 33.9308 59.62 34.6078 58.9445L58.9449 34.6074C59.6205 33.9304 60 33.0131 60 32.0566C60 31.1002 59.6205 30.1828 58.9449 29.5058Z" fill="#F03C2E"/>
</svg>
