<svg width="64" height="64" viewBox="0 0 64 64" fill="none" xmlns="http://www.w3.org/2000/svg">
<path d="M53.6364 21.4927H30.7273C29.0401 21.4947 27.4227 22.1657 26.2297 23.3587C25.0367 24.5517 24.3656 26.1692 24.3636 27.8563V43.129C24.3656 44.8162 25.0367 46.4336 26.2297 47.6266C27.4227 48.8196 29.0401 49.4907 30.7273 49.4927H43.5638L49.1055 55.0336C49.3725 55.3001 49.7126 55.4815 50.0826 55.555C50.4527 55.6284 50.8363 55.5905 51.1848 55.4461C51.5334 55.3018 51.8314 55.0574 52.0412 54.7438C52.251 54.4302 52.3632 54.0615 52.3636 53.6842V49.4927H53.6364C55.3235 49.4907 56.941 48.8196 58.134 47.6266C59.3269 46.4336 59.998 44.8162 60 43.129V27.8563C59.998 26.1692 59.3269 24.5517 58.134 23.3587C56.941 22.1657 55.3235 21.4947 53.6364 21.4927ZM48.5455 33.5832H47.8341C47.5399 36.2113 46.343 38.6559 44.4476 40.5001C45.5414 40.9703 46.7189 41.215 47.9094 41.2196C48.2516 41.218 48.5809 41.3502 48.8271 41.588C49.0732 41.8258 49.2167 42.1503 49.227 42.4923C49.2321 42.657 49.2043 42.8211 49.145 42.9749C49.0857 43.1287 48.9962 43.269 48.8819 43.3876C48.7675 43.5063 48.6305 43.6008 48.479 43.6656C48.3275 43.7304 48.1645 43.7642 47.9997 43.7651C45.9654 43.7606 43.9679 43.2223 42.2069 42.2039C40.4625 43.2264 38.4769 43.7653 36.4549 43.7651C36.1125 43.767 35.7829 43.6349 35.5366 43.3971C35.2903 43.1593 35.1468 42.8346 35.1367 42.4923C35.1315 42.3276 35.1594 42.1635 35.2187 42.0098C35.2779 41.856 35.3674 41.7157 35.4818 41.597C35.5962 41.4784 35.7332 41.3839 35.8847 41.3191C36.0362 41.2543 36.1991 41.2204 36.3639 41.2196C37.5937 41.2211 38.8109 40.9728 39.9418 40.4899C38.9557 39.5509 38.1472 38.4417 37.5552 37.2154C37.4798 37.064 37.4353 36.8991 37.4243 36.7303C37.4134 36.5615 37.4362 36.3922 37.4914 36.2323C37.5467 36.0724 37.6332 35.9251 37.746 35.799C37.8589 35.673 37.9957 35.5707 38.1485 35.4981C38.3013 35.4256 38.4671 35.3842 38.6361 35.3765C38.8051 35.3687 38.9739 35.3948 39.1327 35.453C39.2916 35.5113 39.4372 35.6006 39.5611 35.7158C39.6849 35.831 39.7846 35.9698 39.8543 36.1239C40.4032 37.2773 41.1946 38.2985 42.1744 39.1181C43.8506 37.7168 44.9503 35.7457 45.2622 33.5832H35.8182C35.4806 33.5832 35.1569 33.4492 34.9182 33.2105C34.6795 32.9718 34.5455 32.6481 34.5455 32.3105C34.5455 31.973 34.6795 31.6492 34.9182 31.4106C35.1569 31.1719 35.4806 31.0378 35.8182 31.0378H40.9091V28.4923C40.9091 28.1548 41.0432 27.8311 41.2819 27.5924C41.5205 27.3537 41.8443 27.2196 42.1818 27.2196C42.5194 27.2196 42.8431 27.3537 43.0818 27.5924C43.3205 27.8311 43.4545 28.1548 43.4545 28.4923V31.0378H48.5455C48.883 31.0378 49.2067 31.1719 49.4454 31.4106C49.6841 31.6492 49.8182 31.973 49.8182 32.3105C49.8182 32.6481 49.6841 32.9718 49.4454 33.2105C49.2067 33.4492 48.883 33.5832 48.5455 33.5832Z" fill="url(#paint0_linear_5370_10882)"/>
<path d="M21.8182 18.2053L19.7452 22.7654H23.4269C23.5192 22.6337 23.6163 22.5061 23.7154 22.3792L21.8182 18.2053Z" fill="url(#paint1_linear_5370_10882)"/>
<path d="M33.2727 7.49268H10.3636C8.6765 7.49465 7.05903 8.16574 5.86605 9.35872C4.67306 10.5517 4.00198 12.1692 4 13.8563V29.129C4.00198 30.8162 4.67306 32.4336 5.86605 33.6266C7.05903 34.8196 8.6765 35.4907 10.3636 35.4927H11.6364V39.6835C11.636 40.0612 11.7477 40.4304 11.9574 40.7445C12.167 41.0586 12.4651 41.3035 12.814 41.448C13.1629 41.5926 13.5468 41.6304 13.9172 41.5566C14.2875 41.4828 14.6277 41.3008 14.8945 41.0336L20.4362 35.4927H21.8182V27.8563C21.8188 26.9941 21.9452 26.1366 22.1936 25.3109H18.5878L16.6132 29.6551C16.4735 29.9624 16.2175 30.2016 15.9014 30.3201C15.5853 30.4387 15.2351 30.4268 14.9278 30.2871C14.6205 30.1474 14.3813 29.8913 14.2628 29.5752C14.1443 29.2591 14.1562 28.9089 14.2959 28.6016L20.6595 14.6016C20.7606 14.3791 20.9236 14.1905 21.1291 14.0581C21.3346 13.9258 21.5738 13.8555 21.8182 13.8555C22.0626 13.8555 22.3018 13.9258 22.5073 14.0581C22.7127 14.1905 22.8758 14.3791 22.9769 14.6016L25.671 20.5288C27.1555 19.4973 28.9202 18.9449 30.728 18.9459H39.6364V13.855C39.634 12.1681 38.9628 10.5509 37.7698 9.35824C36.5769 8.16555 34.9596 7.49465 33.2727 7.49268Z" fill="url(#paint2_linear_5370_10882)"/>
<defs>
<linearGradient id="paint0_linear_5370_10882" x1="4" y1="31.7397" x2="60" y2="31.7397" gradientUnits="userSpaceOnUse">
<stop stop-color="#3059E4"/>
<stop offset="0.5" stop-color="#34D1F9"/>
<stop offset="1" stop-color="#00D490"/>
</linearGradient>
<linearGradient id="paint1_linear_5370_10882" x1="4" y1="31.7397" x2="60" y2="31.7397" gradientUnits="userSpaceOnUse">
<stop stop-color="#3059E4"/>
<stop offset="0.5" stop-color="#34D1F9"/>
<stop offset="1" stop-color="#00D490"/>
</linearGradient>
<linearGradient id="paint2_linear_5370_10882" x1="4" y1="31.7397" x2="60" y2="31.7397" gradientUnits="userSpaceOnUse">
<stop stop-color="#3059E4"/>
<stop offset="0.5" stop-color="#34D1F9"/>
<stop offset="1" stop-color="#00D490"/>
</linearGradient>
</defs>
</svg>
