<svg width="64" height="64" viewBox="0 0 64 64" fill="none" xmlns="http://www.w3.org/2000/svg">
<mask id="mask0_5229_6390" style="mask-type:luminance" maskUnits="userSpaceOnUse" x="7" y="4" width="50" height="56">
<path d="M30.2745 4.35425L8.32637 17.0225C7.50429 17.4966 7 18.3718 7 19.3179V44.6721C7 45.6187 7.50429 46.4934 8.32637 46.9675L30.2761 59.6456C31.0966 60.1181 32.1083 60.1181 32.9278 59.6456L54.8739 46.9675C55.6918 46.4934 56.1971 45.6182 56.1971 44.6721V19.3179C56.1971 18.3718 55.6918 17.4966 54.8687 17.0225L32.9257 4.35425C32.5142 4.11825 32.0557 4 31.5973 4C31.1388 4 30.6804 4.11825 30.2688 4.35425" fill="white"/>
</mask>
<g mask="url(#mask0_5229_6390)">
<path d="M78.3765 14.8715L16.5303 -15.4434L-15.1807 49.2467L46.6639 79.5631L78.3765 14.8715Z" fill="url(#paint0_linear_5229_6390)"/>
</g>
<mask id="mask1_5229_6390" style="mask-type:luminance" maskUnits="userSpaceOnUse" x="7" y="4" width="49" height="56">
<path d="M7.54395 46.282C7.75389 46.5545 8.01646 46.7905 8.32539 46.9676L27.153 57.8427L30.2892 59.6453C30.7581 59.9162 31.2926 60.0308 31.8177 59.9917C31.9927 59.9776 32.1678 59.9448 32.3387 59.8964L55.4871 17.5108C55.31 17.3181 55.1027 17.1566 54.8703 17.0211L40.499 8.72218L32.9023 4.35131C32.6867 4.22627 32.4527 4.13771 32.2147 4.0752L7.54395 46.282Z" fill="white"/>
</mask>
<g mask="url(#mask1_5229_6390)">
<path d="M-19.1958 23.8379L24.4739 82.9427L82.2279 40.2727L38.5555 -18.8306L-19.1958 23.8379Z" fill="url(#paint1_linear_5229_6390)"/>
</g>
<mask id="mask2_5229_6390" style="mask-type:luminance" maskUnits="userSpaceOnUse" x="8" y="4" width="49" height="56">
<path d="M31.3355 4.01429C30.9671 4.05076 30.6072 4.16537 30.2753 4.35396L8.38965 16.9857L31.9893 59.9704C32.3175 59.9235 32.6405 59.8141 32.9322 59.6453L54.8804 46.9672C55.5576 46.5744 56.0213 45.9096 56.162 45.1563L32.1039 4.05753C31.9268 4.02262 31.7496 4.00439 31.5673 4.00439C31.4944 4.00439 31.4214 4.00804 31.3485 4.01481" fill="white"/>
</mask>
<g mask="url(#mask2_5229_6390)">
<path d="M8.38916 4.00439V59.9714H56.1526V4.00439H8.38916Z" fill="url(#paint2_linear_5229_6390)"/>
</g>
<defs>
<linearGradient id="paint0_linear_5229_6390" x1="47.4348" y1="-0.333615" x2="15.726" y2="64.3521" gradientUnits="userSpaceOnUse">
<stop offset="0.3" stop-color="#3E863D"/>
<stop offset="0.5" stop-color="#55934F"/>
<stop offset="0.8" stop-color="#5AAD45"/>
</linearGradient>
<linearGradient id="paint1_linear_5229_6390" x1="2.90076" y1="53.729" x2="60.657" y2="11.0541" gradientUnits="userSpaceOnUse">
<stop offset="0.57" stop-color="#3E863D"/>
<stop offset="0.72" stop-color="#619857"/>
<stop offset="1" stop-color="#76AC64"/>
</linearGradient>
<linearGradient id="paint2_linear_5229_6390" x1="8.40527" y1="31.9895" x2="56.1616" y2="31.9895" gradientUnits="userSpaceOnUse">
<stop offset="0.16" stop-color="#6BBF47"/>
<stop offset="0.38" stop-color="#79B461"/>
<stop offset="0.47" stop-color="#75AC64"/>
<stop offset="0.7" stop-color="#659E5A"/>
<stop offset="0.9" stop-color="#3E863D"/>
</linearGradient>
</defs>
</svg>
