<svg width="64" height="64" viewBox="0 0 64 64" fill="none" xmlns="http://www.w3.org/2000/svg">
<path d="M5.3335 24.0002C5.3335 19.5819 8.91523 16.0002 13.3335 16.0002H20.9409C21.7339 16.0002 22.2233 15.1774 21.9174 14.4459C21.7673 14.0869 21.6398 13.7188 21.554 13.3335C20.6712 9.3683 23.6655 5.3335 28.0002 5.3335C32.3348 5.3335 35.329 9.3683 34.4463 13.3335C34.3604 13.7188 34.233 14.0869 34.0828 14.4459C33.777 15.1774 34.2666 16.0002 35.0594 16.0002H40.0002C44.4186 16.0002 48.0002 19.5819 48.0002 24.0002V28.941C48.0002 29.7338 48.8228 30.2234 49.5546 29.9175C49.9135 29.7674 50.2815 29.6399 50.6668 29.554C54.6319 28.6714 58.6668 31.6655 58.6668 36.0002C58.6668 40.3348 54.6319 43.329 50.6668 42.4463C50.2815 42.3604 49.9135 42.233 49.5546 42.0828C48.8228 41.777 48.0002 42.2666 48.0002 43.0594V50.6668C48.0002 55.0852 44.4186 58.6668 40.0002 58.6668H34.9511C34.1852 58.6668 33.6911 57.8903 33.9106 57.1567C34.0223 56.7834 34.1047 56.4007 34.1391 56.0002C34.4346 52.5535 31.7303 49.3335 28.0002 49.3335C24.27 49.3335 21.5658 52.5535 21.8612 56.0002C21.8956 56.4007 21.978 56.7834 22.0897 57.1567C22.3092 57.8903 21.815 58.6668 21.0492 58.6668H13.3335C8.91523 58.6668 5.3335 55.0852 5.3335 50.6668V42.9511C5.3335 42.1852 6.11006 41.6911 6.84368 41.9106C7.21696 42.0223 7.59952 42.1047 8.00016 42.1391C11.4469 42.4346 14.6668 39.7303 14.6668 36.0002C14.6668 32.27 11.4469 29.5658 8.00016 29.8612C7.59952 29.8956 7.21696 29.978 6.84371 30.0898C6.11006 30.3092 5.3335 29.8151 5.3335 29.0492V24.0002Z" fill="url(#paint0_linear_5292_6791)"/>
<defs>
<linearGradient id="paint0_linear_5292_6791" x1="5.3335" y1="32.2191" x2="58.6668" y2="32.2191" gradientUnits="userSpaceOnUse">
<stop stop-color="#3059E4"/>
<stop offset="0.5" stop-color="#34D1F9"/>
<stop offset="1" stop-color="#00D490"/>
</linearGradient>
</defs>
</svg>
