<svg width="64" height="64" viewBox="0 0 64 64" fill="none" xmlns="http://www.w3.org/2000/svg">
<path d="M58.9759 20.4134C58.9759 20.9657 58.5282 21.4134 57.9759 21.4134H42.9038C42.3515 21.4134 41.9038 20.9657 41.9038 20.4134V5.34131C41.9038 4.78902 42.3515 4.34131 42.9038 4.34131H57.9759C58.5282 4.34131 58.9759 4.78902 58.9759 5.34131V20.4134Z" fill="#F9AD00"/>
<path d="M40.1932 20.4134C40.1932 20.9657 39.7455 21.4134 39.1932 21.4134H24.1211C23.5688 21.4134 23.1211 20.9657 23.1211 20.4134V5.34131C23.1211 4.78902 23.5688 4.34131 24.1211 4.34131H39.1932C39.7455 4.34131 40.1932 4.78902 40.1932 5.34131V20.4134Z" fill="#F9AD00"/>
<path d="M21.4139 20.4134C21.4139 20.9657 20.9662 21.4134 20.4139 21.4134H5.3418C4.78951 21.4134 4.3418 20.9657 4.3418 20.4134V5.34131C4.3418 4.78902 4.78951 4.34131 5.3418 4.34131H20.4139C20.9662 4.34131 21.4139 4.78902 21.4139 5.34131V20.4134Z" fill="#F9AD00"/>
<path d="M58.9759 39.1927C58.9759 39.745 58.5282 40.1927 57.9759 40.1927H42.9038C42.3515 40.1927 41.9038 39.745 41.9038 39.1927V24.1206C41.9038 23.5683 42.3515 23.1206 42.9038 23.1206H57.9759C58.5282 23.1206 58.9759 23.5683 58.9759 24.1206V39.1927Z" fill="#F9AD00"/>
<path d="M40.1932 39.1927C40.1932 39.745 39.7455 40.1927 39.1932 40.1927H24.1211C23.5688 40.1927 23.1211 39.745 23.1211 39.1927V24.1206C23.1211 23.5683 23.5688 23.1206 24.1211 23.1206H39.1932C39.7455 23.1206 40.1932 23.5683 40.1932 24.1206V39.1927Z" fill="#4E4E4E"/>
<path d="M40.1932 57.972C40.1932 58.5243 39.7455 58.972 39.1932 58.972H24.1211C23.5688 58.972 23.1211 58.5243 23.1211 57.972V42.8999C23.1211 42.3476 23.5688 41.8999 24.1211 41.8999H39.1932C39.7455 41.8999 40.1932 42.3476 40.1932 42.8999V57.972Z" fill="#4E4E4E"/>
<path d="M58.9759 57.972C58.9759 58.5243 58.5282 58.972 57.9759 58.972H42.9038C42.3515 58.972 41.9038 58.5243 41.9038 57.972V42.8999C41.9038 42.3476 42.3515 41.8999 42.9038 41.8999H57.9759C58.5282 41.8999 58.9759 42.3476 58.9759 42.8999V57.972Z" fill="#4E4E4E"/>
<path d="M21.4139 57.972C21.4139 58.5243 20.9662 58.972 20.4139 58.972H5.3418C4.78951 58.972 4.3418 58.5243 4.3418 57.972V42.8999C4.3418 42.3476 4.78951 41.8999 5.3418 41.8999H20.4139C20.9662 41.8999 21.4139 42.3476 21.4139 42.8999V57.972Z" fill="#4E4E4E"/>
</svg>
