<svg width="64" height="64" viewBox="0 0 64 64" fill="none" xmlns="http://www.w3.org/2000/svg">
<path d="M45.084 9.56823L4.12357 53.4804C4.06239 53.5462 4.02174 53.6284 4.0066 53.7169C3.99146 53.8054 4.00249 53.8965 4.03834 53.9788C4.07419 54.0612 4.1333 54.1313 4.20842 54.1805C4.28353 54.2297 4.37139 54.256 4.4612 54.256H45.4183C45.5407 54.256 45.658 54.2074 45.7445 54.1209C45.831 54.0344 45.8796 53.917 45.8796 53.7947V9.88246C45.8789 9.79055 45.8507 9.70095 45.7987 9.62515C45.7467 9.54936 45.6733 9.49082 45.5878 9.45706C45.5023 9.42329 45.4087 9.41584 45.3189 9.43564C45.2291 9.45545 45.1474 9.50162 45.084 9.56823ZM39.605 47.6237C39.605 47.671 39.5957 47.7177 39.5775 47.7614C39.5593 47.805 39.5326 47.8446 39.4991 47.8778C39.4655 47.9111 39.4257 47.9374 39.3819 47.9551C39.3381 47.9729 39.2912 47.9818 39.244 47.9814H18.6618C18.5912 47.9825 18.5219 47.9628 18.4625 47.9246C18.4032 47.8864 18.3564 47.8315 18.3282 47.7668C18.3 47.7021 18.2915 47.6306 18.3039 47.5611C18.3162 47.4916 18.3489 47.4273 18.3977 47.3763L38.9832 25.3066C39.2039 25.0659 39.605 25.2263 39.605 25.5506V47.6237Z" fill="#C8C2E9"/>
<path d="M45.084 9.56823L43.8471 10.892V52.8252C43.8471 52.8857 43.8352 52.9455 43.812 53.0013C43.7887 53.0571 43.7547 53.1077 43.7118 53.1503C43.6689 53.1928 43.6181 53.2265 43.5621 53.2493C43.5062 53.2721 43.4463 53.2837 43.3858 53.2832H4.30743L4.12357 53.4804C4.06239 53.5462 4.02174 53.6284 4.0066 53.7169C3.99146 53.8054 4.00249 53.8965 4.03834 53.9788C4.07419 54.0612 4.1333 54.1313 4.20842 54.1805C4.28353 54.2297 4.37139 54.256 4.4612 54.256H45.4183C45.5407 54.256 45.658 54.2074 45.7445 54.1209C45.831 54.0344 45.8796 53.917 45.8796 53.7947V9.88246C45.8789 9.79055 45.8507 9.70095 45.7987 9.62515C45.7467 9.54936 45.6733 9.49082 45.5878 9.45706C45.5023 9.42329 45.4087 9.41584 45.3189 9.43564C45.2291 9.45545 45.1474 9.50162 45.084 9.56823Z" fill="#B9B1E0"/>
<path d="M43.5094 13.8741C43.3321 13.8741 43.162 13.9445 43.0366 14.0699C42.9113 14.1953 42.8408 14.3654 42.8408 14.5427C42.8408 14.72 42.9113 14.89 43.0366 15.0154C43.162 15.1408 43.3321 15.2112 43.5094 15.2112H45.7424C45.7884 15.2103 45.8342 15.2058 45.8795 15.1979V13.8875C45.8345 13.8779 45.7885 13.8734 45.7424 13.8741H43.5094Z" fill="#231F20"/>
<path d="M44.5157 18.8149C44.3384 18.8149 44.1684 18.8854 44.043 19.0108C43.9176 19.1361 43.8472 19.3062 43.8472 19.4835C43.8472 19.6608 43.9176 19.8309 44.043 19.9563C44.1684 20.0817 44.3384 20.1521 44.5157 20.1521H45.7426C45.7886 20.1528 45.8346 20.1483 45.8796 20.1387V18.8317C45.8347 18.821 45.7888 18.8154 45.7426 18.8149H44.5157Z" fill="#231F20"/>
<path d="M44.5157 23.7589C44.3384 23.7589 44.1684 23.8293 44.043 23.9547C43.9176 24.0801 43.8472 24.2501 43.8472 24.4274C43.8472 24.6048 43.9176 24.7748 44.043 24.9002C44.1684 25.0256 44.3384 25.096 44.5157 25.096H45.7426C45.7888 25.0956 45.8347 25.09 45.8796 25.0793V23.7722C45.8346 23.7627 45.7886 23.7582 45.7426 23.7589H44.5157Z" fill="#231F20"/>
<path d="M44.5157 28.6998C44.3384 28.6998 44.1684 28.7702 44.043 28.8956C43.9176 29.021 43.8472 29.191 43.8472 29.3684C43.8472 29.5457 43.9176 29.7157 44.043 29.8411C44.1684 29.9665 44.3384 30.0369 44.5157 30.0369H45.7426C45.7885 30.036 45.8344 30.0315 45.8796 30.0236V28.7131C45.8346 28.7036 45.7886 28.6991 45.7426 28.6998H44.5157Z" fill="#231F20"/>
<path d="M43.5094 33.6406C43.3321 33.6406 43.162 33.7111 43.0366 33.8364C42.9113 33.9618 42.8408 34.1319 42.8408 34.3092C42.8408 34.4865 42.9113 34.6566 43.0366 34.782C43.162 34.9073 43.3321 34.9778 43.5094 34.9778H45.7424C45.7885 34.9785 45.8345 34.974 45.8795 34.9644V33.654C45.8342 33.6461 45.7884 33.6416 45.7424 33.6406H43.5094Z" fill="#231F20"/>
<path d="M44.5157 38.5811C44.3384 38.5811 44.1684 38.6515 44.043 38.7769C43.9176 38.9023 43.8472 39.0723 43.8472 39.2496C43.8472 39.427 43.9176 39.597 44.043 39.7224C44.1684 39.8478 44.3384 39.9182 44.5157 39.9182H45.7426C45.7886 39.9189 45.8346 39.9144 45.8796 39.9048V38.5978C45.8347 38.5871 45.7888 38.5815 45.7426 38.5811H44.5157Z" fill="#231F20"/>
<path d="M44.5157 43.5255C44.3384 43.5255 44.1684 43.5959 44.043 43.7213C43.9176 43.8467 43.8472 44.0167 43.8472 44.194C43.8472 44.3714 43.9176 44.5414 44.043 44.6668C44.1684 44.7922 44.3384 44.8626 44.5157 44.8626H45.7426C45.7888 44.8622 45.8347 44.8566 45.8796 44.8459V43.5388C45.8346 43.5293 45.7886 43.5248 45.7426 43.5255H44.5157Z" fill="#231F20"/>
<path d="M44.5157 48.4663C44.3384 48.4663 44.1684 48.5367 44.043 48.6621C43.9176 48.7875 43.8472 48.9576 43.8472 49.1349C43.8472 49.3122 43.9176 49.4823 44.043 49.6076C44.1684 49.733 44.3384 49.8035 44.5157 49.8035H45.7426C45.7886 49.8042 45.8346 49.7997 45.8796 49.7901V48.4797C45.8344 48.4718 45.7885 48.4673 45.7426 48.4663H44.5157Z" fill="#231F20"/>
<path d="M40.882 51.4282C40.7046 51.4282 40.5346 51.4987 40.4092 51.624C40.2838 51.7494 40.2134 51.9195 40.2134 52.0968V54.2563H41.5505V52.0968C41.5497 51.9198 41.4789 51.7502 41.3537 51.625C41.2286 51.4998 41.059 51.4291 40.882 51.4282Z" fill="#231F20"/>
<path d="M35.9376 52.4341C35.7606 52.435 35.591 52.5057 35.4658 52.6309C35.3406 52.7561 35.2699 52.9256 35.269 53.1027V54.256H36.6062V53.1027C36.6062 52.9253 36.5358 52.7553 36.4104 52.6299C36.285 52.5045 36.1149 52.4341 35.9376 52.4341Z" fill="#231F20"/>
<path d="M30.9972 52.4341C30.8201 52.435 30.6506 52.5057 30.5254 52.6309C30.4002 52.7561 30.3295 52.9256 30.3286 53.1027V54.256H31.6658V53.1027C31.6658 52.9253 31.5953 52.7553 31.4699 52.6299C31.3446 52.5045 31.1745 52.4341 30.9972 52.4341Z" fill="#231F20"/>
<path d="M26.0563 52.4341C25.879 52.4341 25.7089 52.5045 25.5835 52.6299C25.4581 52.7553 25.3877 52.9253 25.3877 53.1027V54.256H26.7249V53.1027C26.724 52.9256 26.6533 52.7561 26.5281 52.6309C26.4029 52.5057 26.2333 52.435 26.0563 52.4341Z" fill="#231F20"/>
<path d="M21.1119 51.4282C20.9349 51.4291 20.7653 51.4998 20.6402 51.625C20.515 51.7502 20.4442 51.9198 20.4434 52.0968V54.2563H21.7805V52.0968C21.7805 51.9195 21.7101 51.7494 21.5847 51.624C21.4593 51.4987 21.2893 51.4282 21.1119 51.4282Z" fill="#231F20"/>
<path d="M16.1715 52.4341C15.9945 52.435 15.8249 52.5057 15.6997 52.6309C15.5745 52.7561 15.5038 52.9256 15.5029 53.1027V54.256H16.8401V53.1027C16.8401 52.9253 16.7696 52.7553 16.6443 52.6299C16.5189 52.5045 16.3488 52.4341 16.1715 52.4341Z" fill="#231F20"/>
<path d="M11.2306 52.4341C11.0533 52.4341 10.8832 52.5045 10.7578 52.6299C10.6325 52.7553 10.562 52.9253 10.562 53.1027V54.256H11.8992V53.1027C11.8983 52.9256 11.8276 52.7561 11.7024 52.6309C11.5772 52.5057 11.4076 52.435 11.2306 52.4341Z" fill="#231F20"/>
<path d="M59.9998 9H49.8374V54.6763H59.9998V9Z" fill="#67BAEB"/>
<path d="M51.2882 44.9929V9H49.8374V54.6773H59.9998V53.7045C55.1894 53.7045 51.2882 49.8033 51.2882 44.9929Z" fill="#46A1F8"/>
<path d="M52.0705 12.7405C52.2478 12.7405 52.4178 12.67 52.5432 12.5447C52.6686 12.4193 52.739 12.2492 52.739 12.0719C52.739 11.8946 52.6686 11.7245 52.5432 11.5991C52.4178 11.4738 52.2478 11.4033 52.0705 11.4033H49.8374V12.7405H52.0705Z" fill="#4D4C78"/>
<path d="M51.0642 17.6814C51.2416 17.6814 51.4116 17.611 51.537 17.4856C51.6624 17.3602 51.7328 17.1901 51.7328 17.0128C51.7328 16.8355 51.6624 16.6654 51.537 16.5401C51.4116 16.4147 51.2416 16.3442 51.0642 16.3442H49.8374V17.6814H51.0642Z" fill="#4D4C78"/>
<path d="M51.0642 22.6223C51.2416 22.6223 51.4116 22.5519 51.537 22.4265C51.6624 22.3011 51.7328 22.1311 51.7328 21.9537C51.7328 21.7764 51.6624 21.6064 51.537 21.481C51.4116 21.3556 51.2416 21.2852 51.0642 21.2852H49.8374V22.6223H51.0642Z" fill="#4D4C78"/>
<path d="M51.0642 27.5666C51.2416 27.5666 51.4116 27.4962 51.537 27.3708C51.6624 27.2454 51.7328 27.0754 51.7328 26.8981C51.7328 26.7208 51.6624 26.5507 51.537 26.4253C51.4116 26.2999 51.2416 26.2295 51.0642 26.2295H49.8374V27.5666H51.0642Z" fill="#4D4C78"/>
<path d="M52.0705 32.5071C52.2478 32.5071 52.4178 32.4366 52.5432 32.3113C52.6686 32.1859 52.739 32.0158 52.739 31.8385C52.739 31.6612 52.6686 31.4911 52.5432 31.3657C52.4178 31.2404 52.2478 31.1699 52.0705 31.1699H49.8374V32.5071H52.0705Z" fill="#4D4C78"/>
<path d="M51.0642 37.448C51.2416 37.448 51.4116 37.3776 51.537 37.2522C51.6624 37.1268 51.7328 36.9567 51.7328 36.7794C51.7328 36.6021 51.6624 36.432 51.537 36.3067C51.4116 36.1813 51.2416 36.1108 51.0642 36.1108H49.8374V37.448H51.0642Z" fill="#4D4C78"/>
<path d="M51.0642 42.3923C51.2416 42.3923 51.4116 42.3219 51.537 42.1965C51.6624 42.0711 51.7328 41.9011 51.7328 41.7238C51.7328 41.5464 51.6624 41.3764 51.537 41.251C51.4116 41.1256 51.2416 41.0552 51.0642 41.0552H49.8374V42.3923H51.0642Z" fill="#4D4C78"/>
<path d="M51.0642 47.3328C51.2416 47.3328 51.4116 47.2623 51.537 47.1369C51.6624 47.0116 51.7328 46.8415 51.7328 46.6642C51.7328 46.4869 51.6624 46.3168 51.537 46.1914C51.4116 46.066 51.2416 45.9956 51.0642 45.9956H49.8374V47.3328H51.0642Z" fill="#4D4C78"/>
<path d="M52.0705 52.2737C52.2478 52.2737 52.4178 52.2032 52.5432 52.0779C52.6686 51.9525 52.739 51.7824 52.739 51.6051C52.739 51.4278 52.6686 51.2577 52.5432 51.1323C52.4178 51.007 52.2478 50.9365 52.0705 50.9365H49.8374V52.2737H52.0705Z" fill="#4D4C78"/>
<path d="M58.2585 9H56.9214V54.6773H58.2585V9Z" fill="#4D4C78"/>
<path d="M56.276 13.1719H56.2726C55.9163 13.1719 55.6274 13.4607 55.6274 13.8171V33.6655C55.6274 34.0218 55.9163 34.3106 56.2726 34.3106H56.276C56.6323 34.3106 56.9211 34.0218 56.9211 33.6655V13.8171C56.9211 13.4607 56.6323 13.1719 56.276 13.1719Z" fill="#83D0FB"/>
<path d="M60.0002 32.2066C60.0002 32.0035 59.8363 31.8389 59.6341 31.8389C59.432 31.8389 59.2681 32.0035 59.2681 32.2066V46.2965C59.2681 46.4996 59.432 46.6643 59.6341 46.6643C59.8363 46.6643 60.0002 46.4996 60.0002 46.2965V32.2066Z" fill="#83D0FB"/>
<path d="M30.6291 27.9264C30.9927 27.5283 30.9646 26.9109 30.5665 26.5474C30.1684 26.1838 29.551 26.2119 29.1875 26.61L14.1629 43.064C13.7994 43.4621 13.8274 44.0795 14.2255 44.4431C14.6236 44.8066 15.241 44.7785 15.6045 44.3804L30.6291 27.9264Z" fill="#DFDAFD"/>
<path d="M40.6279 27.5664H40.5243C40.0166 27.5664 39.605 27.978 39.605 28.4857V44.2143C39.605 44.7221 40.0166 45.1336 40.5243 45.1336H40.6279C41.1356 45.1336 41.5472 44.7221 41.5472 44.2143V28.4857C41.5472 27.978 41.1356 27.5664 40.6279 27.5664Z" fill="#DFDAFD"/>
</svg>
