<svg width="64" height="64" viewBox="0 0 64 64" fill="none" xmlns="http://www.w3.org/2000/svg">
<path d="M55.6751 11.3456C55.3353 10.1725 54.7509 9.08459 53.9605 8.15352C53.17 7.22245 52.1914 6.46927 51.0891 5.94353C46.365 3.42151 38.8689 3.34751 31.9929 5.75953C25.5684 7.91267 19.6197 11.285 14.4727 15.6916C8.96869 20.7757 7.59668 25.5417 8.09468 28.0797C9.14069 33.4158 14.6427 37.1578 19.0648 40.1638C19.9008 40.7318 20.7088 41.2818 21.4148 41.7958C18.5568 43.3158 12.8927 46.6839 11.2387 50.2919C10.7071 51.3155 10.4101 52.4446 10.3693 53.5973C10.3285 54.75 10.5448 55.8973 11.0027 56.956C11.2509 57.5621 11.6222 58.1101 12.0931 58.5652C12.5641 59.0203 13.1245 59.3727 13.7387 59.6C14.7096 59.8666 15.712 60.0012 16.7188 60C18.7831 59.9639 20.8074 59.4249 22.6162 58.4295C24.425 57.4341 25.9637 56.0125 27.0988 54.2879C28.1211 52.7132 28.8029 50.9422 29.1005 49.0885C29.3981 47.2348 29.3049 45.3394 28.8269 43.5238C30.18 43.3126 31.5561 43.2924 32.9149 43.4639C33.9829 43.4937 35.0334 43.7416 36.002 44.1926C36.9706 44.6435 37.8366 45.2878 38.5469 46.0859C39.137 46.7905 39.4391 47.692 39.3929 48.6099C39.3035 49.051 39.119 49.4674 38.8524 49.8301C38.5857 50.1927 38.2433 50.493 37.8489 50.7099C37.3809 50.9899 36.6769 51.4199 36.8409 52.3159C36.9129 52.7039 37.2369 53.5819 38.6289 53.3399C39.8076 53.0139 40.8548 52.3274 41.6241 51.3767C42.3933 50.426 42.846 49.2586 42.919 48.0379C42.9333 46.9582 42.7285 45.8869 42.317 44.8886C41.9056 43.8903 41.2959 42.9858 40.525 42.2298C39.3566 41.1199 37.9746 40.2592 36.4632 39.7001C34.9517 39.1411 33.3423 38.8953 31.7329 38.9778C29.9329 38.9517 28.137 39.1561 26.3888 39.5858C25.012 38.2495 23.5394 37.0155 21.9828 35.8938C18.5588 33.2938 15.3227 30.8357 15.5127 27.3737C15.7628 22.8477 20.4488 18.3096 29.4409 13.8856C37.4729 9.93356 43.949 9.81156 47.329 11.0096C48.3284 11.2678 49.1904 11.9 49.737 12.7756C50.0126 13.5978 50.091 14.4733 49.966 15.3314C49.8409 16.1896 49.5158 17.0063 49.017 17.7156C47.3664 20.192 45.1689 22.2561 42.5942 23.7486C40.0194 25.2411 37.1361 26.1221 34.1669 26.3237C33.0428 26.5695 31.8781 26.5611 30.7576 26.2992C29.6372 26.0372 28.5894 25.5284 27.6909 24.8097C27.1348 24.2057 26.5048 23.5197 25.5428 24.0437C24.7908 24.4577 24.6388 25.2497 25.0928 26.4217C25.5921 27.3554 26.2765 28.1775 27.1042 28.8377C27.9319 29.498 28.8856 29.9825 29.9069 30.2617C34.6825 31.3137 39.6676 30.8444 44.163 28.9197C51.217 26.2197 57.5251 18.5156 55.6751 11.3456ZM23.7908 48.9499C23.6832 49.2699 23.555 49.5826 23.4068 49.8859C23.0132 50.6763 22.5058 51.4048 21.9008 52.0479C21.316 52.8192 20.5433 53.4277 19.6564 53.8153C18.7695 54.2029 17.798 54.3567 16.8348 54.2619C16.7228 54.1979 16.6788 53.9699 16.6648 53.8759C16.7039 53.0101 16.9143 52.1606 17.2836 51.3766C17.653 50.5925 18.1741 49.8894 18.8168 49.3079C20.3823 47.7692 22.1637 46.4668 24.1048 45.4419C24.2724 46.6198 24.1649 47.8205 23.7908 48.9499Z" fill="#EC407A"/>
</svg>
