<svg width="64" height="64" viewBox="0 0 64 64" fill="none" xmlns="http://www.w3.org/2000/svg">
<g clip-path="url(#clip0_5225_9725)">
<path d="M51.6 4H12.4C7.76081 4 4 7.76081 4 12.4V51.6C4 56.2392 7.76081 60 12.4 60H51.6C56.2392 60 60 56.2392 60 51.6V12.4C60 7.76081 56.2392 4 51.6 4Z" fill="#3178C6"/>
<path d="M29.4844 36.0627C29.4844 35.5104 29.9321 35.0627 30.4844 35.0627H35.4844C36.0367 35.0627 36.4844 34.615 36.4844 34.0627V31.5783C36.4844 31.0261 36.0367 30.5783 35.4844 30.5783H17.9063C17.354 30.5783 16.9062 31.0261 16.9062 31.5783V34.0627C16.9062 34.615 17.354 35.0627 17.9063 35.0627H22.9062C23.4585 35.0627 23.9062 35.5104 23.9062 36.0627V54.0783C23.9062 54.6306 24.354 55.0783 24.9062 55.0783H28.4844C29.0367 55.0783 29.4844 54.6306 29.4844 54.0783V36.0627ZM38.6719 53.3767C38.6719 53.7501 38.8783 54.0966 39.2215 54.2438C39.992 54.5741 40.8792 54.8286 41.8437 55.0127C43.0469 55.2424 44.3594 55.3518 45.6719 55.3518C46.9844 55.3518 48.1875 55.2315 49.3906 54.9799C50.5937 54.7283 51.5781 54.3127 52.4531 53.7768C53.3391 53.1971 54.0937 52.4643 54.5312 51.4799C54.9687 50.4955 55.3078 49.4018 55.3078 47.9799C55.3078 46.9846 55.1547 46.1205 54.8594 45.3549C54.5641 44.5893 54.1375 43.933 53.5469 43.3862C52.9891 42.8065 52.3437 42.2924 51.5781 41.8549C50.8125 41.4174 49.9375 40.958 48.9531 40.5424C48.2312 40.2471 47.6406 39.9627 46.9844 39.6783C46.4156 39.394 45.9234 39.1096 45.5625 38.8252C45.1578 38.5299 44.8516 38.2237 44.6328 37.9065C44.4141 37.5783 44.3047 37.2174 44.3047 36.8127C44.3047 36.4408 44.402 36.1018 44.6 35.7955C44.798 35.4893 45.0703 35.2377 45.4203 35.019C45.7703 34.8002 46.2078 34.6362 46.7328 34.5158C47.2469 34.3955 47.8156 34.3408 48.4828 34.3408C48.9422 34.3408 49.4234 34.3747 49.9047 34.4437C50.4078 34.5126 50.9219 34.6187 51.4359 34.7608C51.95 34.903 52.4531 35.078 52.9672 35.2968C53.5379 35.5562 54.2797 35.1616 54.2797 34.5347V31.5996C54.2797 31.1848 54.0248 30.8096 53.6295 30.6841C52.9773 30.477 52.2796 30.3141 51.5453 30.1999C50.5609 30.0468 49.4672 29.9702 48.1547 29.9702C46.8422 29.9702 45.6391 30.1124 44.4359 30.3858C43.2328 30.6593 42.2484 31.0968 41.3734 31.6983C40.4875 32.289 39.8422 33.0108 39.2953 33.9952C38.7812 34.914 38.5297 35.964 38.5297 37.2765C38.5297 38.9171 39 40.339 39.9516 41.4327C40.8922 42.6358 42.3578 43.5108 44.2172 44.3858C44.9719 44.6921 45.6391 44.9983 46.2953 45.2937C46.9516 45.589 47.4984 45.8952 47.9359 46.2124C48.4062 46.5296 48.7781 46.8796 49.0297 47.2515C49.3031 47.6233 49.4453 48.0608 49.4453 48.564C49.4453 48.914 49.36 49.2421 49.1937 49.5483C49.0275 49.8546 48.7672 50.1171 48.4172 50.3358C48.0672 50.5546 47.6406 50.7296 47.1047 50.8608C46.5906 50.9812 46.0109 51.0468 45.2453 51.0468C44.0422 51.0468 42.8391 50.839 41.7453 50.4233C41.3016 50.2701 40.8728 50.0885 40.4693 49.8879C39.7094 49.5099 38.6719 50.0263 38.6719 50.875V53.3767Z" fill="white"/>
</g>
<defs>
<clipPath id="clip0_5225_9725">
<rect width="56" height="56" fill="white" transform="translate(4 4)"/>
</clipPath>
</defs>
</svg>
