<svg width="64" height="64" viewBox="0 0 64 64" fill="none" xmlns="http://www.w3.org/2000/svg">
<g clip-path="url(#clip0_5291_6335)">
<path d="M32 60C47.464 60 60 47.464 60 32C60 16.536 47.464 4 32 4C16.536 4 4 16.536 4 32C4 47.464 16.536 60 32 60Z" fill="#88C9F9"/>
<path d="M50.869 40.9412C49.287 40.3346 49.5686 40.5555 48.5933 38.4819C47.6179 36.4099 47.0268 35.7426 44.8335 35.4999C42.6386 35.2588 42.721 35.4299 42.1113 34.3332C41.5015 33.235 39.0282 34.6304 37.4446 35.2417C35.8564 35.8515 36.2484 37.1799 35.7599 37.0555C34.6868 36.8067 33.6815 36.325 32.8153 35.6446C31.5957 34.6677 33.7222 33.9055 34.3335 33.2972C34.9448 32.6859 33.1824 33.0188 32.571 32.6501C31.9597 32.2861 30.8661 33.3828 29.8908 32.4044C28.9139 31.429 29.5253 29.9652 29.4039 28.7457C29.281 27.5246 30.9875 27.2819 32.0857 27.0377C33.1824 26.795 34.0348 27.0392 34.0348 28.5015C34.0348 29.9652 35.3773 30.4537 35.0117 28.7441C34.6462 27.0346 35.3773 26.5492 35.8673 25.6952C36.3542 24.8412 37.2081 23.6201 38.3048 21.7908C39.403 19.9615 40.1357 20.8139 41.4766 20.9446C42.819 21.0768 43.1846 20.8155 44.1599 20.9384C45.1321 21.0612 44.1599 19.7188 44.527 18.3779C44.891 17.037 46.2335 17.2797 47.5775 17.6468C48.9184 18.0124 46.2335 15.9372 45.7466 14.8406C45.2566 13.7424 43.9157 14.8406 43.0648 13.0112C42.2046 11.1819 41.0053 9.99814 39.907 9.8348C38.8088 9.66991 40.257 12.1588 39.403 13.4997C38.5459 14.8406 37.233 14.6306 35.8875 14.6306C34.5482 14.6306 33.3037 13.4997 34.2806 11.7917C35.2544 10.0852 37.1164 10.261 38.0917 8.79725C39.0686 7.33503 34.6228 7.4688 33.0362 6.98192C31.4495 6.49347 29.5455 6.49814 27.9604 7.71769C26.3737 8.93569 22.981 9.3168 21.6386 9.80369C20.2977 10.2906 20.0566 8.9948 19.8139 8.01792C19.705 7.58392 19.2104 7.44703 18.5135 7.46258C15.0725 9.36968 12.0699 11.9775 9.69971 15.1175C10.0684 16.3728 11.8542 14.8235 12.2042 14.4735C12.5697 14.1079 14.399 14.5964 14.6417 15.9372C14.8859 17.2781 14.7646 18.745 14.2777 19.9646C13.7893 21.1826 15.4973 22.8906 16.4726 24.5986C17.4495 26.3081 18.5462 26.3066 19.0346 26.3066C19.5215 26.3066 22.3277 27.4048 22.2048 28.7457C22.0835 30.0881 24.7668 31.3061 25.865 32.1601C26.9633 33.0172 27.657 33.8588 29.0819 34.1046C30.5084 34.3504 32.1759 36.6821 32.907 36.9279C33.4686 37.1146 34.419 38.0121 34.993 38.2906C34.2386 39.2457 32.7779 41.2072 32.7779 42.111C32.7779 43.3337 34.3724 45.2548 34.9822 45.7417C35.5904 46.227 37.3419 46.5972 37.7044 47.8152C38.0715 49.0348 37.4493 53.1399 36.3542 54.2366C35.2528 55.3332 34.853 57.9264 34.853 57.9264C34.853 57.9264 35.2404 58.7679 36.5377 57.9264C37.9719 56.9977 40.3737 54.3532 41.3335 53.7777C43.239 52.6251 45.0203 51.2786 46.6488 49.7597C48.3568 48.1746 47.7377 47.0639 48.5933 45.4819C49.4473 43.8968 50.5517 43.9684 52.0139 42.6306C53.4793 41.2866 52.4557 41.5526 50.869 40.9412Z" fill="#5C913B"/>
</g>
<defs>
<clipPath id="clip0_5291_6335">
<rect width="56" height="56" fill="white" transform="translate(4 4)"/>
</clipPath>
</defs>
</svg>
