<svg width="1200" height="630" viewBox="0 0 1200 630" fill="none" xmlns="http://www.w3.org/2000/svg">
<rect width="1200" height="630" fill="#030712"/>
<path d="M202.313 414.091C191.372 404.102 188.179 383.114 192.737 367.91C200.64 377.496 211.591 380.534 222.934 382.246C240.446 384.892 257.643 383.903 273.91 375.909C275.771 374.995 277.491 373.776 279.524 372.544C281.051 376.966 281.448 381.431 280.915 385.976C279.618 397.044 274.104 405.594 265.332 412.074C261.825 414.667 258.114 416.984 254.491 419.43C243.362 426.94 240.352 435.749 244.533 448.563C244.633 448.875 244.721 449.187 244.946 449.949C239.264 447.41 235.114 443.711 231.951 438.85C228.611 433.717 227.022 428.04 226.939 421.899C226.897 418.909 226.897 415.893 226.494 412.947C225.511 405.764 222.135 402.547 215.773 402.36C209.244 402.172 204.08 406.201 202.71 412.551C202.606 413.037 202.454 413.518 202.303 414.084L202.313 414.091Z" fill="white"/>
<path d="M202.313 414.091C191.372 404.102 188.179 383.114 192.737 367.91C200.64 377.496 211.591 380.534 222.934 382.246C240.446 384.892 257.643 383.903 273.91 375.909C275.771 374.995 277.491 373.776 279.524 372.544C281.051 376.966 281.448 381.431 280.915 385.976C279.618 397.044 274.104 405.594 265.332 412.074C261.825 414.667 258.114 416.984 254.491 419.43C243.362 426.94 240.352 435.749 244.533 448.563C244.633 448.875 244.721 449.187 244.946 449.949C239.264 447.41 235.114 443.711 231.951 438.85C228.611 433.717 227.022 428.04 226.939 421.899C226.897 418.909 226.897 415.893 226.494 412.947C225.511 405.764 222.135 402.547 215.773 402.36C209.244 402.172 204.08 406.201 202.71 412.551C202.606 413.037 202.454 413.518 202.303 414.084L202.313 414.091Z" fill="url(#paint0_linear_1057_17221)"/>
<path d="M139.869 365.375C139.869 365.375 172.266 349.614 204.753 349.614L229.248 273.902C230.165 270.24 232.842 267.752 235.865 267.752C238.888 267.752 241.566 270.24 242.483 273.902L266.977 349.614C305.453 349.614 331.862 365.375 331.862 365.375C331.862 365.375 276.833 215.652 276.725 215.352C275.146 210.925 272.479 208.074 268.885 208.074H202.851C199.257 208.074 196.698 210.925 195.011 215.352C194.892 215.647 139.869 365.375 139.869 365.375Z" fill="white"/>
<path d="M481.438 317.217C481.438 330.484 464.915 338.408 442.036 338.408C427.145 338.408 421.88 334.722 421.88 326.983C421.88 318.875 428.417 315.005 443.305 315.005C456.744 315.005 468.182 315.19 481.438 316.848V317.217ZM481.62 300.817C473.449 298.974 461.1 297.868 446.393 297.868C403.54 297.868 383.387 308.003 383.387 331.59C383.387 356.098 397.186 365.496 429.143 365.496C456.199 365.496 474.536 358.677 481.256 341.909H482.344C482.162 345.963 481.983 350.017 481.983 353.149C481.983 361.81 483.434 362.547 490.515 362.547H523.925C522.109 357.388 521.021 342.83 521.021 330.3C521.021 316.848 521.564 306.713 521.564 293.077C521.564 265.253 504.861 247.562 452.566 247.562C430.051 247.562 404.993 251.432 385.93 257.145C387.743 264.7 390.286 279.994 391.558 289.945C408.081 282.205 431.504 278.888 449.662 278.888C474.718 278.888 481.62 284.601 481.62 296.21V300.817Z" fill="white"/>
<path d="M573.291 324.955C568.753 325.508 562.577 325.508 556.223 325.508C549.505 325.508 543.332 325.324 539.154 324.771C539.154 326.245 538.973 327.903 538.973 329.378C538.973 352.411 554.046 365.863 607.065 365.863C656.996 365.863 673.156 352.596 673.156 329.193C673.156 307.081 662.445 296.209 615.054 293.814C578.193 292.155 574.926 288.101 574.926 283.494C574.926 278.151 579.646 275.387 604.34 275.387C629.943 275.387 636.842 278.888 636.842 286.259V287.917C640.475 287.733 647.011 287.549 653.729 287.549C660.084 287.549 666.983 287.733 670.979 288.101C670.979 286.443 671.161 284.969 671.161 283.679C671.161 256.591 648.644 247.746 605.067 247.746C556.041 247.746 539.518 259.724 539.518 283.126C539.518 304.133 552.774 317.216 599.802 319.243C634.481 320.349 638.295 324.218 638.295 329.562C638.295 335.274 632.667 337.854 608.336 337.854C580.372 337.854 573.291 333.984 573.291 326.061V324.955Z" fill="white"/>
<path d="M733.088 227.844C719.833 240.19 696.047 252.536 682.793 255.853C682.975 262.671 682.975 275.201 682.975 282.019L695.139 282.203C694.957 295.287 694.776 311.134 694.776 321.637C694.776 346.145 707.667 364.572 747.795 364.572C764.682 364.572 775.94 362.729 789.921 359.781C788.468 350.752 786.833 336.932 786.288 326.428C777.938 329.192 767.406 330.666 755.784 330.666C739.624 330.666 733.088 326.244 733.088 313.529C733.088 302.473 733.088 292.154 733.269 282.572C753.97 282.756 774.669 283.125 786.833 283.493C786.652 273.911 787.015 260.091 787.56 250.878C769.949 251.246 750.156 251.43 733.814 251.43C733.996 243.323 734.177 235.583 734.359 227.844H733.088Z" fill="white"/>
<path d="M841.535 276.493C841.717 266.911 841.898 258.803 842.08 250.879H805.582C806.127 266.727 806.127 282.943 806.127 306.713C806.127 330.484 805.945 346.884 805.582 362.547H847.345C846.618 351.491 846.437 332.88 846.437 317.032C846.437 291.972 856.606 284.785 879.665 284.785C890.379 284.785 898.005 286.075 904.723 288.471C904.905 279.073 906.721 260.83 907.808 252.722C900.909 250.695 893.283 249.405 884.022 249.405C864.232 249.221 849.706 257.329 842.988 276.677L841.535 276.493Z" fill="white"/>
<path d="M1023.34 305.973C1023.34 326.059 1008.81 335.457 985.937 335.457C963.24 335.457 948.714 326.612 948.714 305.973C948.714 285.335 963.422 277.596 985.937 277.596C1008.63 277.596 1023.34 285.888 1023.34 305.973ZM1061.29 305.052C1061.29 265.065 1030.06 247.191 985.937 247.191C941.633 247.191 911.492 265.065 911.492 305.052C911.492 344.854 939.635 366.231 985.755 366.231C1032.24 366.231 1061.29 344.854 1061.29 305.052Z" fill="white"/>
<defs>
<linearGradient id="paint0_linear_1057_17221" x1="190.727" y1="449.949" x2="296.32" y2="399.998" gradientUnits="userSpaceOnUse">
<stop stop-color="#D83333"/>
<stop offset="1" stop-color="#F041FF"/>
</linearGradient>
</defs>
</svg>
