<svg width="640" height="320" viewBox="0 0 640 320" fill="none" xmlns="http://www.w3.org/2000/svg">
<path d="M0 32C0 14.3269 14.3269 0 32 0H608C625.673 0 640 14.3269 640 32V288C640 305.673 625.673 320 608 320H32C14.3269 320 0 305.673 0 288V32Z" fill="#030712"/>
<path d="M103.065 206.431C97.0964 200.98 95.3545 189.526 97.8411 181.229C102.152 186.46 108.127 188.118 114.315 189.052C123.868 190.496 133.25 189.956 142.124 185.594C143.139 185.095 144.077 184.43 145.186 183.757C146.019 186.171 146.236 188.607 145.945 191.088C145.238 197.128 142.23 201.794 137.444 205.33C135.531 206.746 133.506 208.01 131.53 209.345C125.459 213.443 123.817 218.251 126.098 225.244C126.152 225.414 126.2 225.584 126.323 226C123.223 224.615 120.959 222.596 119.234 219.943C117.412 217.142 116.545 214.044 116.499 210.692C116.477 209.061 116.477 207.415 116.257 205.807C115.72 201.887 113.879 200.131 110.408 200.029C106.846 199.927 104.029 202.125 103.282 205.591C103.225 205.856 103.142 206.118 103.06 206.427L103.065 206.431Z" fill="white"/>
<path d="M103.065 206.431C97.0964 200.98 95.3545 189.526 97.8411 181.229C102.152 186.46 108.127 188.118 114.315 189.052C123.868 190.496 133.25 189.956 142.124 185.594C143.139 185.095 144.077 184.43 145.186 183.757C146.019 186.171 146.236 188.607 145.945 191.088C145.238 197.128 142.23 201.794 137.444 205.33C135.531 206.746 133.506 208.01 131.53 209.345C125.459 213.443 123.817 218.251 126.098 225.244C126.152 225.414 126.2 225.584 126.323 226C123.223 224.615 120.959 222.596 119.234 219.943C117.412 217.142 116.545 214.044 116.499 210.692C116.477 209.061 116.477 207.415 116.257 205.807C115.72 201.887 113.879 200.131 110.408 200.029C106.846 199.927 104.029 202.125 103.282 205.591C103.225 205.856 103.142 206.118 103.06 206.427L103.065 206.431Z" fill="url(#paint0_linear_5267_6545)"/>
<path d="M69 179.845C69 179.845 86.6737 171.244 104.396 171.244L117.759 129.925C118.26 127.926 119.72 126.568 121.369 126.568C123.018 126.568 124.479 127.926 124.979 129.925L138.342 171.244C159.332 171.244 173.739 179.845 173.739 179.845C173.739 179.845 143.719 98.1356 143.66 97.9719C142.798 95.5559 141.343 94 139.383 94H103.359C101.398 94 100.002 95.5559 99.0818 97.9719C99.0169 98.1329 69 179.845 69 179.845Z" fill="white"/>
<path d="M255.338 153.563C255.338 160.804 246.324 165.128 233.842 165.128C225.719 165.128 222.847 163.116 222.847 158.893C222.847 154.468 226.413 152.356 234.535 152.356C241.866 152.356 248.106 152.457 255.338 153.362V153.563ZM255.437 144.613C250.979 143.607 244.243 143.004 236.219 143.004C212.842 143.004 201.847 148.535 201.847 161.407C201.847 174.782 209.375 179.911 226.809 179.911C241.569 179.911 251.572 176.19 255.238 167.039H255.832C255.733 169.251 255.635 171.463 255.635 173.173C255.635 177.899 256.426 178.302 260.289 178.302H278.516C277.525 175.486 276.931 167.541 276.931 160.703C276.931 153.362 277.228 147.831 277.228 140.389C277.228 125.205 268.116 115.55 239.587 115.55C227.304 115.55 213.634 117.662 203.235 120.78C204.224 124.903 205.611 133.249 206.305 138.68C215.319 134.456 228.097 132.646 238.003 132.646C251.672 132.646 255.437 135.764 255.437 142.099V144.613Z" fill="white"/>
<path d="M305.446 157.786C302.971 158.088 299.602 158.088 296.135 158.088C292.47 158.088 289.103 157.988 286.824 157.686C286.824 158.49 286.725 159.395 286.725 160.2C286.725 172.77 294.948 180.111 323.871 180.111C351.11 180.111 359.926 172.871 359.926 160.099C359.926 148.032 354.083 142.098 328.23 140.791C308.121 139.886 306.338 137.674 306.338 135.159C306.338 132.244 308.913 130.735 322.385 130.735C336.352 130.735 340.116 132.646 340.116 136.668V137.573C342.098 137.473 345.663 137.372 349.328 137.372C352.795 137.372 356.559 137.473 358.739 137.674C358.739 136.769 358.838 135.964 358.838 135.26C358.838 120.477 346.554 115.65 322.781 115.65C296.036 115.65 287.022 122.187 287.022 134.959C287.022 146.423 294.254 153.563 319.909 154.669C338.828 155.273 340.908 157.384 340.908 160.3C340.908 163.418 337.838 164.826 324.565 164.826C309.309 164.826 305.446 162.714 305.446 158.39V157.786Z" fill="white"/>
<path d="M392.621 104.789C385.39 111.527 372.414 118.264 365.184 120.075C365.283 123.795 365.283 130.634 365.283 134.354L371.919 134.455C371.819 141.595 371.721 150.243 371.721 155.975C371.721 169.35 378.753 179.407 400.644 179.407C409.857 179.407 415.998 178.401 423.626 176.792C422.833 171.864 421.941 164.322 421.644 158.59C417.088 160.098 411.343 160.903 405.003 160.903C396.187 160.903 392.621 158.49 392.621 151.551C392.621 145.517 392.621 139.885 392.72 134.656C404.013 134.757 415.305 134.958 421.941 135.159C421.842 129.93 422.04 122.387 422.338 117.36C412.73 117.56 401.932 117.661 393.017 117.661C393.117 113.237 393.215 109.013 393.315 104.789H392.621Z" fill="white"/>
<path d="M451.783 131.339C451.882 126.109 451.981 121.684 452.08 117.36H432.169C432.467 126.009 432.467 134.859 432.467 147.831C432.467 160.803 432.367 169.753 432.169 178.301H454.952C454.556 172.268 454.457 162.111 454.457 153.462C454.457 139.786 460.005 135.864 472.584 135.864C478.429 135.864 482.589 136.568 486.254 137.875C486.353 132.747 487.344 122.791 487.937 118.366C484.173 117.26 480.013 116.556 474.961 116.556C464.165 116.455 456.24 120.88 452.575 131.439L451.783 131.339Z" fill="white"/>
<path d="M550.963 147.427C550.963 158.389 543.037 163.518 530.559 163.518C518.177 163.518 510.252 158.691 510.252 147.427C510.252 136.164 518.276 131.941 530.559 131.941C542.939 131.941 550.963 136.466 550.963 147.427ZM571.666 146.925C571.666 125.102 554.629 115.348 530.559 115.348C506.389 115.348 489.947 125.102 489.947 146.925C489.947 168.646 505.3 180.312 530.46 180.312C555.819 180.312 571.666 168.646 571.666 146.925Z" fill="white"/>
<defs>
<linearGradient id="paint0_linear_5267_6545" x1="96.7446" y1="226" x2="154.357" y2="198.757" gradientUnits="userSpaceOnUse">
<stop stop-color="#D83333"/>
<stop offset="1" stop-color="#F041FF"/>
</linearGradient>
</defs>
</svg>
