<svg width="640" height="220" viewBox="0 0 640 220" fill="none" xmlns="http://www.w3.org/2000/svg">
<path d="M0 32C0 14.3269 14.3269 0 32 0H608C625.673 0 640 14.3269 640 32V188C640 205.673 625.673 220 608 220H32C14.3269 220 0 205.673 0 188V32Z" fill="#030712"/>
<path d="M103.065 156.431C97.0964 150.98 95.3545 139.526 97.8411 131.229C102.152 136.46 108.127 138.118 114.315 139.052C123.868 140.496 133.25 139.956 142.124 135.594C143.139 135.095 144.077 134.43 145.186 133.757C146.019 136.171 146.236 138.607 145.945 141.088C145.238 147.128 142.23 151.794 137.444 155.33C135.531 156.746 133.506 158.01 131.53 159.345C125.459 163.443 123.817 168.251 126.098 175.244C126.152 175.414 126.2 175.584 126.323 176C123.223 174.615 120.959 172.596 119.234 169.943C117.412 167.142 116.545 164.044 116.499 160.692C116.477 159.061 116.477 157.415 116.257 155.807C115.72 151.887 113.879 150.131 110.408 150.029C106.846 149.927 104.029 152.125 103.282 155.591C103.225 155.856 103.142 156.118 103.06 156.427L103.065 156.431Z" fill="white"/>
<path d="M103.065 156.431C97.0964 150.98 95.3545 139.526 97.8411 131.229C102.152 136.46 108.127 138.118 114.315 139.052C123.868 140.496 133.25 139.956 142.124 135.594C143.139 135.095 144.077 134.43 145.186 133.757C146.019 136.171 146.236 138.607 145.945 141.088C145.238 147.128 142.23 151.794 137.444 155.33C135.531 156.746 133.506 158.01 131.53 159.345C125.459 163.443 123.817 168.251 126.098 175.244C126.152 175.414 126.2 175.584 126.323 176C123.223 174.615 120.959 172.596 119.234 169.943C117.412 167.142 116.545 164.044 116.499 160.692C116.477 159.061 116.477 157.415 116.257 155.807C115.72 151.887 113.879 150.131 110.408 150.029C106.846 149.927 104.029 152.125 103.282 155.591C103.225 155.856 103.142 156.118 103.06 156.427L103.065 156.431Z" fill="url(#paint0_linear_5267_6545)"/>
<path d="M69 129.845C69 129.845 86.6737 121.244 104.396 121.244L117.759 79.9248C118.26 77.9263 119.72 76.5685 121.369 76.5685C123.018 76.5685 124.479 77.9263 124.979 79.9248L138.342 121.244C159.332 121.244 173.739 129.845 173.739 129.845C173.739 129.845 143.719 48.1356 143.66 47.9719C142.798 45.5559 141.343 44 139.383 44H103.359C101.398 44 100.002 45.5559 99.0818 47.9719C99.0169 48.1329 69 129.845 69 129.845Z" fill="white"/>
<path d="M255.338 103.563C255.338 110.804 246.324 115.128 233.842 115.128C225.719 115.128 222.847 113.116 222.847 108.893C222.847 104.468 226.413 102.356 234.535 102.356C241.866 102.356 248.106 102.457 255.338 103.362V103.563ZM255.437 94.6132C250.979 93.6075 244.243 93.0039 236.219 93.0039C212.842 93.0039 201.847 98.5349 201.847 111.407C201.847 124.782 209.375 129.911 226.809 129.911C241.569 129.911 251.572 126.19 255.238 117.039H255.832C255.733 119.251 255.635 121.463 255.635 123.173C255.635 127.899 256.426 128.302 260.289 128.302H278.516C277.525 125.486 276.931 117.541 276.931 110.703C276.931 103.362 277.228 97.8309 277.228 90.3892C277.228 75.2047 268.116 65.55 239.587 65.55C227.304 65.55 213.634 67.662 203.235 70.7798C204.224 74.9029 205.611 83.2494 206.305 88.68C215.319 84.456 228.097 82.6458 238.003 82.6458C251.672 82.6458 255.437 85.7636 255.437 92.099V94.6132Z" fill="white"/>
<path d="M305.446 107.786C302.971 108.088 299.602 108.088 296.135 108.088C292.47 108.088 289.103 107.988 286.824 107.686C286.824 108.49 286.725 109.395 286.725 110.2C286.725 122.77 294.948 130.111 323.871 130.111C351.11 130.111 359.926 122.871 359.926 110.099C359.926 98.0317 354.083 92.0984 328.23 90.7914C308.121 89.886 306.338 87.6736 306.338 85.1594C306.338 82.2435 308.913 80.7351 322.385 80.7351C336.352 80.7351 340.116 82.6457 340.116 86.6683V87.5732C342.098 87.4728 345.663 87.3723 349.328 87.3723C352.795 87.3723 356.559 87.4728 358.739 87.6736C358.739 86.7688 358.838 85.9643 358.838 85.2603C358.838 70.4774 346.554 65.6504 322.781 65.6504C296.036 65.6504 287.022 72.1872 287.022 84.9586C287.022 96.4228 294.254 103.563 319.909 104.669C338.828 105.273 340.908 107.384 340.908 110.3C340.908 113.418 337.838 114.826 324.565 114.826C309.309 114.826 305.446 112.714 305.446 108.39V107.786Z" fill="white"/>
<path d="M392.621 54.7891C385.39 61.5267 372.414 68.2644 365.184 70.0746C365.283 73.7954 365.283 80.6335 365.283 84.3544L371.919 84.4548C371.819 91.5952 371.721 100.243 371.721 105.975C371.721 119.35 378.753 129.407 400.644 129.407C409.857 129.407 415.998 128.401 423.626 126.792C422.833 121.864 421.941 114.322 421.644 108.59C417.088 110.098 411.343 110.903 405.003 110.903C396.187 110.903 392.621 108.49 392.621 101.551C392.621 95.5168 392.621 89.8854 392.72 84.6561C404.013 84.7565 415.305 84.9579 421.941 85.1588C421.842 79.9295 422.04 72.3874 422.338 67.3596C412.73 67.5604 401.932 67.6608 393.017 67.6608C393.117 63.2365 393.215 59.0125 393.315 54.7891H392.621Z" fill="white"/>
<path d="M451.783 81.3385C451.882 76.1093 451.981 71.6845 452.08 67.36H432.169C432.467 76.0089 432.467 84.8585 432.467 97.8307C432.467 110.803 432.367 119.753 432.169 128.301H454.952C454.556 122.268 454.457 112.111 454.457 103.462C454.457 89.786 460.005 85.8638 472.584 85.8638C478.429 85.8638 482.589 86.5678 486.254 87.8754C486.353 82.7465 487.344 72.7907 487.937 68.3658C484.173 67.2596 480.013 66.5556 474.961 66.5556C464.165 66.4552 456.24 70.88 452.575 81.439L451.783 81.3385Z" fill="white"/>
<path d="M550.963 97.4271C550.963 108.389 543.037 113.518 530.559 113.518C518.177 113.518 510.252 108.691 510.252 97.4271C510.252 86.1642 518.276 81.9408 530.559 81.9408C542.939 81.9408 550.963 86.466 550.963 97.4271ZM571.666 96.9245C571.666 75.1022 554.629 65.3477 530.559 65.3477C506.389 65.3477 489.947 75.1022 489.947 96.9245C489.947 118.646 505.3 130.312 530.46 130.312C555.819 130.312 571.666 118.646 571.666 96.9245Z" fill="white"/>
<defs>
<linearGradient id="paint0_linear_5267_6545" x1="96.7446" y1="176" x2="154.357" y2="148.757" gradientUnits="userSpaceOnUse">
<stop stop-color="#D83333"/>
<stop offset="1" stop-color="#F041FF"/>
</linearGradient>
</defs>
</svg>
