<svg xmlns="http://www.w3.org/2000/svg" width="512" height="512" fill="none"><path fill="url(#a)" d="M439 374c-50 77-131 98-163 96-191-9-162-262-47-261-82 52 30 224 195 157 17-12 20 3 15 8Z"/><path fill="url(#b)" d="M311 255c18-82-31-135-129-135S38 212 38 259c0 124 125 253 287 203-134 39-214-116-146-210 46-66 123-68 132 3ZM411 99h1Z"/><path fill="url(#c)" d="M39 253C51-15 419-30 472 202c14 107-86 149-166 115-42-26 26-20-3-99-48-112-251-103-264 35Z"/><defs><radialGradient id="a" cx="0" cy="0" r="1" gradientTransform="matrix(151.768 0 0 130.565 319.772 339.562)" gradientUnits="userSpaceOnUse"><stop offset=".8" stop-color="#148"/><stop offset="1" stop-color="#137"/></radialGradient><radialGradient id="b" cx="0" cy="0" r="1" gradientTransform="matrix(187 0 0 187.02 225 323.424)" gradientUnits="userSpaceOnUse"><stop offset=".8" stop-color="#38C"/><stop offset="1" stop-color="#269"/></radialGradient><linearGradient id="c" x1="39" x2="386.287" y1="183.859" y2="444.502" gradientUnits="userSpaceOnUse"><stop offset=".1" stop-color="#5AD"/><stop offset=".6" stop-color="#5C8"/><stop offset=".8" stop-color="#7D5"/></linearGradient></defs></svg>