<svg width="64" height="64" viewBox="0 0 64 64" fill="none" xmlns="http://www.w3.org/2000/svg">
<path fill-rule="evenodd" clip-rule="evenodd" d="M34.0926 1.2002C36.8636 1.2002 39.2444 3.10814 39.7657 5.74678L39.9974 6.92011C40.9086 11.532 45.8289 14.2862 50.4041 12.7453L51.5686 12.3531C54.1862 11.4716 57.0809 12.5165 58.4662 14.843L60.559 18.3572C61.9446 20.6839 61.4305 23.6367 59.3342 25.3937L58.402 26.175C54.7377 29.2461 54.7377 34.7544 58.402 37.8253L59.3342 38.6066C61.4305 40.3637 61.9446 43.3165 60.559 45.6432L58.4665 49.1573C57.0809 51.484 54.1862 52.5288 51.5684 51.6472L50.4044 51.2549C45.8289 49.7138 40.9086 52.468 39.9974 57.0802L39.7657 58.2536C39.2444 60.8922 36.8636 62.8002 34.0926 62.8002H29.907C27.1361 62.8002 24.7553 60.8922 24.234 58.2538L24.002 57.0797C23.0907 52.468 18.1704 49.7138 13.5951 51.2549L12.4313 51.6469C9.8136 52.5288 6.9189 51.4837 5.5333 49.157L3.44064 45.6432C2.05509 43.3165 2.56903 40.3637 4.66533 38.6066L5.59776 37.8253C9.26181 34.7541 9.26181 29.2461 5.59776 26.1752L4.66533 25.3937C2.56903 23.6367 2.05509 20.6839 3.44064 18.3573L5.53338 14.8431C6.91893 12.5165 9.81354 11.4716 12.4312 12.3532L13.5953 12.7453C18.1705 14.2862 23.0907 11.5322 24.002 6.9204L24.234 5.74656C24.7553 3.10803 27.1358 1.2002 29.907 1.2002H34.0926ZM31.9998 40.8002C36.8598 40.8002 40.7998 36.8602 40.7998 32.0002C40.7998 27.14 36.8598 23.2002 31.9998 23.2002C27.1396 23.2002 23.1998 27.14 23.1998 32.0002C23.1998 36.8602 27.1396 40.8002 31.9998 40.8002Z" fill="url(#paint0_linear_5272_9711)"/>
<defs>
<linearGradient id="paint0_linear_5272_9711" x1="2.6665" y1="32.2531" x2="61.3331" y2="32.2531" gradientUnits="userSpaceOnUse">
<stop stop-color="#3059E4"/>
<stop offset="0.5" stop-color="#34D1F9"/>
<stop offset="1" stop-color="#00D490"/>
</linearGradient>
</defs>
</svg>
