<svg width="64" height="64" viewBox="0 0 64 64" fill="none" xmlns="http://www.w3.org/2000/svg">
<g clip-path="url(#clip0_5273_9726)">
<path d="M31.999 0.000976562C14.3283 0.000976562 0 14.3282 0 32C0 49.6717 14.3283 63.999 31.999 63.999C49.6739 63.999 64 49.6719 64 32C64 14.3281 49.6739 0.000976562 31.999 0.000976562ZM37.6177 46.691C36.3234 48.1275 35.5815 48.9812 34.1844 50.3169C32.0696 52.339 29.6684 52.8774 27.8015 50.8814C25.1181 48.0115 27.9325 39.2809 28.0011 38.9502C28.5051 36.6297 29.5111 31.9919 29.5111 31.9919C29.5111 31.9919 27.3378 33.3224 26.0475 33.7942C25.0959 34.142 24.0194 33.6854 23.7533 32.765C23.5053 31.9122 23.7028 31.3699 24.225 30.7872C25.5193 29.3517 26.2611 28.498 27.6584 27.1624C29.7751 25.1392 32.1744 24.602 34.0412 26.5969C36.7246 29.4667 34.7448 34.1884 34.0493 37.534C33.9808 37.8656 32.3315 45.4874 32.3315 45.4874C32.3315 45.4874 34.5049 44.1567 35.7951 43.684C36.7486 43.3372 37.8252 43.7949 38.0914 44.7142C38.3395 45.5671 38.14 46.1094 37.6177 46.691ZM34.1461 22.0154C31.1604 22.2774 28.5294 20.0699 28.2673 17.082C28.0073 14.0972 30.2148 11.4652 33.2006 11.2052C36.1844 10.9431 38.8174 13.1527 39.0775 16.1375C39.3395 19.1224 37.1299 21.7554 34.1461 22.0154Z" fill="url(#paint0_linear_5273_9726)"/>
</g>
<defs>
<linearGradient id="paint0_linear_5273_9726" x1="-4.92865e-08" y1="32.2627" x2="64" y2="32.2627" gradientUnits="userSpaceOnUse">
<stop stop-color="#3059E4"/>
<stop offset="0.5" stop-color="#34D1F9"/>
<stop offset="1" stop-color="#00D490"/>
</linearGradient>
<clipPath id="clip0_5273_9726">
<rect width="64" height="64" fill="white"/>
</clipPath>
</defs>
</svg>
