<svg xmlns="http://www.w3.org/2000/svg" width="800" height="800" fill="none" viewBox="0 0 32 32"><path fill="url(#a)" d="M11.395 23.886c-1.553-1.827-2.548-4.528-2.614-7.558v-.656c.066-3.03 1.072-5.731 2.614-7.558 2.013-2.603 4.966-3.773 8.302-3.773 2.056 0 3.992.142 5.633 1.236A13.853 13.853 0 0 0 16.055 2H16C8.267 2 2 8.267 2 16c0 7.503 5.906 13.64 13.333 13.99.219.01.448.01.667.01a13.91 13.91 0 0 0 9.33-3.566c-1.64 1.094-3.467 1.138-5.524 1.138-3.325.01-6.41-1.072-8.41-3.686Z"/><path fill="url(#b)" d="M11.396 8.114c1.28-1.52 2.942-2.428 4.757-2.428 4.08 0 7.383 4.616 7.383 10.325 0 5.71-3.303 10.325-7.383 10.325-1.815 0-3.467-.919-4.757-2.428 2.012 2.603 4.998 4.266 8.323 4.266 2.045 0 3.97-.624 5.61-1.718C28.196 23.876 30 20.146 30 16c0-4.145-1.805-7.875-4.67-10.434a10.049 10.049 0 0 0-5.611-1.717c-3.336 0-6.322 1.651-8.324 4.265Z"/><defs><linearGradient id="a" x1="13.665" x2="13.665" y1="2.456" y2="29.593" gradientUnits="userSpaceOnUse"><stop offset=".3" stop-color="#FF1B2D"/><stop offset=".438" stop-color="#FA1A2C"/><stop offset=".594" stop-color="#ED1528"/><stop offset=".758" stop-color="#D60E21"/><stop offset=".927" stop-color="#B70519"/><stop offset="1" stop-color="#A70014"/></linearGradient><linearGradient id="b" x1="20.696" x2="20.696" y1="4.056" y2="28.057" gradientUnits="userSpaceOnUse"><stop stop-color="#9C0000"/><stop offset=".7" stop-color="#FF4B4B"/></linearGradient></defs></svg>