<svg width="64" height="64" viewBox="0 0 64 64" fill="none" xmlns="http://www.w3.org/2000/svg">
<path d="M33.44 28.4531L32.4472 28.9495C32.1657 29.0903 31.8343 29.0903 31.5528 28.9495L30.56 28.4531L10.9116 18.6289C10.1945 18.2704 10.1697 17.256 10.8685 16.8629L30.56 5.78647C30.9654 5.55242 31.4252 5.4292 31.8933 5.4292C32.3614 5.4292 32.8213 5.55242 33.2267 5.78647L52.9181 16.8629C53.6169 17.256 53.5922 18.2704 52.8751 18.6289L44.1536 22.9897C43.9991 23.0669 43.8149 23.0207 43.6533 22.9598V22.9598L32.9867 17.6265C32.3651 17.3676 31.6686 17.3535 31.037 17.5869C30.4055 17.8204 29.8856 18.2841 29.5818 18.885C29.278 19.4858 29.2127 20.1794 29.3991 20.8264C29.5855 21.4734 30.0097 22.026 30.5867 22.3731L36.2298 25.2049C36.958 25.5703 36.967 26.6067 36.2451 26.9846L33.44 28.4531ZM9.45652 20.9071C8.79106 20.5657 8 21.0489 8 21.7969V44.1598C8.00081 44.6323 8.12717 45.0961 8.36613 45.5038C8.6051 45.9114 8.94809 46.2483 9.36 46.4798L29.2039 57.6172C29.8705 57.9913 30.6933 57.5095 30.6933 56.7451V32.4045C30.6933 32.0257 30.4793 31.6795 30.1405 31.5101L29.36 31.1198L9.45652 20.9071ZM56.0214 20.0798C56.0214 20.1344 55.9739 20.1728 55.9251 20.1973L45.8861 25.2167C45.5473 25.3861 45.3333 25.7324 45.3333 26.1112V37.3331C45.3333 38.0404 45.0524 38.7186 44.5523 39.2187C44.0522 39.7188 43.3739 39.9998 42.6667 39.9998C41.9594 39.9998 41.2811 39.7188 40.781 39.2187C40.2809 38.7186 40 38.0404 40 37.3331V29.7778C40 29.0345 39.2177 28.551 38.5528 28.8834L33.8861 31.2167C33.5473 31.3861 33.3333 31.7324 33.3333 32.1112V56.4518C33.3333 57.2162 34.1562 57.698 34.8228 57.3238L54.6667 46.1865C55.0546 45.9632 55.38 45.6458 55.613 45.2637C55.846 44.8815 55.9791 44.4469 56 43.9998V20.0836C56 20.0606 56.0214 20.0568 56.0214 20.0798V20.0798V20.0798Z" fill="url(#paint0_linear_5272_9559)"/>
<defs>
<linearGradient id="paint0_linear_5272_9559" x1="8" y1="32.1589" x2="56.0214" y2="32.1589" gradientUnits="userSpaceOnUse">
<stop stop-color="#3059E4"/>
<stop offset="0.5" stop-color="#34D1F9"/>
<stop offset="1" stop-color="#00D490"/>
</linearGradient>
</defs>
</svg>
