<svg width="64" height="64" viewBox="0 0 64 64" fill="none" xmlns="http://www.w3.org/2000/svg">
<path fill-rule="evenodd" clip-rule="evenodd" d="M7.39741 33.2839C8.18738 34.0748 8.18661 35.3564 7.39565 36.1463L6.98061 36.561C6.62605 36.9151 6.62605 37.4882 6.98061 37.8423C7.3365 38.1978 7.91453 38.1978 8.27042 37.8423L12.8361 33.282C13.627 32.4922 14.9086 32.493 15.6986 33.2839C16.4886 34.0748 16.4878 35.3564 15.6969 36.1463L11.1312 40.7063C9.19477 42.6404 6.05626 42.6404 4.11984 40.7063C2.18206 38.7711 2.18206 35.6322 4.11984 33.6967L4.5349 33.282C5.32584 32.4922 6.60741 32.493 7.39741 33.2839ZM20.4976 35.9724C21.288 36.7631 21.288 38.0447 20.4976 38.8351L14.7845 44.5482C13.994 45.3386 12.7124 45.3386 11.922 44.5482C11.1315 43.7575 11.1315 42.4762 11.922 41.6855L17.6351 35.9724C18.4255 35.182 19.7071 35.182 20.4976 35.9724ZM27.9886 43.4543C28.779 44.245 28.779 45.5266 27.9886 46.317L22.3146 51.9908C21.5242 52.7812 20.2426 52.7812 19.4521 51.9908C18.6616 51.2004 18.6616 49.9188 19.4521 49.1284L25.1262 43.4543C25.9166 42.6639 27.1982 42.6639 27.9886 43.4543ZM19.459 44.5228C20.2406 45.322 20.2264 46.6034 19.4272 47.385L14.8134 51.8972C14.0142 52.6788 12.7327 52.6644 11.9511 51.8652C11.1694 51.066 11.1837 49.7847 11.9829 49.0031L16.5967 44.4908C17.3959 43.7092 18.6774 43.7236 19.459 44.5228ZM30.6161 48.3148C31.4062 49.1058 31.4054 50.3874 30.6145 51.1775L26.0487 55.7375C25.6942 56.0916 25.6942 56.6647 26.0487 57.0188C26.4046 57.3743 26.9828 57.3743 27.3385 57.0188L27.7537 56.6042C28.5446 55.8143 29.8262 55.8151 30.6161 56.606C31.4062 57.397 31.4054 58.6786 30.6145 59.4684L30.1993 59.8831C28.263 61.817 25.1244 61.817 23.188 59.8831C21.2502 57.9476 21.2502 54.8087 23.188 52.8732L27.7537 48.3132C28.5446 47.5231 29.8262 47.5239 30.6161 48.3148Z" fill="url(#paint0_linear_5272_9526)"/>
<path d="M28.9233 14.4245L23.0895 20.2408C22.0172 21.3098 21.0335 22.2905 20.2567 23.177C19.7578 23.7463 19.2593 24.3694 18.837 25.0579L18.7802 25.0013C18.6723 24.8937 18.6183 24.8398 18.5641 24.7873C17.5501 23.8034 16.3573 23.0211 15.0497 22.4824C14.9798 22.4536 14.9089 22.4255 14.767 22.3693L13.8984 22.0251C12.7217 21.5589 12.4081 20.044 13.3035 19.1514C15.8732 16.5895 18.9585 13.5135 20.4475 12.8957C21.7606 12.3509 23.1792 12.1696 24.5473 12.3718C25.8009 12.557 26.9868 13.201 28.9233 14.4245Z" fill="url(#paint1_linear_5272_9526)"/>
<path d="M38.8846 45.0487C39.3548 45.526 39.667 45.8628 39.9492 46.2231C40.3217 46.6983 40.6548 47.2031 40.9449 47.7322C41.2716 48.3279 41.5254 48.9642 42.0326 50.237C42.4457 51.273 43.8177 51.5468 44.6148 50.7522L44.8076 50.5599C47.3772 47.998 50.4625 44.922 51.082 43.4375C51.6286 42.1284 51.8105 40.714 51.6076 39.35C51.4217 38.1004 50.7761 36.9183 49.5492 34.9879L43.6958 40.8236C42.5993 41.917 41.5937 42.9196 40.6844 43.705C40.1393 44.1756 39.543 44.646 38.8846 45.0487Z" fill="url(#paint2_linear_5272_9526)"/>
<path fill-rule="evenodd" clip-rule="evenodd" d="M41.3393 38.3132L54.7516 24.9412C56.6833 23.0154 57.6492 22.0525 58.1577 20.8281C58.6665 19.6036 58.6665 18.2419 58.6665 15.5185V14.2174C58.6665 10.0295 58.6665 7.93552 57.3614 6.63451C56.0566 5.3335 53.9564 5.3335 49.7558 5.3335H48.4508C45.719 5.3335 44.3532 5.3335 43.1252 5.84067C41.8969 6.34787 40.9313 7.31075 38.9996 9.23654L25.5871 22.6086C23.33 24.8589 21.9305 26.2542 21.3886 27.6018C21.2174 28.0276 21.1317 28.4487 21.1317 28.8906C21.1317 30.7303 22.6168 32.2111 25.5871 35.1724L25.9863 35.5703L30.6625 30.8244C31.3294 30.1476 32.4188 30.1394 33.0956 30.8063C33.7724 31.4732 33.7806 32.5626 33.1137 33.2394L28.423 37.9999L28.7374 38.3132C31.7078 41.2746 33.1929 42.7551 35.0382 42.7551C35.4462 42.7551 35.8364 42.6828 36.2286 42.5383C37.6126 42.0287 39.0252 40.6202 41.3393 38.3132ZM47.6404 22.6096C45.9004 24.3443 43.0793 24.3443 41.3396 22.6096C39.5996 20.8749 39.5996 18.0624 41.3396 16.3277C43.0793 14.593 45.9004 14.593 47.6404 16.3277C49.3804 18.0624 49.3804 20.8749 47.6404 22.6096Z" fill="url(#paint3_linear_5272_9526)"/>
<defs>
<linearGradient id="paint0_linear_5272_9526" x1="2.6665" y1="33.5634" x2="58.6665" y2="33.5634" gradientUnits="userSpaceOnUse">
<stop stop-color="#3059E4"/>
<stop offset="0.5" stop-color="#34D1F9"/>
<stop offset="1" stop-color="#00D490"/>
</linearGradient>
<linearGradient id="paint1_linear_5272_9526" x1="2.6665" y1="33.5634" x2="58.6665" y2="33.5634" gradientUnits="userSpaceOnUse">
<stop stop-color="#3059E4"/>
<stop offset="0.5" stop-color="#34D1F9"/>
<stop offset="1" stop-color="#00D490"/>
</linearGradient>
<linearGradient id="paint2_linear_5272_9526" x1="2.6665" y1="33.5634" x2="58.6665" y2="33.5634" gradientUnits="userSpaceOnUse">
<stop stop-color="#3059E4"/>
<stop offset="0.5" stop-color="#34D1F9"/>
<stop offset="1" stop-color="#00D490"/>
</linearGradient>
<linearGradient id="paint3_linear_5272_9526" x1="2.6665" y1="33.5634" x2="58.6665" y2="33.5634" gradientUnits="userSpaceOnUse">
<stop stop-color="#3059E4"/>
<stop offset="0.5" stop-color="#34D1F9"/>
<stop offset="1" stop-color="#00D490"/>
</linearGradient>
</defs>
</svg>
