<svg width="64" height="64" viewBox="0 0 64 64" fill="none" xmlns="http://www.w3.org/2000/svg">
<g clip-path="url(#clip0_5270_9510)">
<path d="M15.1358 35.2496L33.9945 16.3963L37.7652 20.167L18.9065 39.0221L15.1358 35.2496Z" fill="url(#paint0_linear_5270_9510)"/>
<path d="M15.1376 52.8496C14.4709 53.5162 13.5666 53.8906 12.6238 53.8906C11.681 53.8906 10.7768 53.5162 10.1101 52.8496L1.31006 44.0514C0.643498 43.3846 0.269043 42.4804 0.269043 41.5376C0.269043 40.5948 0.643498 39.6906 1.31006 39.0238L10.1101 30.2221C10.7768 29.5555 11.681 29.181 12.6238 29.181C13.5666 29.181 14.4709 29.5555 15.1376 30.2221L23.9376 39.0221C24.6042 39.6888 24.9786 40.593 24.9786 41.5358C24.9786 42.4786 24.6042 43.3828 23.9376 44.0496L15.1376 52.8496ZM44.0478 23.9376C43.718 24.2678 43.3262 24.5298 42.8951 24.7085C42.4639 24.8872 42.0017 24.9792 41.535 24.9792C41.0682 24.9792 40.606 24.8872 40.1748 24.7085C39.7437 24.5298 39.3519 24.2678 39.0221 23.9376L30.2221 15.1376C29.5555 14.4709 29.181 13.5666 29.181 12.6238C29.181 11.681 29.5555 10.7768 30.2221 10.1101L39.0238 1.31006C39.6906 0.643498 40.5948 0.269043 41.5376 0.269043C42.4804 0.269043 43.3846 0.643498 44.0514 1.31006L52.8496 10.1101C53.5164 10.7766 53.8912 11.6807 53.8915 12.6235C53.8919 13.5663 53.5177 14.4706 52.8514 15.1376L44.0478 23.9376Z" fill="url(#paint1_linear_5270_9510)"/>
<path d="M22.0514 18.2807L19.5376 10.7376C18.7412 8.35184 17.0221 8.22206 15.7652 9.47895L10.7376 14.5083C9.47895 15.7652 9.60873 17.4843 11.9945 18.2807L19.5376 20.7945L22.0514 18.2807Z" fill="url(#paint2_linear_5270_9510)"/>
<path d="M31.4807 39.0203C30.8137 39.6868 29.9094 40.0613 28.9664 40.0616C28.0235 40.0619 27.1189 39.6881 26.4514 39.0221L13.8807 26.4514C13.5504 26.1212 13.2884 25.7292 13.1096 25.2977C12.9308 24.8662 12.8388 24.4038 12.8388 23.9367C12.8388 23.4697 12.9308 23.0072 13.1096 22.5757C13.2884 22.1443 13.5504 21.7522 13.8807 21.4221L21.4221 13.8807C21.7522 13.5504 22.1443 13.2884 22.5757 13.1096C23.0072 12.9308 23.4697 12.8388 23.9367 12.8388C24.4038 12.8388 24.8662 12.9308 25.2977 13.1096C25.7292 13.2884 26.1212 13.5504 26.4514 13.8807L39.0221 26.4514C40.4087 27.8398 40.4087 30.0905 39.0203 31.4807L31.4807 39.0203Z" fill="url(#paint3_linear_5270_9510)"/>
<path d="M37.3616 37.431C33.8914 40.9029 28.8247 41.4647 26.0478 38.6896C23.271 35.9127 27.6052 34.6185 31.0772 31.1465C34.5492 27.6745 35.8434 23.3421 38.6203 26.1172C41.3954 28.8941 40.8336 33.959 37.3616 37.431Z" fill="url(#paint4_linear_5270_9510)"/>
<path d="M49.7065 35.8789C45.9376 32.1065 40.6078 32.4105 37.1358 35.8789C33.6656 39.3527 33.3652 44.6789 37.1358 48.4496L49.7065 35.8789ZM44.6789 40.9083L48.4496 47.1927L42.1652 43.4221L44.6789 40.9083Z" fill="url(#paint5_linear_5270_9510)"/>
<path d="M49.4452 48.1883C49.2801 48.3533 49.0842 48.4843 48.8685 48.5736C48.6529 48.6629 48.4217 48.7089 48.1883 48.7089C47.9549 48.7089 47.7237 48.6629 47.5081 48.5736C47.2924 48.4843 47.0965 48.3533 46.9314 48.1883C46.7663 48.0232 46.6354 47.8273 46.5461 47.6116C46.4568 47.396 46.4108 47.1648 46.4108 46.9314C46.4108 46.698 46.4568 46.4668 46.5461 46.2512C46.6354 46.0355 46.7663 45.8396 46.9314 45.6745C47.2647 45.3412 47.7169 45.1539 48.1883 45.1539C48.6597 45.1539 49.1118 45.3412 49.4452 45.6745C49.7785 46.0079 49.9658 46.46 49.9658 46.9314C49.9658 47.4028 49.7785 47.8549 49.4452 48.1883Z" fill="url(#paint6_linear_5270_9510)"/>
<path d="M7.59095 32.7394L10.1083 30.2221L23.9376 44.0478L21.4238 46.5634L7.59095 32.7394ZM30.2221 10.1083L32.7358 7.59451L46.5634 21.4221L44.0496 23.9358L30.2221 10.1083ZM1.30651 39.0256L3.82028 36.5101L17.6514 50.3341L15.1376 52.8478L1.30651 39.0256ZM36.5029 3.82562L39.0149 1.31006L52.8478 15.1323L50.3358 17.6461L36.5029 3.82562Z" fill="url(#paint7_linear_5270_9510)"/>
<path d="M14.7678 13.5127C14.6025 13.6778 14.4064 13.8087 14.1905 13.8979C13.9746 13.9871 13.7433 14.033 13.5097 14.0328C13.2761 14.0327 13.0448 13.9865 12.8291 13.8969C12.6133 13.8074 12.4173 13.6762 12.2523 13.511C12.0872 13.3457 11.9563 13.1495 11.8671 12.9336C11.7779 12.7177 11.732 12.4864 11.7322 12.2528C11.7323 12.0192 11.7785 11.7879 11.8681 11.5722C11.9576 11.3564 12.0888 11.1605 12.2541 10.9954C12.5876 10.662 13.04 10.4749 13.5116 10.475C13.9832 10.4752 14.4354 10.6627 14.7687 10.9963C15.1021 11.3299 15.2893 11.7822 15.2891 12.2538C15.2889 12.7254 15.1014 13.1794 14.7678 13.5127Z" fill="url(#paint8_linear_5270_9510)"/>
<path d="M42.1012 54.0994L42.1047 54.0087C42.1163 53.7755 42.1738 53.5468 42.2738 53.3358C42.3738 53.1247 42.5145 52.9355 42.6876 52.7788C42.8608 52.6221 43.0632 52.5011 43.2831 52.4227C43.5031 52.3442 43.7364 52.3099 43.9696 52.3216C43.9981 52.3234 47.8025 52.4336 50.7252 49.5127C53.6354 46.6007 53.5305 42.8069 53.5341 42.7554C53.5169 42.5192 53.5472 42.282 53.623 42.0577C53.6988 41.8333 53.8187 41.6264 53.9756 41.449C54.1325 41.2717 54.3232 41.1274 54.5366 41.0248C54.75 40.9222 54.9818 40.8632 55.2183 40.8513C55.4548 40.8395 55.6913 40.875 55.9138 40.9558C56.1364 41.0366 56.3406 41.1611 56.5145 41.3219C56.6883 41.4827 56.8282 41.6766 56.9261 41.8923C57.0239 42.1079 57.0777 42.3409 57.0843 42.5776C57.1056 42.7945 57.303 47.9607 53.239 52.0247C49.1714 56.0905 44.0105 55.8825 43.7918 55.8718C43.3365 55.8495 42.9072 55.6531 42.5925 55.3232C42.2779 54.9934 42.102 54.5553 42.1012 54.0994Z" fill="url(#paint9_linear_5270_9510)"/>
<path d="M43.0896 60.4247C43.0891 60.1407 43.1568 59.8607 43.2869 59.6083C43.4171 59.3559 43.606 59.1384 43.8376 58.9741C44.0693 58.8098 44.3371 58.7036 44.6183 58.6643C44.8996 58.625 45.1862 58.6538 45.4541 58.7483C45.6443 58.8087 50.5687 60.3358 56.0567 54.8461C61.6158 49.2887 60.3483 43.9554 60.2914 43.7314C60.1756 43.276 60.2443 42.7933 60.4827 42.3884C60.7212 41.9835 61.1099 41.6892 61.5643 41.5696C62.0164 41.4494 62.4977 41.513 62.9031 41.7465C63.3085 41.98 63.605 42.3644 63.7278 42.8158C63.8096 43.1181 65.6425 50.2914 58.5723 57.3598C51.4363 64.4994 44.5705 62.2061 44.2825 62.1029C43.9341 61.9816 43.6321 61.7548 43.4184 61.4541C43.2046 61.1534 43.0897 60.7936 43.0896 60.4247Z" fill="url(#paint10_linear_5270_9510)"/>
</g>
<defs>
<linearGradient id="paint0_linear_5270_9510" x1="2.82364e-07" y1="31" x2="64" y2="31" gradientUnits="userSpaceOnUse">
<stop stop-color="#0041FF"/>
<stop offset="1" stop-color="#CE009F"/>
</linearGradient>
<linearGradient id="paint1_linear_5270_9510" x1="2.82364e-07" y1="31" x2="64" y2="31" gradientUnits="userSpaceOnUse">
<stop stop-color="#0041FF"/>
<stop offset="1" stop-color="#CE009F"/>
</linearGradient>
<linearGradient id="paint2_linear_5270_9510" x1="2.82364e-07" y1="31" x2="64" y2="31" gradientUnits="userSpaceOnUse">
<stop stop-color="#0041FF"/>
<stop offset="1" stop-color="#CE009F"/>
</linearGradient>
<linearGradient id="paint3_linear_5270_9510" x1="2.82364e-07" y1="31" x2="64" y2="31" gradientUnits="userSpaceOnUse">
<stop stop-color="#0041FF"/>
<stop offset="1" stop-color="#CE009F"/>
</linearGradient>
<linearGradient id="paint4_linear_5270_9510" x1="2.82364e-07" y1="31" x2="64" y2="31" gradientUnits="userSpaceOnUse">
<stop stop-color="#0041FF"/>
<stop offset="1" stop-color="#CE009F"/>
</linearGradient>
<linearGradient id="paint5_linear_5270_9510" x1="2.82364e-07" y1="31" x2="64" y2="31" gradientUnits="userSpaceOnUse">
<stop stop-color="#0041FF"/>
<stop offset="1" stop-color="#CE009F"/>
</linearGradient>
<linearGradient id="paint6_linear_5270_9510" x1="2.82364e-07" y1="31" x2="64" y2="31" gradientUnits="userSpaceOnUse">
<stop stop-color="#0041FF"/>
<stop offset="1" stop-color="#CE009F"/>
</linearGradient>
<linearGradient id="paint7_linear_5270_9510" x1="2.82364e-07" y1="31" x2="64" y2="31" gradientUnits="userSpaceOnUse">
<stop stop-color="#0041FF"/>
<stop offset="1" stop-color="#CE009F"/>
</linearGradient>
<linearGradient id="paint8_linear_5270_9510" x1="2.82364e-07" y1="31" x2="64" y2="31" gradientUnits="userSpaceOnUse">
<stop stop-color="#0041FF"/>
<stop offset="1" stop-color="#CE009F"/>
</linearGradient>
<linearGradient id="paint9_linear_5270_9510" x1="2.82364e-07" y1="31" x2="64" y2="31" gradientUnits="userSpaceOnUse">
<stop stop-color="#0041FF"/>
<stop offset="1" stop-color="#CE009F"/>
</linearGradient>
<linearGradient id="paint10_linear_5270_9510" x1="2.82364e-07" y1="31" x2="64" y2="31" gradientUnits="userSpaceOnUse">
<stop stop-color="#0041FF"/>
<stop offset="1" stop-color="#CE009F"/>
</linearGradient>
<clipPath id="clip0_5270_9510">
<rect width="64" height="64" fill="white"/>
</clipPath>
</defs>
</svg>
