<svg width="64" height="64" viewBox="0 0 64 64" fill="none" xmlns="http://www.w3.org/2000/svg">
<g clip-path="url(#clip0_5270_9485)">
<path d="M15.1362 35.2498L33.9949 16.3965L37.7656 20.1672L18.9069 39.0223L15.1362 35.2498Z" fill="#99AAB5"/>
<path d="M15.1376 52.8496C14.4709 53.5162 13.5666 53.8906 12.6238 53.8906C11.681 53.8906 10.7768 53.5162 10.1101 52.8496L1.31006 44.0514C0.643498 43.3846 0.269043 42.4804 0.269043 41.5376C0.269043 40.5948 0.643498 39.6906 1.31006 39.0238L10.1101 30.2221C10.7768 29.5555 11.681 29.181 12.6238 29.181C13.5666 29.181 14.4709 29.5555 15.1376 30.2221L23.9376 39.0221C24.6042 39.6888 24.9786 40.593 24.9786 41.5358C24.9786 42.4786 24.6042 43.3829 23.9376 44.0496L15.1376 52.8496ZM44.0478 23.9376C43.718 24.2678 43.3262 24.5298 42.8951 24.7085C42.4639 24.8872 42.0017 24.9792 41.535 24.9792C41.0682 24.9792 40.606 24.8872 40.1748 24.7085C39.7437 24.5298 39.3519 24.2678 39.0221 23.9376L30.2221 15.1376C29.5555 14.4709 29.181 13.5666 29.181 12.6238C29.181 11.681 29.5555 10.7768 30.2221 10.1101L39.0238 1.31006C39.6906 0.643498 40.5948 0.269043 41.5376 0.269043C42.4804 0.269043 43.3846 0.643498 44.0514 1.31006L52.8496 10.1101C53.5164 10.7766 53.8912 11.6807 53.8915 12.6235C53.8919 13.5663 53.5177 14.4706 52.8514 15.1376L44.0478 23.9376Z" fill="#55ACEE"/>
<path d="M22.0515 18.2807L19.5377 10.7376C18.7412 8.35184 17.0221 8.22207 15.7652 9.47895L10.7377 14.5083C9.47901 15.7652 9.60879 17.4843 11.9946 18.2807L19.5377 20.7945L22.0515 18.2807Z" fill="#99AAB5"/>
<path d="M31.4808 39.0203C30.8137 39.6868 29.9094 40.0613 28.9665 40.0617C28.0235 40.062 27.119 39.6881 26.4514 39.0221L13.8808 26.4514C13.5505 26.1213 13.2884 25.7292 13.1097 25.2978C12.9309 24.8663 12.8389 24.4038 12.8389 23.9368C12.8389 23.4697 12.9309 23.0073 13.1097 22.5758C13.2884 22.1443 13.5505 21.7523 13.8808 21.4221L21.4221 13.8808C21.7523 13.5505 22.1443 13.2884 22.5758 13.1097C23.0073 12.9309 23.4697 12.8389 23.9368 12.8389C24.4038 12.8389 24.8663 12.9309 25.2978 13.1097C25.7292 13.2884 26.1213 13.5505 26.4514 13.8808L39.0221 26.4514C40.4088 27.8399 40.4088 30.0906 39.0203 31.4808L31.4808 39.0203Z" fill="#CCD6DD"/>
<path d="M37.3616 37.4312C33.8914 40.9032 28.8248 41.465 26.0479 38.6899C23.271 35.913 27.6052 34.6188 31.0772 31.1468C34.5492 27.6748 35.8434 23.3424 38.6203 26.1175C41.3954 28.8944 40.8336 33.9592 37.3616 37.4312Z" fill="#CCD6DD"/>
<path d="M49.7066 35.8791C45.9377 32.1067 40.6079 32.4107 37.1359 35.8791C33.6657 39.3529 33.3653 44.6791 37.1359 48.4498L49.7066 35.8791ZM44.679 40.9085L48.4497 47.1929L42.1653 43.4222L44.679 40.9085Z" fill="#99AAB5"/>
<path d="M49.4455 48.1882C49.2805 48.3533 49.0845 48.4842 48.8689 48.5735C48.6532 48.6629 48.4221 48.7088 48.1886 48.7088C47.9552 48.7088 47.7241 48.6629 47.5084 48.5735C47.2928 48.4842 47.0968 48.3533 46.9318 48.1882C46.7667 48.0232 46.6358 47.8272 46.5464 47.6115C46.4571 47.3959 46.4111 47.1647 46.4111 46.9313C46.4111 46.6979 46.4571 46.4668 46.5464 46.2511C46.6358 46.0354 46.7667 45.8395 46.9318 45.6744C47.2651 45.3411 47.7172 45.1538 48.1886 45.1538C48.6601 45.1538 49.1122 45.3411 49.4455 45.6744C49.7789 46.0078 49.9661 46.4599 49.9661 46.9313C49.9661 47.4027 49.7789 47.8549 49.4455 48.1882Z" fill="#99AAB5"/>
<path d="M7.59108 32.7394L10.1084 30.2221L23.9378 44.0478L21.424 46.5634L7.59108 32.7394ZM30.2222 10.1083L32.736 7.5945L46.5635 21.4221L44.0497 23.9358L30.2222 10.1083ZM1.30664 39.0256L3.82042 36.5101L17.6515 50.3341L15.1378 52.8478L1.30664 39.0256ZM36.5031 3.82561L39.0151 1.31006L52.848 15.1323L50.336 17.6461L36.5031 3.82561Z" fill="#88C9F9"/>
<path d="M14.7681 13.5128C14.6028 13.6778 14.4066 13.8087 14.1907 13.898C13.9749 13.9872 13.7435 14.0331 13.5099 14.0329C13.2763 14.0327 13.0451 13.9866 12.8293 13.897C12.6136 13.8075 12.4176 13.6763 12.2525 13.511C12.0875 13.3457 11.9566 13.1495 11.8673 12.9337C11.7781 12.7178 11.7323 12.4865 11.7324 12.2529C11.7326 12.0193 11.7788 11.788 11.8683 11.5723C11.9578 11.3565 12.089 11.1605 12.2543 10.9955C12.5879 10.6621 13.0402 10.4749 13.5118 10.4751C13.9834 10.4753 14.4356 10.6628 14.769 10.9963C15.1023 11.3299 15.2895 11.7823 15.2893 12.2539C15.2892 12.7255 15.1017 13.1794 14.7681 13.5128Z" fill="#99AAB5"/>
<path d="M42.1016 54.0994L42.1051 54.0087C42.1167 53.7755 42.1742 53.5468 42.2742 53.3358C42.3742 53.1247 42.5148 52.9355 42.688 52.7788C42.8612 52.6221 43.0636 52.5011 43.2835 52.4227C43.5035 52.3442 43.7368 52.3099 43.97 52.3216C43.9985 52.3234 47.8029 52.4336 50.7256 49.5127C53.6358 46.6007 53.5309 42.807 53.5345 42.7554C53.5173 42.5192 53.5476 42.282 53.6234 42.0577C53.6992 41.8333 53.8191 41.6264 53.976 41.449C54.1329 41.2717 54.3236 41.1274 54.537 41.0248C54.7504 40.9222 54.9822 40.8632 55.2187 40.8513C55.4552 40.8395 55.6917 40.875 55.9142 40.9558C56.1368 41.0366 56.341 41.1611 56.5148 41.3219C56.6887 41.4827 56.8286 41.6766 56.9265 41.8923C57.0243 42.1079 57.0781 42.3409 57.0847 42.5776C57.106 42.7945 57.3033 47.9607 53.2393 52.0247C49.1718 56.0905 44.0109 55.8825 43.7922 55.8718C43.3369 55.8495 42.9076 55.6531 42.5929 55.3233C42.2783 54.9934 42.1024 54.5553 42.1016 54.0994Z" fill="#FFAC33"/>
<path d="M43.0898 60.4248C43.0893 60.1408 43.157 59.8608 43.2872 59.6084C43.4173 59.356 43.6062 59.1385 43.8379 58.9742C44.0696 58.81 44.3373 58.7037 44.6186 58.6644C44.8999 58.6251 45.1865 58.6539 45.4543 58.7484C45.6445 58.8088 50.569 60.3359 56.057 54.8462C61.6161 49.2888 60.3485 43.9555 60.2916 43.7315C60.1758 43.2761 60.2446 42.7934 60.483 42.3885C60.7214 41.9836 61.1101 41.6893 61.5645 41.5697C62.0166 41.4495 62.4979 41.5131 62.9033 41.7466C63.3087 41.9801 63.6052 42.3645 63.7281 42.8159C63.8098 43.1182 65.6427 50.2915 58.5725 57.3599C51.4365 64.4995 44.5707 62.2062 44.2827 62.1031C43.9343 61.9817 43.6323 61.7549 43.4186 61.4542C43.2049 61.1535 43.09 60.7938 43.0898 60.4248Z" fill="#FFAC33"/>
</g>
<defs>
<clipPath id="clip0_5270_9485">
<rect width="64" height="64" fill="white"/>
</clipPath>
</defs>
</svg>
