<svg width="64" height="64" viewBox="0 0 64 64" fill="none" xmlns="http://www.w3.org/2000/svg">
<path fill-rule="evenodd" clip-rule="evenodd" d="M19.4479 38.1144C18.4065 39.1557 18.4065 40.8443 19.4479 41.8856C20.4893 42.9269 22.1777 42.9269 23.2192 41.8856L29.8858 35.2189C31.6636 33.4411 31.6636 30.5589 29.8858 28.7811L23.2192 22.1144C22.1778 21.073 20.4893 21.073 19.4479 22.1144C18.4065 23.1558 18.4065 24.8442 19.4479 25.8856L25.5623 32L19.4479 38.1144ZM34.6668 37.3333C33.194 37.3333 32.0002 38.5272 32.0002 40C32.0002 41.4728 33.194 42.6667 34.6668 42.6667H42.6668C44.1396 42.6667 45.3335 41.4728 45.3335 40C45.3335 38.5272 44.1396 37.3333 42.6668 37.3333H34.6668ZM58.6668 21.1578C58.6668 21.2161 58.6668 21.2746 58.6668 21.3334V42.8421C58.6671 45.2061 58.6671 47.2429 58.4479 48.8741C58.2127 50.6221 57.6828 52.2979 56.3236 53.6568C54.9647 55.016 53.289 55.5459 51.541 55.7811C49.9098 56.0003 47.873 56.0003 45.509 56H18.4914C16.1274 56.0003 14.0905 56.0003 12.4594 55.7811C10.7114 55.5459 9.03577 55.016 7.67668 53.6568C6.31756 52.2979 5.78758 50.6221 5.55257 48.8741C5.33326 47.2429 5.33337 45.2061 5.3335 42.8421V21.1579C5.33337 18.7939 5.33326 16.757 5.55257 15.1259C5.78758 13.3779 6.31756 11.7023 7.67668 10.3432C9.03577 8.98406 10.7114 8.45409 12.4594 8.21907C14.0905 7.99977 16.1273 7.99987 18.4913 8.00001L45.3335 8.00003C45.3922 8.00003 45.4508 8.00001 45.509 8.00001C47.873 7.99987 49.9098 7.99977 51.541 8.21907C53.289 8.45409 54.9647 8.98406 56.3236 10.3432C57.6828 11.7023 58.2127 13.3779 58.4479 15.1259C58.6671 16.757 58.6671 18.7938 58.6668 21.1578Z" fill="url(#paint0_linear_5273_9732)"/>
<defs>
<linearGradient id="paint0_linear_5273_9732" x1="5.3335" y1="32.1971" x2="58.6669" y2="32.1971" gradientUnits="userSpaceOnUse">
<stop stop-color="#3059E4"/>
<stop offset="0.5" stop-color="#34D1F9"/>
<stop offset="1" stop-color="#00D490"/>
</linearGradient>
</defs>
</svg>
