<svg width="64" height="64" viewBox="0 0 64 64" fill="none" xmlns="http://www.w3.org/2000/svg">
<path d="M50.1864 24.4802C49.7658 23.5445 49.0842 22.7499 48.2234 22.1918C47.3626 21.6337 46.359 21.3357 45.3331 21.3336H40.5064L44.0531 12.6402C44.3699 11.842 44.4893 10.9791 44.4011 10.1248C44.3129 9.27052 44.0197 8.45019 43.5464 7.73355C43.0405 6.99114 42.3603 6.38412 41.5653 5.9657C40.7703 5.54728 39.8848 5.33022 38.9864 5.33355H27.4131C26.3192 5.30742 25.2438 5.61836 24.3327 6.22419C23.4216 6.83002 22.7188 7.70143 22.3198 8.72022L13.7064 30.0536C13.398 30.8502 13.2854 31.7093 13.3782 32.5586C13.4711 33.4078 13.7665 34.2223 14.2398 34.9336C14.7456 35.676 15.4259 36.283 16.2209 36.7014C17.0159 37.1198 17.9014 37.3369 18.7998 37.3336H26.1598L21.3331 55.3069C21.1723 55.8935 21.2168 56.5174 21.4594 57.0752C21.7019 57.633 22.1278 58.0911 22.6664 58.3735C23.0823 58.573 23.5386 58.6734 23.9998 58.6669C24.3849 58.6669 24.7655 58.5835 25.1154 58.4224C25.4653 58.2613 25.7761 58.0263 26.0264 57.7335L49.4931 30.0802C50.1208 29.305 50.5185 28.3693 50.641 27.3794C50.7636 26.3895 50.6061 25.3851 50.1864 24.4802Z" fill="url(#paint0_linear_5272_9519)"/>
<defs>
<linearGradient id="paint0_linear_5272_9519" x1="13.3467" y1="32.2186" x2="50.6814" y2="32.2186" gradientUnits="userSpaceOnUse">
<stop stop-color="#3059E4"/>
<stop offset="0.5" stop-color="#34D1F9"/>
<stop offset="1" stop-color="#00D490"/>
</linearGradient>
</defs>
</svg>
