<svg width="64" height="64" viewBox="0 0 64 64" fill="none" xmlns="http://www.w3.org/2000/svg">
<path d="M40.8592 27.688C41.0123 29.1885 41.1 30.6408 41.1 32C41.1 34.5443 40.7925 37.4173 40.3221 40.3221C37.4173 40.7925 34.5443 41.1 32 41.1C29.4672 41.1 26.595 40.7933 23.6776 40.3213C23.2075 37.4165 22.9 34.544 22.9 32C22.9 30.6413 22.9877 29.1888 23.141 27.688C26.2029 28.1781 29.2573 28.5 32 28.5C34.7429 28.5 37.7973 28.1781 40.8592 27.688Z" fill="url(#paint0_linear_5272_9531)"/>
<path d="M45.0005 26.9317C45.1899 28.6877 45.3 30.3973 45.3 32C45.3 34.3384 45.0659 36.9037 44.6931 39.5075C49.98 38.4043 54.8667 36.9949 57.4845 36.1925C58.3304 35.9333 58.6629 35.8301 59.1088 35.6517C59.3317 35.5627 59.536 35.472 59.8024 35.3448C59.9328 34.248 60 33.1317 60 32C60 29.008 59.5307 26.1257 58.6619 23.4226L58.4355 23.4938C55.6981 24.3265 50.5739 25.7987 45.0005 26.9317Z" fill="url(#paint1_linear_5272_9531)"/>
<path d="M57.0712 19.5186C54.3195 20.3526 49.544 21.7077 44.4264 22.7627C43.2475 15.598 41.1813 8.45203 40.1872 5.21595C47.5792 7.47272 53.6728 12.7058 57.0712 19.5186Z" fill="url(#paint2_linear_5272_9531)"/>
<path d="M40.2979 23.5261C37.4008 23.9942 34.5368 24.3 32 24.3C29.4632 24.3 26.5994 23.9942 23.7025 23.5261C24.8126 16.7468 26.7941 9.82149 27.8075 6.51555C28.0667 5.66949 28.1699 5.33717 28.3483 4.89115C28.4373 4.66832 28.528 4.46395 28.6552 4.19771C29.752 4.06715 30.8683 4 32 4C33.1824 4 34.3475 4.07328 35.4915 4.21555C35.5157 4.30837 35.5381 4.39144 35.5603 4.47003C35.6259 4.70221 35.7285 5.02853 35.9008 5.57611L35.9189 5.63363C36.7827 8.37928 39.0717 16.0374 40.2979 23.5261Z" fill="url(#paint3_linear_5272_9531)"/>
<path d="M19.5734 22.7627C20.7469 15.6295 22.7996 8.52203 23.7918 5.28483L23.8129 5.21592C16.4207 7.47267 10.3272 12.7057 6.92893 19.5186C9.68048 20.3525 14.4559 21.7076 19.5734 22.7627Z" fill="url(#paint4_linear_5272_9531)"/>
<path d="M5.33824 23.4225C4.46928 26.1257 4 29.008 4 32C4 33.1704 4.07181 34.324 4.21128 35.4568L4.65256 35.604L4.65608 35.6051L4.6604 35.6067L4.66344 35.6075C4.80547 35.6547 8.96813 37.0293 14.4501 38.3933C15.997 38.7781 17.6349 39.1584 19.3068 39.5069C18.934 36.9035 18.7 34.3384 18.7 32C18.7 30.3968 18.81 28.6872 18.9993 26.9317C13.4247 25.7983 8.29915 24.3257 5.56259 23.493L5.54355 23.4872L5.33824 23.4225Z" fill="url(#paint5_linear_5272_9531)"/>
<path d="M32 45.3C34.3384 45.3 36.9037 45.0659 39.5075 44.6931C38.4043 49.98 36.9949 54.8667 36.1925 57.4843C35.9333 58.3304 35.8301 58.6627 35.6517 59.1088C35.5627 59.3317 35.472 59.536 35.3448 59.8024C34.248 59.9328 33.1317 60 32 60C30.8683 60 29.752 59.9328 28.6552 59.8024C28.528 59.536 28.4373 59.3317 28.3483 59.1088C28.1699 58.6629 28.0667 58.3304 27.8075 57.4845C27.0051 54.8669 25.5959 49.9805 24.4927 44.6941C27.0877 45.0656 29.6536 45.3 32 45.3Z" fill="url(#paint6_linear_5272_9531)"/>
<path d="M13.436 42.4691C9.96941 41.6064 7.01693 40.74 5.21592 40.1872C7.92688 49.0672 14.9329 56.0731 23.8129 58.784L23.7918 58.7152C22.9255 55.8885 21.2506 50.1112 20.0584 43.9424C17.74 43.4941 15.4859 42.9789 13.436 42.4691Z" fill="url(#paint7_linear_5272_9531)"/>
<path d="M58.7152 40.2083C55.8885 41.0747 50.1107 42.7496 43.9416 43.9416C42.7496 50.1107 41.0747 55.8883 40.2083 58.7152L40.1872 58.784C49.0672 56.0731 56.0731 49.0672 58.784 40.1872L58.7152 40.2083Z" fill="url(#paint8_linear_5272_9531)"/>
<path d="M4.29413 35.528C4.39107 35.5405 4.47008 35.5539 4.49629 35.5597C4.51925 35.5653 4.55523 35.5749 4.56827 35.5784L4.59709 35.5867L4.61261 35.5915L4.62893 35.5965L4.64261 35.6008C4.63493 35.5984 4.47936 35.5595 4.29413 35.528Z" fill="url(#paint9_linear_5272_9531)"/>
<defs>
<linearGradient id="paint0_linear_5272_9531" x1="4" y1="32.2299" x2="60" y2="32.2299" gradientUnits="userSpaceOnUse">
<stop stop-color="#3059E4"/>
<stop offset="0.5" stop-color="#34D1F9"/>
<stop offset="1" stop-color="#00D490"/>
</linearGradient>
<linearGradient id="paint1_linear_5272_9531" x1="4" y1="32.2299" x2="60" y2="32.2299" gradientUnits="userSpaceOnUse">
<stop stop-color="#3059E4"/>
<stop offset="0.5" stop-color="#34D1F9"/>
<stop offset="1" stop-color="#00D490"/>
</linearGradient>
<linearGradient id="paint2_linear_5272_9531" x1="4" y1="32.2299" x2="60" y2="32.2299" gradientUnits="userSpaceOnUse">
<stop stop-color="#3059E4"/>
<stop offset="0.5" stop-color="#34D1F9"/>
<stop offset="1" stop-color="#00D490"/>
</linearGradient>
<linearGradient id="paint3_linear_5272_9531" x1="4" y1="32.2299" x2="60" y2="32.2299" gradientUnits="userSpaceOnUse">
<stop stop-color="#3059E4"/>
<stop offset="0.5" stop-color="#34D1F9"/>
<stop offset="1" stop-color="#00D490"/>
</linearGradient>
<linearGradient id="paint4_linear_5272_9531" x1="4" y1="32.2299" x2="60" y2="32.2299" gradientUnits="userSpaceOnUse">
<stop stop-color="#3059E4"/>
<stop offset="0.5" stop-color="#34D1F9"/>
<stop offset="1" stop-color="#00D490"/>
</linearGradient>
<linearGradient id="paint5_linear_5272_9531" x1="4" y1="32.2299" x2="60" y2="32.2299" gradientUnits="userSpaceOnUse">
<stop stop-color="#3059E4"/>
<stop offset="0.5" stop-color="#34D1F9"/>
<stop offset="1" stop-color="#00D490"/>
</linearGradient>
<linearGradient id="paint6_linear_5272_9531" x1="4" y1="32.2299" x2="60" y2="32.2299" gradientUnits="userSpaceOnUse">
<stop stop-color="#3059E4"/>
<stop offset="0.5" stop-color="#34D1F9"/>
<stop offset="1" stop-color="#00D490"/>
</linearGradient>
<linearGradient id="paint7_linear_5272_9531" x1="4" y1="32.2299" x2="60" y2="32.2299" gradientUnits="userSpaceOnUse">
<stop stop-color="#3059E4"/>
<stop offset="0.5" stop-color="#34D1F9"/>
<stop offset="1" stop-color="#00D490"/>
</linearGradient>
<linearGradient id="paint8_linear_5272_9531" x1="4" y1="32.2299" x2="60" y2="32.2299" gradientUnits="userSpaceOnUse">
<stop stop-color="#3059E4"/>
<stop offset="0.5" stop-color="#34D1F9"/>
<stop offset="1" stop-color="#00D490"/>
</linearGradient>
<linearGradient id="paint9_linear_5272_9531" x1="4" y1="32.2299" x2="60" y2="32.2299" gradientUnits="userSpaceOnUse">
<stop stop-color="#3059E4"/>
<stop offset="0.5" stop-color="#34D1F9"/>
<stop offset="1" stop-color="#00D490"/>
</linearGradient>
</defs>
</svg>
