<svg width="64" height="64" viewBox="0 0 64 64" fill="none" xmlns="http://www.w3.org/2000/svg">
<path d="M52.6666 18.1512L51.9289 18.3912L48 18.7379L46.8711 20.5157L46.0622 20.2579L42.8711 17.4223L42.4089 15.9468L41.7778 14.3645L39.7955 12.5868L37.4578 12.1334L37.4044 13.2001L39.6978 15.4401L40.8178 16.7557L39.5555 17.4223L38.5333 17.1201L36.9955 16.4712V15.2357L35.04 14.4001L34.3733 17.3245L32.3378 17.7779L32.5422 19.4134L35.2089 19.9201L35.6711 17.3157L37.8578 17.6445L38.8711 18.2401H40.5066L41.6 20.4445L44.5689 23.449L44.3466 24.6223L41.9555 24.3201L37.8311 26.4001L34.8622 29.9557L34.48 31.5379H33.4044L31.4222 30.649L29.4933 31.5379L29.9733 33.5734L30.8089 32.6045H32.2933L32.1867 34.3823L33.4133 34.7379L34.6667 36.1512L36.6222 35.5557L38.9067 35.9112L41.5733 36.6223L42.8889 36.7823L45.1289 39.3245L49.4578 41.8668L46.6578 47.2001L43.7066 48.569L42.5867 51.6268L38.3111 54.4801L37.8578 56.1245C41.7422 55.1755 45.3408 53.3046 48.3489 50.6701C51.357 48.0356 53.6861 44.715 55.1389 40.9896C56.5918 37.2642 57.1256 33.2436 56.6953 29.2681C56.2649 25.2927 54.8831 21.4794 52.6666 18.1512Z" fill="url(#paint0_linear_5272_9555)"/>
<path d="M34.8622 45.0045L33.0844 41.6445L34.7111 38.2223L33.0489 37.7245L31.1822 35.849L27.04 34.9601L25.6711 32.0001V33.7068H25.0667L21.5111 28.8712V24.889L18.8978 20.6401L14.7467 21.3779H11.9378L10.5244 20.489L12.3022 19.0668L10.5244 19.4757C8.32337 23.2555 7.15729 27.5487 7.14368 31.9226C7.13006 36.2966 8.26938 40.5969 10.4469 44.3904C12.6243 48.1839 15.7631 51.3365 19.5469 53.5308C23.3307 55.725 27.626 56.8833 32 56.889C33.0435 56.8781 34.0854 56.8039 35.12 56.6668L34.8622 53.6534C34.8622 53.6534 36.0089 49.209 36.0089 49.0312C36.0089 48.8534 34.8622 45.0045 34.8622 45.0045Z" fill="url(#paint1_linear_5272_9555)"/>
<path d="M16.3644 15.1112L20.8089 14.489L22.8444 13.3779L25.1378 14.0357L28.8 13.8312L30.0622 11.8579L31.8844 12.1601L36.3289 11.7423L37.5555 10.3912L39.3333 9.24454L41.7689 9.60899L42.6578 9.47566C37.661 7.10702 32.0161 6.47569 26.6194 7.68192C21.2228 8.88814 16.3839 11.8628 12.8711 16.1334L16.3644 15.1112ZM33.0489 9.58232L35.5555 8.18677L37.1911 9.12899L34.8267 10.9068L32.5689 11.1379L31.5555 10.4801L33.0489 9.58232ZM25.52 9.77788L26.6667 10.2579L28.1155 9.77788L28.9155 11.1645L25.52 12.0534L23.8933 11.1112C23.8933 11.1112 25.4844 10.089 25.52 9.77788Z" fill="url(#paint2_linear_5272_9555)"/>
<defs>
<linearGradient id="paint0_linear_5272_9555" x1="7.14355" y1="32.1912" x2="56.8398" y2="32.1912" gradientUnits="userSpaceOnUse">
<stop stop-color="#3059E4"/>
<stop offset="0.5" stop-color="#34D1F9"/>
<stop offset="1" stop-color="#00D490"/>
</linearGradient>
<linearGradient id="paint1_linear_5272_9555" x1="7.14355" y1="32.1912" x2="56.8398" y2="32.1912" gradientUnits="userSpaceOnUse">
<stop stop-color="#3059E4"/>
<stop offset="0.5" stop-color="#34D1F9"/>
<stop offset="1" stop-color="#00D490"/>
</linearGradient>
<linearGradient id="paint2_linear_5272_9555" x1="7.14355" y1="32.1912" x2="56.8398" y2="32.1912" gradientUnits="userSpaceOnUse">
<stop stop-color="#3059E4"/>
<stop offset="0.5" stop-color="#34D1F9"/>
<stop offset="1" stop-color="#00D490"/>
</linearGradient>
</defs>
</svg>
