<svg width="827" height="192" viewBox="0 0 827 192" fill="none" xmlns="http://www.w3.org/2000/svg">
<path d="M244.133 131.534L276.426 60.4702H292.174L323.969 131.534H308.822L301.846 115.785H265.869L258.395 131.534H244.147H244.133ZM284.494 73.827L272.533 101.336H296.157L284.597 73.827H284.5H284.494Z" fill="white"/>
<path d="M346.984 110.406C348.581 119.774 356.953 121.067 362.733 121.067C368.215 121.067 376.587 119.47 376.587 112.197C376.587 97.0493 334.228 106.811 334.228 80.2082C334.228 65.5586 347.979 58.6797 360.838 58.6797C375.688 58.6797 389.342 65.1576 389.342 81.6047L374.195 79.4131C372.301 71.1446 365.028 70.8404 360.14 70.8404C355.252 70.8404 349.376 72.9352 349.376 78.9154C349.376 84.1972 352.763 85.3933 370.607 89.6796C375.889 90.9724 391.735 94.2632 391.735 110.406C391.735 123.466 381.572 133.227 362.131 133.227C346.182 133.227 331.836 125.457 331.836 107.91L346.984 110.399V110.406Z" fill="white"/>
<path d="M426.011 73.5296H403.391V60.4771H464.084V73.6333H441.657V131.54H426.011V73.5366V73.5296Z" fill="white"/>
<path d="M520.587 105.228L540.519 131.637H521.382L503.442 106.023H495.768V131.637H480.019V60.3804H512.111C530.052 60.3804 536.924 71.6424 536.924 83.2017C536.924 92.8667 531.842 102.635 519.979 105.228H520.58H520.587ZM495.775 72.5411V93.9659H507.936C515.409 93.9659 521.59 92.2721 521.59 83.2017C521.59 74.1312 515.409 72.5411 507.936 72.5411H495.775Z" fill="white"/>
<path d="M550.184 131.534L582.477 60.4702H598.226L630.021 131.534H614.873L607.898 115.785H571.92L564.447 131.534H550.198H550.184ZM590.545 73.827L578.584 101.336H602.208L590.648 73.827H590.552H590.545Z" fill="white"/>
<path d="M640.874 131.035V60.0757H656.222V117.879H692.697V131.035H640.874Z" fill="white"/>
<path d="M715.823 103.831L689.614 60.3804H707.257L723.898 88.4835L740.442 60.3804H757.885L731.475 104.232V131.54H715.83V103.831H715.823Z" fill="white"/>
<path d="M781.501 110.406C783.098 119.774 791.47 121.067 797.25 121.067C802.732 121.067 811.104 119.47 811.104 112.197C811.104 97.0493 768.746 106.811 768.746 80.2082C768.746 65.5586 782.496 58.6797 795.355 58.6797C810.205 58.6797 823.86 65.1576 823.86 81.6047L808.712 79.4131C806.818 71.1446 799.545 70.8404 794.657 70.8404C789.769 70.8404 783.893 72.9352 783.893 78.9154C783.893 84.1972 787.28 85.3933 805.124 89.6796C810.406 90.9724 826.252 94.2632 826.252 110.406C826.252 123.466 816.089 133.227 796.648 133.227C780.706 133.227 766.354 125.457 766.354 107.91L781.501 110.399V110.406Z" fill="white"/>
<path d="M202.264 191.486H179.74C179.519 191.486 179.298 191.486 179.077 191.465C147.772 191.154 128.933 156.483 145.138 129.68L155.467 112.61C162.961 100.242 160.521 83.9264 149.128 74.9942C142.767 70.0304 134.72 67.9701 126.714 69.3667C118.425 70.7839 111.304 76.0174 106.962 83.2005L105.967 84.8597L102.731 90.2453L61.4926 159.926C57.628 166.459 62.3361 174.721 69.9271 174.721C72.9482 174.721 75.7966 173.331 77.6563 170.953L113.509 125.013C113.731 124.723 114.076 124.557 114.443 124.557C115.314 124.557 115.888 125.469 115.507 126.251L89.9415 179.367C86.3742 186.778 78.8731 191.493 70.653 191.493H23.3719C5.45915 191.493 -5.78212 172.142 3.10858 156.601L82.9382 16.6516C95.5275 -5.38155 127.205 -5.58203 140.064 16.299L165.471 59.4804L222.376 156.331C231.508 171.872 220.315 191.493 202.271 191.493L202.264 191.486ZM129.542 80.4282L125.179 93.861C125.076 94.1859 124.771 94.4072 124.426 94.4072H110.302C109.534 94.4072 109.216 95.3889 109.838 95.8383L121.266 104.141C121.543 104.342 121.66 104.701 121.557 105.026L117.194 118.459C116.959 119.192 117.796 119.793 118.411 119.344L129.839 111.041C130.116 110.84 130.496 110.84 130.772 111.041L142.2 119.344C142.822 119.793 143.659 119.185 143.417 118.459L139.055 105.026C138.951 104.701 139.062 104.342 139.345 104.141L150.773 95.8383C151.395 95.3889 151.077 94.4072 150.31 94.4072H136.186C135.84 94.4072 135.536 94.1859 135.432 93.861L131.07 80.4282C130.835 79.6954 129.798 79.6954 129.562 80.4282H129.542Z" fill="url(#paint0_linear_5285_6451)"/>
<path d="M130.959 83.9475L134.526 94.9261C134.623 95.2165 134.886 95.41 135.19 95.41H146.736C147.413 95.41 147.696 96.2742 147.143 96.6752L137.803 103.464C137.561 103.644 137.458 103.955 137.548 104.245L141.115 115.224C141.322 115.867 140.589 116.406 140.043 116.005L130.703 109.216C130.461 109.036 130.129 109.036 129.881 109.216L120.54 116.005C119.994 116.406 119.255 115.867 119.469 115.224L123.036 104.245C123.133 103.955 123.029 103.644 122.78 103.464L113.44 96.6752C112.894 96.2742 113.178 95.41 113.848 95.41H125.394C125.698 95.41 125.968 95.2165 126.057 94.9261L129.625 83.9475C129.832 83.3046 130.745 83.3046 130.952 83.9475H130.959Z" fill="url(#paint1_linear_5285_6451)"/>
<path d="M202.265 191.479H179.734C179.512 191.479 179.298 191.479 179.077 191.479C147.759 191.154 128.92 156.483 145.139 129.693L155.467 112.631C162.969 100.256 160.514 83.94 149.128 75.0078C142.774 70.037 134.72 67.9837 126.707 69.3664C118.432 70.7837 111.311 76.031 106.97 83.2072L105.981 84.8664L120.326 60.6002C130.42 43.5447 154.776 43.1783 165.464 59.4871L222.383 156.331C231.515 171.879 220.309 191.486 202.278 191.486L202.265 191.479Z" fill="url(#paint2_linear_5285_6451)"/>
<path opacity="0.6" d="M152.163 36.8666C140.991 17.8685 113.371 18.2487 102.704 37.5303L74.6629 88.2958L31.3709 166.639C29.3522 170.275 31.9931 174.728 36.1343 174.728H25.3355C13.9629 174.728 5.87412 165.153 6.26819 154.907C6.37881 151.934 7.40199 149.058 8.88147 146.459L48.7859 76.4738L82.9245 16.6448C95.5139 -5.38838 127.191 -5.58887 140.05 16.2922L152.156 36.8666H152.163Z" fill="url(#paint3_linear_5285_6451)"/>
<path d="M28.4396 112.175L8.88142 146.466C7.40194 149.058 6.39258 151.934 6.27505 154.914C5.88098 165.153 13.9559 174.721 25.3423 174.721H69.9272C62.3362 174.721 57.6282 166.459 61.4928 159.926L97.6639 98.7975L48.7928 76.4878L28.4396 112.175Z" fill="url(#paint4_linear_5285_6451)"/>
<path opacity="0.5" d="M222.376 156.324L179.554 83.4634C186.385 95.0849 186.765 109.41 180.55 121.377L166.847 147.765C156.581 167.531 170.733 191.106 192.876 191.479H202.279C220.309 191.479 231.516 171.873 222.383 156.324H222.376Z" fill="url(#paint5_linear_5285_6451)"/>
<defs>
<linearGradient id="paint0_linear_5285_6451" x1="112.804" y1="9.22657" x2="112.804" y2="230.056" gradientUnits="userSpaceOnUse">
<stop stop-color="#3059E4"/>
<stop offset="0.5" stop-color="#34D1F9"/>
<stop offset="1" stop-color="#00D490"/>
</linearGradient>
<linearGradient id="paint1_linear_5285_6451" x1="121.909" y1="116.807" x2="139.552" y2="79.6958" gradientUnits="userSpaceOnUse">
<stop stop-color="white" stop-opacity="0"/>
<stop offset="0.19" stop-color="white" stop-opacity="0.01"/>
<stop offset="0.32" stop-color="white" stop-opacity="0.05"/>
<stop offset="0.44" stop-color="white" stop-opacity="0.11"/>
<stop offset="0.55" stop-color="white" stop-opacity="0.19"/>
<stop offset="0.65" stop-color="white" stop-opacity="0.31"/>
<stop offset="0.74" stop-color="white" stop-opacity="0.44"/>
<stop offset="0.83" stop-color="white" stop-opacity="0.61"/>
<stop offset="0.92" stop-color="white" stop-opacity="0.79"/>
<stop offset="1" stop-color="white"/>
</linearGradient>
<linearGradient id="paint2_linear_5285_6451" x1="208.369" y1="207.559" x2="105.421" y2="26.0952" gradientUnits="userSpaceOnUse">
<stop stop-color="#33AEF3" stop-opacity="0"/>
<stop offset="0.35" stop-color="#2FA2E5" stop-opacity="0.07"/>
<stop offset="0.62" stop-color="#247CB8" stop-opacity="0.29"/>
<stop offset="0.85" stop-color="#113D6D" stop-opacity="0.67"/>
<stop offset="1" stop-color="#00052B"/>
</linearGradient>
<linearGradient id="paint3_linear_5285_6451" x1="-35.5582" y1="257.793" x2="163.812" y2="-43.1496" gradientUnits="userSpaceOnUse">
<stop stop-color="white" stop-opacity="0"/>
<stop offset="0.08" stop-color="white" stop-opacity="0.04"/>
<stop offset="0.22" stop-color="white" stop-opacity="0.13"/>
<stop offset="0.4" stop-color="white" stop-opacity="0.29"/>
<stop offset="0.6" stop-color="white" stop-opacity="0.5"/>
<stop offset="0.83" stop-color="white" stop-opacity="0.78"/>
<stop offset="1" stop-color="white"/>
</linearGradient>
<linearGradient id="paint4_linear_5285_6451" x1="76.4051" y1="76.0937" x2="27.7828" y2="186.916" gradientUnits="userSpaceOnUse">
<stop stop-color="#33AEF3" stop-opacity="0"/>
<stop offset="0.35" stop-color="#2FA2E5" stop-opacity="0.07"/>
<stop offset="0.62" stop-color="#247CB8" stop-opacity="0.29"/>
<stop offset="0.85" stop-color="#113D6D" stop-opacity="0.67"/>
<stop offset="1" stop-color="#00052B"/>
</linearGradient>
<linearGradient id="paint5_linear_5285_6451" x1="227.305" y1="152.84" x2="123.23" y2="116.033" gradientUnits="userSpaceOnUse">
<stop stop-color="white" stop-opacity="0"/>
<stop offset="0.08" stop-color="white" stop-opacity="0.04"/>
<stop offset="0.22" stop-color="white" stop-opacity="0.13"/>
<stop offset="0.4" stop-color="white" stop-opacity="0.29"/>
<stop offset="0.6" stop-color="white" stop-opacity="0.5"/>
<stop offset="0.83" stop-color="white" stop-opacity="0.78"/>
<stop offset="1" stop-color="white"/>
</linearGradient>
</defs>
</svg>
