<svg width="640" height="220" viewBox="0 0 640 220" fill="none" xmlns="http://www.w3.org/2000/svg">
<path d="M0 32C0 14.3269 14.3269 0 32 0H608C625.673 0 640 14.3269 640 32V188C640 205.673 625.673 220 608 220H32C14.3269 220 0 205.673 0 188V32Z" fill="#030712"/>
<path d="M155.82 145.175C151.296 141.045 149.976 132.368 151.86 126.082C155.128 130.045 159.656 131.302 164.347 132.009C171.588 133.103 178.698 132.694 185.425 129.389C186.194 129.011 186.905 128.507 187.746 127.998C188.377 129.826 188.542 131.672 188.321 133.551C187.785 138.127 185.505 141.662 181.878 144.341C180.428 145.413 178.893 146.371 177.395 147.383C172.793 150.487 171.549 154.129 173.278 159.427C173.319 159.556 173.355 159.685 173.448 160C171.099 158.951 169.383 157.421 168.075 155.411C166.694 153.289 166.037 150.942 166.003 148.403C165.985 147.167 165.985 145.92 165.819 144.702C165.412 141.733 164.016 140.402 161.386 140.325C158.686 140.247 156.551 141.913 155.984 144.539C155.941 144.739 155.878 144.938 155.816 145.172L155.82 145.175Z" fill="white"/>
<path d="M155.82 145.175C151.296 141.045 149.976 132.368 151.86 126.082C155.128 130.045 159.656 131.302 164.347 132.009C171.588 133.103 178.698 132.694 185.425 129.389C186.194 129.011 186.905 128.507 187.746 127.998C188.377 129.826 188.542 131.672 188.321 133.551C187.785 138.127 185.505 141.662 181.878 144.341C180.428 145.413 178.893 146.371 177.395 147.383C172.793 150.487 171.549 154.129 173.278 159.427C173.319 159.556 173.355 159.685 173.448 160C171.099 158.951 169.383 157.421 168.075 155.411C166.694 153.289 166.037 150.942 166.003 148.403C165.985 147.167 165.985 145.92 165.819 144.702C165.412 141.733 164.016 140.402 161.386 140.325C158.686 140.247 156.551 141.913 155.984 144.539C155.941 144.739 155.878 144.938 155.816 145.172L155.82 145.175Z" fill="url(#paint0_linear_5267_6545)"/>
<path d="M130 125.034C130 125.034 143.396 118.518 156.829 118.518L166.957 87.2157C167.337 85.7017 168.444 84.6731 169.694 84.6731C170.944 84.6731 172.051 85.7017 172.43 87.2157L182.558 118.518C198.468 118.518 209.388 125.034 209.388 125.034C209.388 125.034 186.633 63.133 186.589 63.009C185.936 61.1787 184.833 60 183.347 60H156.043C154.556 60 153.498 61.1787 152.801 63.009C152.752 63.131 130 125.034 130 125.034Z" fill="white"/>
<path d="M271.236 105.124C271.236 110.609 264.404 113.885 254.944 113.885C248.786 113.885 246.609 112.361 246.609 109.161C246.609 105.809 249.312 104.209 255.468 104.209C261.025 104.209 265.755 104.286 271.236 104.971V105.124ZM271.311 98.3435C267.933 97.5815 262.826 97.1243 256.745 97.1243C239.026 97.1243 230.693 101.314 230.693 111.066C230.693 121.199 236.398 125.084 249.612 125.084C260.8 125.084 268.382 122.265 271.161 115.332H271.611C271.535 117.009 271.461 118.685 271.461 119.979C271.461 123.56 272.061 123.865 274.989 123.865H288.804C288.053 121.732 287.603 115.713 287.603 110.533C287.603 104.971 287.828 100.781 287.828 95.1435C287.828 83.64 280.921 76.3259 259.298 76.3259C249.988 76.3259 239.627 77.9259 231.744 80.2879C232.494 83.4114 233.545 89.7345 234.071 93.8486C240.903 90.6486 250.589 89.2773 258.097 89.2773C268.457 89.2773 271.311 91.6392 271.311 96.4388V98.3435Z" fill="white"/>
<path d="M309.217 108.323C307.34 108.552 304.786 108.552 302.159 108.552C299.381 108.552 296.829 108.475 295.101 108.247C295.101 108.856 295.026 109.542 295.026 110.152C295.026 119.674 301.259 125.236 323.182 125.236C343.828 125.236 350.51 119.751 350.51 110.075C350.51 100.933 346.081 96.4382 326.485 95.4481C311.244 94.7622 309.893 93.0861 309.893 91.1814C309.893 88.9724 311.844 87.8297 322.055 87.8297C332.642 87.8297 335.494 89.2771 335.494 92.3245V93.01C336.997 92.9339 339.699 92.8579 342.477 92.8579C345.105 92.8579 347.957 92.934 349.61 93.0861C349.61 92.4006 349.685 91.7912 349.685 91.2579C349.685 80.0587 340.374 76.4019 322.356 76.4019C302.084 76.4019 295.252 81.354 295.252 91.0293C295.252 99.7143 300.733 105.123 320.179 105.961C334.518 106.419 336.095 108.018 336.095 110.228C336.095 112.589 333.768 113.656 323.707 113.656C312.145 113.656 309.217 112.056 309.217 108.78V108.323Z" fill="white"/>
<path d="M375.291 68.1736C369.81 73.2779 359.975 78.3822 354.495 79.7535C354.57 82.5723 354.57 87.7527 354.57 90.5715L359.6 90.6476C359.524 96.057 359.449 102.609 359.449 106.951C359.449 117.084 364.78 124.702 381.372 124.702C388.355 124.702 393.01 123.94 398.791 122.721C398.19 118.988 397.514 113.275 397.289 108.932C393.836 110.075 389.481 110.684 384.676 110.684C377.994 110.684 375.291 108.856 375.291 103.599C375.291 99.028 375.291 94.7617 375.366 90.8002C383.926 90.8762 392.485 91.0288 397.514 91.1809C397.439 87.2194 397.59 81.5057 397.815 77.6967C390.533 77.8488 382.349 77.9249 375.591 77.9249C375.667 74.5732 375.741 71.3732 375.817 68.1736H375.291Z" fill="white"/>
<path d="M420.133 88.2869C420.208 84.3253 420.283 80.9732 420.358 77.6971H405.267C405.492 84.2492 405.492 90.9535 405.492 100.781C405.492 110.609 405.417 117.389 405.267 123.865H422.536C422.235 119.294 422.16 111.599 422.16 105.047C422.16 94.6865 426.365 91.7151 435.9 91.7151C440.33 91.7151 443.483 92.2484 446.261 93.239C446.336 89.3535 447.087 81.8112 447.536 78.4591C444.684 77.621 441.53 77.0877 437.701 77.0877C429.518 77.0116 423.512 80.3638 420.734 88.3629L420.133 88.2869Z" fill="white"/>
<path d="M495.308 100.475C495.308 108.779 489.3 112.665 479.842 112.665C470.457 112.665 464.451 109.008 464.451 100.475C464.451 91.9425 470.532 88.7429 479.842 88.7429C489.225 88.7429 495.308 92.1711 495.308 100.475ZM511 100.094C511 83.5621 498.086 76.1724 479.842 76.1724C461.523 76.1724 449.06 83.5621 449.06 100.094C449.06 116.55 460.696 125.388 479.767 125.388C498.988 125.388 511 116.55 511 100.094Z" fill="white"/>
<defs>
<linearGradient id="paint0_linear_5267_6545" x1="151.029" y1="160" x2="194.689" y2="139.344" gradientUnits="userSpaceOnUse">
<stop stop-color="#D83333"/>
<stop offset="1" stop-color="#F041FF"/>
</linearGradient>
</defs>
</svg>
