<svg xmlns="http://www.w3.org/2000/svg" width="800" height="800" fill="none"><path fill="url(#a)" d="M400 750c193.3 0 350-156.7 350-350S593.3 50 400 50 50 206.7 50 400s156.7 350 350 350Z"/><path fill="red" d="m639.062 159.375-268.75 210.937 62.5 62.5 206.25-273.437Z"/><path fill="#fff" d="m159.375 639.062 210.937-268.75 62.5 62.5-273.437 206.25Z"/><path fill="#000" d="M400 84.375v51.563Zm0 578.125v51.562Zm54.688-573.438-8.907 50.782ZM354.219 658.282l-8.907 51.094Zm153.593-554.843-17.656 48.437ZM310 646.562 292.344 695Zm35.312-557.5 8.907 50.782Zm100.469 569.219 8.907 51.094ZM292.188 103.438l17.656 48.437Zm197.656 543.124L507.5 695Zm-247.344-520 25.938 44.688Zm289.219 500.626 25.781 44.687ZM197.656 157.812l33.125 39.532Zm371.563 442.969 33.125 39.531ZM158.594 196.562l39.531 33.126Zm442.968 371.876 39.532 33.124ZM127.031 241.875l44.688 25.781Zm500.938 289.063 44.687 25.781ZM103.906 291.562l48.438 17.657Zm543.125 197.344 48.438 17.656ZM89.688 344.062l50.937 9.063ZM659.375 445l50.781 8.906ZM85.156 399.219h51.563Zm578.125 0h51.563ZM89.844 453.906 140.625 445Zm569.531-100.468 50.781-8.907Zm-555 153.593 48.437-17.656Zm542.969-197.656 48.437-17.656Zm-520 247.344 44.687-25.781Zm500.937-289.063 44.688-25.781ZM158.75 601.562l39.531-33.124ZM601.406 230l39.532-33.125ZM197.188 640.625l33.124-39.531ZM568.75 197.656l33.125-39.531ZM242.5 671.875l25.938-44.687ZM531.719 171.25l25.781-44.688ZM372.5 85.625l2.5 28.125ZM425 685l2.5 28.125ZM318.438 95.312l7.343 27.188ZM474.219 676.25l7.343 27.188ZM266.875 114.062l11.875 25.469Zm254.063 545.157 12.031 25.469ZM219.375 141.25l16.094 23.125Zm345.156 492.812 16.094 23.126Zm-387.187-457.5 19.844 19.844Zm425.468 425.469 19.844 19.844ZM142.188 218.75l23.124 16.094ZM635 564.062l22.812 15.626ZM114.688 266.094l25.468 11.875Zm545.156 254.062 25.468 12.032Zm-563.907-202.5L123.126 325Zm580.938 155.782 27.187 7.343ZM86.406 371.875l28.125 2.5Zm599.375 52.5 28.125 2.5Zm-599.062 2.5 28.125-2.5Zm599.375-52.5 28.125-2.5ZM95.937 480.781l27.188-7.343ZM676.875 325l27.187-7.344ZM114.688 532.344l25.468-11.875Zm545.156-254.063 25.468-11.875ZM142.188 579.688l23.124-16.094ZM635 234.375l22.812-15.625ZM219.375 657.188l16.094-23.126Zm345-492.813 16.25-23.125Zm-297.5 520 12.031-25.469Zm254.219-545.313 12.031-25.468ZM318.438 703.125l7.343-27.187Zm155.781-580.937L481.562 95ZM372.5 712.5l2.5-28.125ZM425 113.125 427.5 85Z"/><path stroke="#fff" stroke-width="4.688" d="M400 84.375v51.563m0 526.562v51.562m54.688-625-8.907 50.782m-91.562 518.437-8.907 51.094m162.5-605.937-17.656 48.437M310 646.562 292.344 695m52.968-605.938 8.907 50.782m91.562 518.437 8.907 51.094m-162.5-605.937 17.656 48.437m180 494.687L507.5 695m-265-568.438 25.938 44.688m263.281 455.938 25.781 44.687M197.656 157.812l33.125 39.532m338.438 403.437 33.125 39.531m-443.75-443.75 39.531 33.126m403.437 338.75 39.532 33.124M127.031 241.875l44.688 25.781m456.25 263.282 44.687 25.781m-568.75-265.157 48.438 17.657m494.687 179.687 48.438 17.656m-605.782-162.5 50.938 9.063M659.375 445l50.781 8.906m-625-54.687h51.563m526.562 0h51.563m-625 54.687L140.625 445m518.75-91.562 50.781-8.907m-605.781 162.5 48.437-17.656m494.532-180 48.437-17.656m-568.437 265 44.687-25.781m456.25-263.282 44.688-25.781M158.75 601.562l39.531-33.124M601.406 230l39.532-33.125m-443.75 443.75 33.124-39.531M568.75 197.656l33.125-39.531M242.5 671.875l25.938-44.687M531.719 171.25l25.781-44.688m-185-40.937 2.5 28.125M425 685l2.5 28.125M318.438 95.312l7.343 27.188m148.438 553.75 7.343 27.188M266.875 114.062l11.875 25.469m242.188 519.688 12.031 25.469M219.375 141.25l16.094 23.125m329.062 469.687 16.094 23.126M177.344 176.562l19.844 19.844m405.624 405.625 19.844 19.844M142.188 218.75l23.124 16.094M635 564.062l22.812 15.626M114.688 266.094l25.468 11.875m519.688 242.187 25.468 12.032M95.937 317.656 123.126 325m553.75 148.438 27.187 7.343M86.406 371.875l28.125 2.5m571.25 50 28.125 2.5m-627.187 0 28.125-2.5m571.25-50 28.125-2.5M95.937 480.781l27.188-7.343M676.875 325l27.187-7.344M114.688 532.344l25.468-11.875m519.688-242.188 25.468-11.875M142.188 579.688l23.124-16.094M635 234.375l22.812-15.625M219.375 657.188l16.094-23.126m328.906-469.687 16.25-23.125m-313.75 543.125 12.031-25.469m242.188-519.844 12.031-25.468M318.438 703.125l7.343-27.187m148.438-553.75L481.562 95M372.5 712.5l2.5-28.125m50-571.25L427.5 85"/><defs><linearGradient id="a" x1="50" x2="50" y1="50" y2="3584050" gradientUnits="userSpaceOnUse"><stop stop-color="#19D7FF"/><stop offset="1" stop-color="#1E64F0"/></linearGradient></defs></svg>