<svg width="64" height="64" viewBox="0 0 64 64" fill="none" xmlns="http://www.w3.org/2000/svg">
<path d="M45.3359 10.666H18.6693C10.6693 10.666 5.33594 14.666 5.33594 23.9993V33.4927C5.33594 34.4793 6.34927 35.0927 7.22927 34.6927C9.8426 33.4927 12.8559 33.0393 16.0293 33.5993C23.0426 34.8527 28.1893 41.3593 28.0026 48.4793C27.9759 49.5993 27.8159 50.6927 27.5226 51.7593C27.3093 52.586 27.9759 53.3593 28.8293 53.3593H45.3359C53.3359 53.3593 58.6693 49.3593 58.6693 40.026V23.9993C58.6693 14.666 53.3359 10.666 45.3359 10.666ZM32.0026 38.666C28.3226 38.666 25.3359 35.6793 25.3359 31.9993C25.3359 28.3193 28.3226 25.3327 32.0026 25.3327C35.6826 25.3327 38.6693 28.3193 38.6693 31.9993C38.6693 35.6793 35.6826 38.666 32.0026 38.666ZM51.3359 37.3327C51.3359 38.426 50.4293 39.3327 49.3359 39.3327C48.2426 39.3327 47.3359 38.426 47.3359 37.3327V26.666C47.3359 25.5727 48.2426 24.666 49.3359 24.666C50.4293 24.666 51.3359 25.5727 51.3359 26.666V37.3327Z" fill="#292D32"/>
<path d="M13.3307 37.334C7.4374 37.334 2.66406 42.1073 2.66406 48.0007C2.66406 50.0007 3.22406 51.894 4.21073 53.494C6.05073 56.5873 9.4374 58.6673 13.3307 58.6673C17.2241 58.6673 20.6107 56.5873 22.4507 53.494C23.4374 51.894 23.9974 50.0007 23.9974 48.0007C23.9974 42.1073 19.2241 37.334 13.3307 37.334ZM18.5841 47.1207L12.9041 52.374C12.5307 52.7206 12.0241 52.9073 11.5441 52.9073C11.0374 52.9073 10.5307 52.7207 10.1307 52.3207L7.49073 49.6806C6.7174 48.9073 6.7174 47.6273 7.49073 46.854C8.26406 46.0807 9.54406 46.0807 10.3174 46.854L11.5974 48.134L15.8641 44.1873C16.6641 43.4407 17.9441 43.494 18.6907 44.294C19.4374 45.094 19.3841 46.374 18.5841 47.1207Z" fill="#292D32"/>
</svg>
