<svg xmlns="http://www.w3.org/2000/svg" width="64" height="64" fill="none" viewBox="0 0 64 64"><path fill="#323232" fill-rule="evenodd" d="M19.334 6.368c3.463-.77 7.665-1.035 12.667-1.035s9.203.265 12.666 1.035c3.494.776 6.397 2.101 8.63 4.335s3.56 5.137 4.336 8.63c.77 3.464 1.034 7.665 1.034 12.667s-.264 9.203-1.034 12.667c-.776 3.493-2.102 6.397-4.335 8.63s-5.137 3.56-8.63 4.336c-3.464.77-7.666 1.034-12.667 1.034-5.002 0-9.204-.265-12.667-1.034-3.493-.777-6.397-2.102-8.63-4.336-2.234-2.233-3.56-5.137-4.336-8.63-.77-3.464-1.034-7.665-1.034-12.667s.265-9.203 1.034-12.666c.777-3.494 2.102-6.397 4.336-8.631 2.233-2.233 5.137-3.559 8.63-4.335" clip-rule="evenodd"/></svg>